<svg id="Layer_1" data-name="Layer 1" xmlns="http://www.w3.org/2000/svg" xmlns:xlink="http://www.w3.org/1999/xlink" viewBox="0 0 118.47 152.25"><defs><style>.cls-1{fill:none;}.cls-2{clip-path:url(#clip-path);}.cls-3{fill:#fdd7b2;}.cls-4{fill:#eabe96;}.cls-5{fill:#50b5e7;}.cls-6{fill:#299dd8;}.cls-7{fill:#915a41;}.cls-8{fill:#573722;}.cls-9{fill:#d80361;}.cls-10{fill:#fff;}</style><clipPath id="clip-path" transform="translate(-25.8 -8.91)"><rect class="cls-1" x="25.8" y="23.56" width="74.42" height="137.6"/></clipPath></defs><g id="Componente_46_28" data-name="Componente 46 28"><g id="Grupo_792" data-name="Grupo 792"><g id="Secure"><g id="Grupo_787" data-name="Grupo 787"><g class="cls-2"><g id="Grupo_724" data-name="Grupo 724"><path id="Trazado_142" data-name="Trazado 142" class="cls-3" d="M70.34,91.3V83.62H55.69V91.3a1.15,1.15,0,0,1-1.18,1.11H44.41v26.51H81.62V92.41H71.52a1.15,1.15,0,0,1-1.18-1.11" transform="translate(-25.8 -8.91)"/><path id="Trazado_143" data-name="Trazado 143" class="cls-4" d="M81.73,92.41H71.63a1.15,1.15,0,0,1-1.18-1.11V83.62H62.79v35.3H81.73Z" transform="translate(-25.8 -8.91)"/><path id="Trazado_144" data-name="Trazado 144" class="cls-3" d="M38.65,62a5.54,5.54,0,1,1,.65,11.07c-.22,0-.43,0-.65,0A5.54,5.54,0,0,1,38,62a3.53,3.53,0,0,1,.65,0" transform="translate(-25.8 -8.91)"/><path id="Trazado_145" data-name="Trazado 145" class="cls-4" d="M86.12,62a5.54,5.54,0,1,1-5.85,5.53A5.71,5.71,0,0,1,86.12,62" transform="translate(-25.8 -8.91)"/><path id="Trazado_146" data-name="Trazado 146" class="cls-3" d="M63.05,90.58H61.73a21.53,21.53,0,0,1-22.11-20.9V50.61a21.54,21.54,0,0,1,22.11-20.9h1.32a21.53,21.53,0,0,1,22.1,20.9V69.68a21.52,21.52,0,0,1-22.1,20.9" transform="translate(-25.8 -8.91)"/><path id="Trazado_147" data-name="Trazado 147" class="cls-3" d="M63.05,29.71h-.39V90.58H63a21.53,21.53,0,0,0,22.1-20.9V50.6A21.51,21.51,0,0,0,63,29.71" transform="translate(-25.8 -8.91)"/><path id="Trazado_148" data-name="Trazado 148" class="cls-5" d="M83.21,92.41H75.42c0,6.48.17,12.65-12.62,12.65S50.61,98.89,50.61,92.41h-7.8a16.57,16.57,0,0,0-17,16.08V154.1a101.52,101.52,0,0,0,74.42,0V108.49a16.56,16.56,0,0,0-17-16.08" transform="translate(-25.8 -8.91)"/><path id="Trazado_149" data-name="Trazado 149" class="cls-6" d="M83.22,92.41h-7.8c0,6.48.11,12.65-12.62,12.65v56.1H63a100.61,100.61,0,0,0,37.2-7.07v-45.6a16.55,16.55,0,0,0-17-16.08" transform="translate(-25.8 -8.91)"/><path id="Trazado_150" data-name="Trazado 150" class="cls-7" d="M84.45,33.94A26.21,26.21,0,0,0,63.36,23.56H61.82A25.08,25.08,0,0,0,36.06,47.91V49.8L35.68,57h3.78l.38-.13h0A98.75,98.75,0,0,0,72.49,49a58.32,58.32,0,0,0,12.2,10.11l.75,0h4.43l-.76-5V47.91a23.3,23.3,0,0,0-4.66-14" transform="translate(-25.8 -8.91)"/><path id="Trazado_151" data-name="Trazado 151" class="cls-8" d="M84.45,33.94A26.21,26.21,0,0,0,63.37,23.56h-.19v29A69.16,69.16,0,0,0,72.5,49,58.11,58.11,0,0,0,84.71,59.1l.75,0h4.42l-.75-5V47.91a23.31,23.31,0,0,0-4.67-14" transform="translate(-25.8 -8.91)"/></g></g></g><g id="Componente_42_13" data-name="Componente 42 13"><rect id="Rectángulo_124" data-name="Rectángulo 124" class="cls-9" x="65.12" width="53.35" height="30.49" rx="15.24"/><circle id="Elipse_54-9" data-name="Elipse 54-9" class="cls-10" cx="103.24" cy="15.24" r="7.62"/></g></g></g></g></svg>