<svg id="Layer_1" data-name="Layer 1" xmlns="http://www.w3.org/2000/svg" xmlns:xlink="http://www.w3.org/1999/xlink" viewBox="0 0 121.28 154.48"><defs><style>.cls-1{fill:none;}.cls-2{clip-path:url(#clip-path);}.cls-3{fill:#fdd7b2;}.cls-4{fill:#eabe96;}.cls-5{fill:#f4e3c3;}.cls-6{fill:#b9784f;}.cls-7{fill:#945735;}.cls-8{fill:#b0b3b4;}.cls-9{fill:#cdcfd0;}.cls-10{fill:#d80361;}.cls-11{fill:#fff;}</style><clipPath id="clip-path" transform="translate(-24.4 -7.79)"><rect class="cls-1" x="24.4" y="32.05" width="75.93" height="130.24"/></clipPath></defs><g id="Componente_48_13" data-name="Componente 48 13"><g id="Secure-4"><g id="Grupo_725" data-name="Grupo 725"><g class="cls-2"><g id="Grupo_725-2" data-name="Grupo 725-2"><path id="Trazado_152" data-name="Trazado 152" class="cls-3" d="M70.48,88.34V80.5h-15v7.84a1.17,1.17,0,0,1-1.2,1.13H44v27.05H82v-27H71.68a1.16,1.16,0,0,1-1.2-1.13" transform="translate(-24.4 -7.79)"/><path id="Trazado_153" data-name="Trazado 153" class="cls-4" d="M82,89.47H71.68a1.16,1.16,0,0,1-1.2-1.13V80.5H62.32v36H82Z" transform="translate(-24.4 -7.79)"/><path id="Trazado_154" data-name="Trazado 154" class="cls-5" d="M49.71,89.47H46.93l10.93,37.06h4.46V98.11c-6.71-.13-12.61-2.25-12.61-8.64" transform="translate(-24.4 -7.79)"/><path id="Trazado_155" data-name="Trazado 155" class="cls-3" d="M79.08,89.47H75c0,6.61-5,8.65-12,8.65h-.68v28.41h5.82Z" transform="translate(-24.4 -7.79)"/><path id="Trazado_156" data-name="Trazado 156" class="cls-6" d="M49.7,89.47h-8a16.9,16.9,0,0,0-17.35,16.4V155.2c11.15,6.19,24.09,7,37.92,7.07V98.11c-6.71-.13-12.61-2.25-12.61-8.64" transform="translate(-24.4 -7.79)"/><path id="Trazado_157" data-name="Trazado 157" class="cls-7" d="M83,89.47H75c0,6.61-5,8.65-12,8.65h-.68v64.16H63c13.56,0,26.29-.55,37.33-6.4v-50A16.89,16.89,0,0,0,83,89.47" transform="translate(-24.4 -7.79)"/><path id="Trazado_158" data-name="Trazado 158" class="cls-5" d="M37.57,107.83a11,11,0,0,0-11.31,10.69h5.65a5.66,5.66,0,0,1,11.31,0v42.62c1.66.25,3.74.54,5.65.63V118.51a11,11,0,0,0-11.3-10.69" transform="translate(-24.4 -7.79)"/><path id="Trazado_159" data-name="Trazado 159" class="cls-3" d="M38.14,65a5.66,5.66,0,1,1,.66,11.3q-.33,0-.66,0A5.66,5.66,0,0,1,37.48,65q.33,0,.66,0" transform="translate(-24.4 -7.79)"/><path id="Trazado_160" data-name="Trazado 160" class="cls-4" d="M86.59,65a5.66,5.66,0,1,1-6,5.65,5.83,5.83,0,0,1,6-5.65" transform="translate(-24.4 -7.79)"/><path id="Trazado_161" data-name="Trazado 161" class="cls-3" d="M63,94.16H61.69A22,22,0,0,1,39.13,72.84V53.37A22,22,0,0,1,61.69,32.05H63A22,22,0,0,1,85.59,53.37V72.84A22,22,0,0,1,63,94.16" transform="translate(-24.4 -7.79)"/><path id="Trazado_162" data-name="Trazado 162" class="cls-3" d="M63,32h-.72V94.16H63A22,22,0,0,0,85.61,72.84V53.37A22,22,0,0,0,63,32" transform="translate(-24.4 -7.79)"/><path id="Trazado_163" data-name="Trazado 163" class="cls-4" d="M73.79,53.78a1.26,1.26,0,0,1-.81-.27,16.61,16.61,0,0,0-20,0,1.33,1.33,0,0,1-1.81-.18,1.17,1.17,0,0,1,.12-1.65l.07-.06a19.29,19.29,0,0,1,23.2,0,1.18,1.18,0,0,1,.25,1.64l-.06.07a1.29,1.29,0,0,1-1,.45" transform="translate(-24.4 -7.79)"/><path id="Trazado_164" data-name="Trazado 164" class="cls-4" d="M76.1,48.83a1.32,1.32,0,0,1-.81-.27,20.43,20.43,0,0,0-24.6,0,1.33,1.33,0,0,1-1.8-.18A1.16,1.16,0,0,1,49,46.73l.08-.06a23.13,23.13,0,0,1,27.82,0,1.17,1.17,0,0,1,.25,1.63l-.06.08a1.32,1.32,0,0,1-1,.45" transform="translate(-24.4 -7.79)"/><path id="Trazado_165" data-name="Trazado 165" class="cls-4" d="M74.6,51.63A19.12,19.12,0,0,0,63,47.75h-.68v2.45c.22,0,.45,0,.68,0a16.31,16.31,0,0,1,10,3.34,1.33,1.33,0,0,0,1.8-.18,1.17,1.17,0,0,0-.11-1.65l-.08-.06" transform="translate(-24.4 -7.79)"/><path id="Trazado_166" data-name="Trazado 166" class="cls-4" d="M76.91,46.67A23,23,0,0,0,63,42h-.68v2.43H63a20,20,0,0,1,12.3,4.11,1.34,1.34,0,0,0,1.81-.18A1.17,1.17,0,0,0,77,46.73l-.07-.06" transform="translate(-24.4 -7.79)"/><path id="Trazado_167" data-name="Trazado 167" class="cls-8" d="M91.07,66.31a7.2,7.2,0,0,0,7.37-6.26,6.53,6.53,0,0,0-1-3.95,6.45,6.45,0,0,0,1-3.39,7,7,0,0,0-7.19-6.81,7,7,0,0,0-7.06-6.8,7.15,7.15,0,0,0-7.33,7h0v7.37A13.23,13.23,0,0,0,90.47,66.3Z" transform="translate(-24.4 -7.79)"/><path id="Trazado_168" data-name="Trazado 168" class="cls-9" d="M70.57,94.48s18.59-1.82,16.51-32.06c0,0-4.39,14.49-14.63,15.91a6.53,6.53,0,0,0-6.17-4.25H58.36a6.54,6.54,0,0,0-6.17,4.25C42,76.92,37.56,62.42,37.56,62.42,35.48,92.65,54.07,94.48,54.07,94.48ZM68.07,85H56.58c-1.38,0-2.5-2.66-2.5-4h0a2.47,2.47,0,0,1,2.5-2.43h11.5A2.47,2.47,0,0,1,70.58,81c0,1.34-1.12,4-2.5,4" transform="translate(-24.4 -7.79)"/><path id="Trazado_169" data-name="Trazado 169" class="cls-8" d="M87.07,62.42S82.69,76.91,72.45,78.33a6.54,6.54,0,0,0-6.17-4.25H62.2v4.49h5.88A2.47,2.47,0,0,1,70.58,81h0c0,1.34-1.12,4-2.5,4H62.19v9.47h8.38s18.59-1.82,16.5-32.06" transform="translate(-24.4 -7.79)"/><path id="Trazado_170" data-name="Trazado 170" class="cls-9" d="M34.94,66.31a7.2,7.2,0,0,1-7.37-6.26,6.46,6.46,0,0,1,.95-3.95,6.36,6.36,0,0,1-1-3.39,7,7,0,0,1,7.19-6.81,7,7,0,0,1,7.06-6.8,7.15,7.15,0,0,1,7.33,7h0v7.37A13.24,13.24,0,0,1,35.54,66.31Z" transform="translate(-24.4 -7.79)"/></g></g></g><g id="Componente_42_4" data-name="Componente 42 4"><rect id="Rectángulo_124-4" data-name="Rectángulo 124-4" class="cls-10" x="60.85" width="60.43" height="34.16" rx="17.08"/><circle id="Elipse_54-12" data-name="Elipse 54-12" class="cls-11" cx="104.19" cy="17.09" r="9.2"/></g></g></g></svg>