<svg id="Layer_1" data-name="Layer 1" xmlns="http://www.w3.org/2000/svg" viewBox="0 0 121.62 156.26"><defs><style>.cls-1{fill:#d80361;}.cls-2{fill:#fff;}.cls-3{fill:#fbcea3;}.cls-4{fill:#e6ae82;}.cls-5{fill:#154c66;}.cls-6{fill:#814327;}.cls-7{fill:#d2d2d1;}.cls-8{fill:#c4c0be;}.cls-9{fill:#a1a09f;}.cls-10{fill:#6c3115;}.cls-11{fill:#be181f;}.cls-12{fill:#a61b20;}.cls-13{fill:#97191d;}.cls-14{fill:#f9c388;}</style></defs><g id="Componente_44_8" data-name="Componente 44 8"><g id="Secure-6"><g id="Componente_42_12" data-name="Componente 42 12"><path id="Rectángulo_124-7" data-name="Rectángulo 124-7" class="cls-1" d="M101,6.91h27.2A17.69,17.69,0,0,1,145.85,24.6h0a17.69,17.69,0,0,1-17.69,17.68H101A17.69,17.69,0,0,1,83.27,24.6h0A17.69,17.69,0,0,1,101,6.91Z" transform="translate(-24.23 -6.91)"/><circle id="Elipse_54-15" data-name="Elipse 54-15" class="cls-2" cx="103.94" cy="17.68" r="9.52"/></g><g id="Grupo_1131" data-name="Grupo 1131"><g id="Group_722" data-name="Group 722"><path id="Path_115" data-name="Path 115" class="cls-3" d="M69,92.91V85.19H54.27v7.72A1.16,1.16,0,0,1,53.09,94L43,94.38v26.26H80.31V94H70.17A1.15,1.15,0,0,1,69,92.91h0" transform="translate(-24.23 -6.91)"/><path id="Path_116" data-name="Path 116" class="cls-4" d="M80.31,94H70.17A1.14,1.14,0,0,1,69,92.91V85.19h-7.7v35.45h19Z" transform="translate(-24.23 -6.91)"/><path id="Path_117" data-name="Path 117" class="cls-5" d="M82,94H74.1c0,6.51-12.47,10.34-12.47,10.34S49.16,100.54,49.16,94H41.33a16.66,16.66,0,0,0-17.1,16.16v45.88a102.17,102.17,0,0,0,74.82,0V110.19A16.66,16.66,0,0,0,82,94" transform="translate(-24.23 -6.91)"/><path id="Path_120" data-name="Path 120" class="cls-6" d="M61.66,63.47h-29V55.94c0-16.13,14-27.31,29-27.41Z" transform="translate(-24.23 -6.91)"/><path id="Path_121" data-name="Path 121" class="cls-3" d="M92.06,67a6.59,6.59,0,0,1-7.22,5.71V61.28A6.59,6.59,0,0,1,92.06,67" transform="translate(-24.23 -6.91)"/><path id="Path_122" data-name="Path 122" class="cls-3" d="M31.21,67a6.59,6.59,0,0,0,7.22,5.71V61.28A6.59,6.59,0,0,0,31.21,67" transform="translate(-24.23 -6.91)"/><path id="Path_123" data-name="Path 123" class="cls-3" d="M79.49,52.08a3.22,3.22,0,0,0-3.43-3,1.92,1.92,0,0,0-.41,0l-1.21.16a100.43,100.43,0,0,1-26.83-.16,3.22,3.22,0,0,0-3.79,2.53c0,.14,0,.27,0,.41A8.18,8.18,0,0,1,40,58.85a7.4,7.4,0,0,1-1.61.82c0,13.38-.18,14.27.63,17.3a19.64,19.64,0,0,0,4.05,7.67c10.8,12.72,33.4,10.24,40.11-4.85,2.22-5,1.63-8.78,1.63-20.13a8.25,8.25,0,0,1-5.35-7.58" transform="translate(-24.23 -6.91)"/><path id="Path_125" data-name="Path 125" class="cls-7" d="M61,102.28l-2.29-1.7v17.81A2.23,2.23,0,0,0,61,120.56h0Z" transform="translate(-24.23 -6.91)"/><path id="Path_128" data-name="Path 128" class="cls-8" d="M66.71,107.5a2.4,2.4,0,0,0,1.32.16Z" transform="translate(-24.23 -6.91)"/><path id="Path_129" data-name="Path 129" class="cls-7" d="M52.93,94,61,102.28l-5,4.78a2.36,2.36,0,0,1-3.32-.11h0l-.07-.08L45.77,94Z" transform="translate(-24.23 -6.91)"/><path id="Path_130" data-name="Path 130" class="cls-9" d="M57.68,105.44,61,102.27,52.93,94H49.15Z" transform="translate(-24.23 -6.91)"/></g><g id="Group_723-2" data-name="Group 723-2"><path id="Path_132" data-name="Path 132" class="cls-10" d="M61.09,28.53a44.27,44.27,0,0,1,8.9.82c12.76.86,23.4,17,22.56,26.31,0,8.83.14-1-1.89,35.1a3.71,3.71,0,0,1-3.77,3.63H61.37" transform="translate(-24.23 -6.91)"/><path id="Path_133" data-name="Path 133" class="cls-3" d="M61.15,120.56h19V93.82H69.94a1.15,1.15,0,0,1-1.19-1.12" transform="translate(-24.23 -6.91)"/><path id="Path_133-2" data-name="Path 133-2" class="cls-3" d="M68.76,92.7V85H61.15" transform="translate(-24.23 -6.91)"/><path id="Path_134" data-name="Path 134" class="cls-4" d="M80.25,93.82H70.06a1.15,1.15,0,0,1-1.18-1.12V85H61.15v35.61h19.1Z" transform="translate(-24.23 -6.91)"/><path id="Path_136" data-name="Path 136" class="cls-11" d="M81.75,93.82H73.88c0,6.53.06,9.33-12.79,9.33l.06,60h.22a101.51,101.51,0,0,0,37.53-7.11V110A16.7,16.7,0,0,0,81.76,93.81" transform="translate(-24.23 -6.91)"/><path id="Path_137" data-name="Path 137" class="cls-12" d="M83.05,93.82H73.88c-3.59,5.72-5.55,9.33-12.79,9.33,0,0,22.06,19.86,22-9.33" transform="translate(-24.23 -6.91)"/><path id="Path_140" data-name="Path 140" class="cls-13" d="M70.32,99.09c3.87,2,9.54,4,12.4.42-2.27,21.95-21.64,3.64-21.64,3.64,3.83,0,6.19-2.21,9.25-4.06" transform="translate(-24.23 -6.91)"/><path id="Path_141" data-name="Path 141" class="cls-14" d="M82.53,61.44a2.42,2.42,0,0,1,2.38,2.36v1.7a28.45,28.45,0,0,1-1,9.76,22.27,22.27,0,0,1-7,10.34A26.12,26.12,0,0,1,61,92.22l.09-42.07c9.33,0,13.88,11.21,21.42,11.29" transform="translate(-24.23 -6.91)"/></g></g></g></g></svg>