<svg id="Layer_1" data-name="Layer 1" xmlns="http://www.w3.org/2000/svg" viewBox="0 0 283.46 283.46"><defs><style>.cls-1{fill:#733514;}.cls-2{fill:#9f4a20;}.cls-3{fill:#d67243;}.cls-4{fill:#8abb2a;}.cls-5{fill:#5a7f1c;}.cls-6{fill:#e0007a;}.cls-7{fill:#8b004e;}.cls-8{fill:#fe9d2b;}.cls-9{fill:#c57c22;}.cls-10{fill:#009cdc;}.cls-11{fill:#006790;}.cls-12{fill:#ffedbc;}</style></defs><g id="Grupo_1143" data-name="Grupo 1143"><g id="Grupo_1140" data-name="Grupo 1140"><g id="Grupo_1136" data-name="Grupo 1136"><path id="Trazado_800" data-name="Trazado 800" class="cls-1" d="M36.76,107.51a19,19,0,0,0-2.66,9.76L141.73,122l107.62-4.71a19,19,0,0,0-2.66-9.76l-105-4.71Z"/><path id="Trazado_801" data-name="Trazado 801" class="cls-2" d="M246.7,107.51a19.15,19.15,0,0,0-16.51-9.42H53.26a19.15,19.15,0,0,0-16.51,9.42Z"/><path id="Trazado_802" data-name="Trazado 802" class="cls-3" d="M20.79,127.14l-2.59,9.75,123.51,4.72,123.55-4.72-2.59-9.75L141.74,122Z"/><path id="Trazado_803" data-name="Trazado 803" class="cls-3" d="M262.67,127.13l-.91-3.42a8.69,8.69,0,0,0-8.39-6.47H30.1a8.71,8.71,0,0,0-8.41,6.47l-.9,3.42Z"/><path id="Trazado_804" data-name="Trazado 804" class="cls-3" d="M18.2,159.62v9.76l123.54,4.71,123.52-4.71v-9.76l-123.53-5Z"/><path id="Trazado_805" data-name="Trazado 805" class="cls-3" d="M265.26,169.35H18.2v60.52l123.53,4.71,123.53-4.71Z"/><path id="Trazado_806" data-name="Trazado 806" class="cls-2" d="M16.28,154.61H267.17c4,0,8.4-5.26,8.4-11.26a8.69,8.69,0,0,0-8.4-6.51H16.28a8.69,8.69,0,0,0-8.4,6.51C8.37,149.05,12.24,154.61,16.28,154.61Z"/><path id="Trazado_807" data-name="Trazado 807" class="cls-2" d="M7.75,236.37c0,5.54,4,11.26,8,11.26H267.77c3.92,0,8-5.61,8-11.26a8.12,8.12,0,0,0-8-6.5H15.7A8.11,8.11,0,0,0,7.75,236.37Z"/><g id="Grupo_1135" data-name="Grupo 1135"><path id="Trazado_808" data-name="Trazado 808" class="cls-1" d="M267.77,242.89H15.69a8.11,8.11,0,0,1-7.95-6.51,8.59,8.59,0,0,0-.16,1.6v6.54a8.11,8.11,0,0,0,8.11,8.11H267.76a8.11,8.11,0,0,0,8.11-8.11h0V238a8.59,8.59,0,0,0-.16-1.6A8.11,8.11,0,0,1,267.77,242.89Z"/><path id="Trazado_809" data-name="Trazado 809" class="cls-1" d="M267.17,149.88H16.29a8.69,8.69,0,0,1-8.41-6.5,8.86,8.86,0,0,0-.28,2.18v5.37a8.69,8.69,0,0,0,8.69,8.69H267.18a8.7,8.7,0,0,0,8.7-8.69h0v-5.37a8.42,8.42,0,0,0-.29-2.18,8.67,8.67,0,0,1-8.4,6.5Z"/></g></g><g id="Grupo_1139" data-name="Grupo 1139"><path id="Trazado_810" data-name="Trazado 810" class="cls-4" d="M199.4,39.63a17.9,17.9,0,0,1-3.93,11.71,18.76,18.76,0,0,1-20.2,1.71,17.05,17.05,0,0,1,4.3-10.38,25.27,25.27,0,0,1,19.71-4s.06.32.14.9Z"/><path id="Trazado_811" data-name="Trazado 811" class="cls-5" d="M195.26,48.71a16.24,16.24,0,0,0,4.14-9.08,24,24,0,0,1-4.14,18.81,25.29,25.29,0,0,1-19.71,4,35.13,35.13,0,0,1-.31-9.33,29.26,29.26,0,0,0,20-4.39Z"/><path id="Trazado_812" data-name="Trazado 812" class="cls-6" d="M109.6,51.38a9.77,9.77,0,0,0,6.5,8.81,2.69,2.69,0,0,1,1.77,1,9.08,9.08,0,0,0,12.74,1.59,9.57,9.57,0,0,0,1.59-1.59,2.69,2.69,0,0,1,1.78-1,9.76,9.76,0,0,0,6.53-8.82h0a16.07,16.07,0,1,0-30.89-.07h0Z"/><path id="Trazado_813" data-name="Trazado 813" class="cls-7" d="M134,55.51a2.69,2.69,0,0,0-1.78,1,9.09,9.09,0,0,1-14.34,0,2.65,2.65,0,0,0-1.76-1,9,9,0,0,1-6.5-4.09,16.08,16.08,0,1,0,30.91,0,9,9,0,0,1-6.53,4.1Z"/><path id="Trazado_814" data-name="Trazado 814" class="cls-8" d="M142.92,51.38a9.75,9.75,0,0,0,6.5,8.81,2.67,2.67,0,0,1,1.76,1,9.1,9.1,0,0,0,12.75,1.59,10,10,0,0,0,1.59-1.59,2.69,2.69,0,0,1,1.78-1,9.75,9.75,0,0,0,6.52-8.82h0a16.07,16.07,0,1,0-30.89-.07h0Z"/><path id="Trazado_815" data-name="Trazado 815" class="cls-9" d="M167.3,55.51a2.69,2.69,0,0,0-1.78,1,9.09,9.09,0,0,1-14.34,0,2.67,2.67,0,0,0-1.76-1,9,9,0,0,1-6.5-4.09,16.08,16.08,0,1,0,30.9,8.91,15.89,15.89,0,0,0,0-8.91,9,9,0,0,1-6.52,4.1Z"/><path id="Trazado_816" data-name="Trazado 816" class="cls-4" d="M212.18,65a16.32,16.32,0,0,1-3.6,10.9A18.25,18.25,0,0,1,191,79l-1.13-8.44a12.62,12.62,0,0,1,1.9-2.46C198.53,61.29,212,64,212,64s.08.39.17,1.06Z"/><g id="Grupo_1137" data-name="Grupo 1137"><path id="Trazado_817" data-name="Trazado 817" class="cls-5" d="M191,79a22.33,22.33,0,0,0,16.91-4.51A16.62,16.62,0,0,0,212.18,65a24.43,24.43,0,0,1-4.26,19.18,22.65,22.65,0,0,1-17.22,4.5l-2.56-8.45Z"/></g><path id="Trazado_818" data-name="Trazado 818" class="cls-4" d="M71.22,65a16.32,16.32,0,0,0,3.6,10.9,18.26,18.26,0,0,0,17.57,3l1.14-8.44a12.62,12.62,0,0,0-1.9-2.46C84.87,61.29,71.36,64,71.36,64S71.31,64.34,71.22,65Z"/><g id="Grupo_1138" data-name="Grupo 1138"><path id="Trazado_819" data-name="Trazado 819" class="cls-5" d="M92.39,79a22.35,22.35,0,0,1-16.91-4.51A16.7,16.7,0,0,1,71.23,65a24.46,24.46,0,0,0,4.25,19.18,22.64,22.64,0,0,0,17.27,4.5l2.55-8.45Z"/></g><path id="Trazado_820" data-name="Trazado 820" class="cls-8" d="M93,80.24a9.77,9.77,0,0,0,6.5,8.81,2.68,2.68,0,0,1,1.77,1,9.08,9.08,0,0,0,14.33,0,2.72,2.72,0,0,1,1.78-1,9.74,9.74,0,0,0,6.53-8.81h0A16.07,16.07,0,1,0,93,80.17h0Z"/><path id="Trazado_821" data-name="Trazado 821" class="cls-10" d="M126.28,80.24a9.75,9.75,0,0,0,6.5,8.81,2.64,2.64,0,0,1,1.76,1,9.09,9.09,0,0,0,14.34,0,2.72,2.72,0,0,1,1.78-1,9.76,9.76,0,0,0,6.53-8.81h0a16.07,16.07,0,1,0-30.89-.07h0Z"/><path id="Trazado_822" data-name="Trazado 822" class="cls-11" d="M150.66,84.38a2.64,2.64,0,0,0-1.77,1A9.09,9.09,0,0,1,136.14,87a9.2,9.2,0,0,1-1.59-1.59,2.67,2.67,0,0,0-1.76-1,9,9,0,0,1-6.5-4.1,16.08,16.08,0,1,0,30.9,0A9,9,0,0,1,150.66,84.38Z"/><path id="Trazado_823" data-name="Trazado 823" class="cls-4" d="M84.1,39.63a17.84,17.84,0,0,0,4,11.75,18.76,18.76,0,0,0,20.2,1.71A17.09,17.09,0,0,0,104,42.71a25.29,25.29,0,0,0-19.71-4s-.06.33-.14.91Z"/><path id="Trazado_824" data-name="Trazado 824" class="cls-9" d="M117.35,84.38a2.64,2.64,0,0,0-1.78,1A9.08,9.08,0,0,1,102.83,87a9.26,9.26,0,0,1-1.6-1.59,2.65,2.65,0,0,0-1.76-1,9,9,0,0,1-6.5-4.1,16.09,16.09,0,1,0,30.91,0A9,9,0,0,1,117.35,84.38Z"/><path id="Trazado_825" data-name="Trazado 825" class="cls-6" d="M159.58,80.24a9.75,9.75,0,0,0,6.5,8.81,2.64,2.64,0,0,1,1.76,1,9.09,9.09,0,0,0,12.75,1.59,8.86,8.86,0,0,0,1.59-1.59,2.72,2.72,0,0,1,1.78-1,9.74,9.74,0,0,0,6.53-8.81h0a16.07,16.07,0,1,0-30.9-.07h0Z"/><path id="Trazado_826" data-name="Trazado 826" class="cls-7" d="M184,84.38a2.64,2.64,0,0,0-1.77,1,9.09,9.09,0,0,1-14.34,0,2.67,2.67,0,0,0-1.76-1,9,9,0,0,1-6.5-4.1,16.08,16.08,0,1,0,30.9,0A9,9,0,0,1,184,84.38Z"/><path id="Trazado_827" data-name="Trazado 827" class="cls-5" d="M88.23,48.71a16.23,16.23,0,0,1-4.13-9.08,23.93,23.93,0,0,0,4.13,18.81,25.28,25.28,0,0,0,19.71,4,35.13,35.13,0,0,0,.31-9.33A29.26,29.26,0,0,1,88.23,48.71Z"/></g></g><g id="Grupo_1142" data-name="Grupo 1142"><g id="Grupo_1141" data-name="Grupo 1141"><path id="Trazado_828" data-name="Trazado 828" class="cls-12" d="M112.77,80.13a4.41,4.41,0,1,0-4.41,4.41A4.4,4.4,0,0,0,112.77,80.13Z"/><path id="Trazado_829" data-name="Trazado 829" class="cls-12" d="M125.05,55.63a4.41,4.41,0,1,0-4.41-4.41A4.42,4.42,0,0,0,125.05,55.63Z"/><circle id="Elipse_76" data-name="Elipse 76" class="cls-12" cx="158.42" cy="51.21" r="4.41"/><path id="Trazado_830" data-name="Trazado 830" class="cls-12" d="M141.72,84.54a4.41,4.41,0,1,0-4.41-4.4A4.4,4.4,0,0,0,141.72,84.54Z"/><path id="Trazado_831" data-name="Trazado 831" class="cls-12" d="M175.09,84.54a4.41,4.41,0,1,0-4.4-4.4h0A4.4,4.4,0,0,0,175.09,84.54Z"/></g><path id="Trazado_832" data-name="Trazado 832" class="cls-8" d="M116.44,196H167v3.25a4.06,4.06,0,1,0,8.12.34,1.93,1.93,0,0,0,0-.34V196h50.59v3.25a4.07,4.07,0,0,0,8.13,0V196h5.53a4.06,4.06,0,0,0,0-8.12h-5.53V184.6a4.07,4.07,0,0,0-8.13-.34,1.93,1.93,0,0,0,0,.34v3.25H175.15V184.6a4.07,4.07,0,0,0-8.13-.34,1.93,1.93,0,0,0,0,.34v3.25H116.43V184.6a4.07,4.07,0,0,0-8.13,0v3.25H57.71V184.6a4.07,4.07,0,0,0-8.13,0v3.25H44.05a4.06,4.06,0,0,0,0,8.12h5.53v3.25a4.07,4.07,0,0,0,8.13,0V196H108.3v3.25a4.06,4.06,0,0,0,8.12,0V196Z"/></g></g></svg>