<svg id="Layer_1" data-name="Layer 1" xmlns="http://www.w3.org/2000/svg" viewBox="0 0 328.54 169.3"><defs><style>.cls-1{fill:#dd0063;}</style></defs><g id="Grupo_900" data-name="Grupo 900"><path id="Trazado_401" data-name="Trazado 401" class="cls-1" d="M292.33,338.45l-.4,1.43-.39.08-.16,1-.32,1.19-.52.07-.08.92a1.22,1.22,0,0,0-.63,0l-.2.44a56.14,56.14,0,0,1-4.46-17.06c-1.35,4.25-3.38,10-4.65,13.4-.28.83-4,2.19-4.37-1.39-.95-2.19-2.51-6.13-4.18-10.1-.64,6-1.39,10.49-1.39,10.49l-.52-.07-1.51,2.66-1,.32-.32.64s-.64-.52-1-.36-.55,1-.79,1a228.17,228.17,0,0,0,.75-26.92l-.07-.12.07,0a7.9,7.9,0,0,0-.15-1.19,6.39,6.39,0,0,1,3.22-.16c2.13-.43,4.49-.08,5,1.75,1.59,5.49,3,10.62,3.85,13.84,2.19-5.93,5-11.81,6.09-14a6.41,6.41,0,0,1,0-.88c1.59-1,5.56-1.55,6.48.28a18.08,18.08,0,0,1,.4,6.09A139.54,139.54,0,0,0,292.33,338.45Z" transform="translate(-264.84 -174.85)"/><path id="Trazado_402" data-name="Trazado 402" class="cls-1" d="M315,332.69c0,.27-.76,1-.76,1l-.2.48-1.51.71,1.12.12a8.19,8.19,0,0,0-1.75.94c-.68.52-.88,1.08-1.39,1.28A75.24,75.24,0,0,0,293.63,343c-1.23.59-3.5-4.62-1.51-5.65A4.43,4.43,0,0,1,293,337c0-6.8.2-18.77-.52-21.32a7.46,7.46,0,0,1,3.14-.47,148.12,148.12,0,0,1,15.91-.32,5.15,5.15,0,0,0,0,1,4.1,4.1,0,0,0-1.23.87l-.92.68.8,0-1.31.67-.05.48s-1.58.67-1.82.75-4.26.68-7.76,1.24c0,.31,0,.63,0,.94,0,1-.12,2-.2,2.95a85.31,85.31,0,0,1,10-.64,2.86,2.86,0,0,1-.32.84l-.16.95-1.23.67.52,0-1.31.84,0,.39L305,328l-.27.48s-1.43.67-2,.87c-.24,0-2.43.63-4.42,1.11-.2,2.11-.43,3.74-.59,4.75C303.1,333.44,310.38,331.81,315,332.69Zm-8.75-21.48a20.36,20.36,0,0,0-5.37,2.39c-2.43.95-2.62-1.31-2.27-3.06,1.36-3.55,4.3-5,5.09-4.78a3.75,3.75,0,0,1,2.93,4.42,3.45,3.45,0,0,1-.38,1Z" transform="translate(-264.84 -174.85)"/><path id="Trazado_403" data-name="Trazado 403" class="cls-1" d="M334.24,316.46c-.07,1.35-4.37,4.9-9.42,11.06a41,41,0,0,0,8.39,10.9,4.73,4.73,0,0,1-.12.91l.24.64-.64-.2.12.39-.56.24a4.66,4.66,0,0,1-4.73.44,31,31,0,0,1-6.84-7.87,72,72,0,0,0-5.41,9.26l-.12-.32-.64.67-.16-.28c-.23,0-.55-.31-.55-.31a.84.84,0,0,1-.88-.28,3.85,3.85,0,0,1-.27-1.87,39.48,39.48,0,0,1,5.4-11.09,92.82,92.82,0,0,1-6.24-12.65,8,8,0,0,1,4.81-2.55c2.63,0,3.62,3.82,5.89,9.11a78.54,78.54,0,0,1,8.47-9.3S334.4,314,334.24,316.46Z" transform="translate(-264.84 -174.85)"/><path id="Trazado_404" data-name="Trazado 404" class="cls-1" d="M340.6,321.12c-.32,8.23-1.15,17.89-1.15,17.89l-.28-.36-.2,1-.48.12-.51,1.47-1.16.67-.67.92-.32-.28-.32,1.07-.52.44c-.28-1.66-.16-24.06-1.07-28.79,0-.16.16-.52.55-.59C336.22,314.24,340.84,313.76,340.6,321.12Z" transform="translate(-264.84 -174.85)"/><path id="Trazado_405" data-name="Trazado 405" class="cls-1" d="M350.78,342.19c-5.37,0-11-4-10.7-12.68.52-15.23,17.26-17.06,17.14-12,0,1.75-1,4.49-2.23,5-6.32-3.22-11.57,2.62-11.72,7.55a7,7,0,0,0,7.23,6,9.89,9.89,0,0,0,9-7.08c0-1.47.88,0,.88,0a9.89,9.89,0,0,1-6.12,12.55A10,10,0,0,1,350.78,342.19Z" transform="translate(-264.84 -174.85)"/><path id="Trazado_406" data-name="Trazado 406" class="cls-1" d="M362.39,315.47c1.66-.76,3.86,1.11,4,1.9.08.28,0,.87-.39.95a9.69,9.69,0,0,0-1.63,5.37c0,4.49,2.3,6,2.74,6,.76.08,2.94-2,2.94-6.6,0-5.84-3.61-5.61-3.61-5.61l-.16,0,.32-.28-.28-.27a.83.83,0,0,1,.47-.56c2-.91,8,.8,8,8.06,0,5.89-3,10.86-7.63,10.78-5.22-.08-8.19-6.88-8.19-10.34A13.36,13.36,0,0,1,362.39,315.47Zm0,27.56a28.13,28.13,0,0,1,12.1-1.63l.35.2s.36-1.35.44-1.63-.55-1.15-.55-1.15l.32-.08-.52-.64h.2c-1.24-2.15-10.58-3-14.76-.55-1.16,2.58-.37,6.39,2.42,5.48Z" transform="translate(-264.84 -174.85)"/><path id="Trazado_407" data-name="Trazado 407" class="cls-1" d="M402.71,334.72l-.56,1.11.24.12a2.83,2.83,0,0,1-.71.47,66,66,0,0,0-12.81,7.64c-1.19.87-5.61-5.49-3.14-6.8a2.33,2.33,0,0,1,.55-.32c.56-7.16,1.59-20,.24-22.71,0,0,7.08-3.38,7.08,4.85a84.47,84.47,0,0,1-1.87,15.12,25.14,25.14,0,0,1,11-2.87l-.79.52c.07.16,1.15.28,1.18.47s-.44.92-.44.92Z" transform="translate(-264.84 -174.85)"/><path id="Trazado_408" data-name="Trazado 408" class="cls-1" d="M408.63,321.12c-.32,8.23-1.15,17.89-1.15,17.89l-.28-.36-.2,1-.48.12-.51,1.47-1.16.67-.67.92-.32-.28-.32,1.07-.51.44c-.28-1.66-.16-24.06-1.08-28.79,0-.16.16-.52.56-.59C404.25,314.24,408.87,313.76,408.63,321.12Z" transform="translate(-264.84 -174.85)"/><path id="Trazado_409" data-name="Trazado 409" class="cls-1" d="M429.7,341.4a3.16,3.16,0,0,1-6-1.07c-2.75-4.3-5.53-10.15-8-15.16-.47,6.84-1.18,13.29-1.18,13.29l-.24-.12-1,2.1-.6.32-.47,1.39-.48-.43-.56,1.47a2.16,2.16,0,0,0-.71.12,1.32,1.32,0,0,0-.47.47c-.28-1.71.23-25.65-.71-29.15a6,6,0,0,1,1.63-.35,4.35,4.35,0,0,1,6,1.45,3.47,3.47,0,0,1,.21.37c1.95,5.57,4.85,12.17,6.6,16.11A164.28,164.28,0,0,1,426,312.44l.27,1,.32-.48c.12.12.4,1.47.52,1.66s.71.08.71.08a26.73,26.73,0,0,1,1.63,3.86l.12.4A121.46,121.46,0,0,0,429.7,341.4Z" transform="translate(-264.84 -174.85)"/><path id="Trazado_410" data-name="Trazado 410" class="cls-1" d="M452.09,330c0,10.3-11.69,11.86-15.39,11.86-.36,0-.71,0-1.11-.08l-.24.52-.71,0-.44,1.07-.44-.11-.36.47c0-.28-.07-1.19-.11-2.46-2.67-1-5.61-3.47-5.61-9.39,0,0,.67-1.39.67,0,0,1.07,1.95,2.63,4.77,3.38-.11-4.61-.27-10.1-.55-13.88a25.35,25.35,0,0,0-3,.72c-1.31-.6-2.67-4.74-1.15-6.29S452.21,311.09,452.09,330Zm-15.27,5.69c0-2.38,0-5,0-5l-.36,5ZM438,321.44c-.07,4.69-.31,11-.47,14.23,5-.39,11-4,11.21-7,.17-2.54-4.6-6.24-10.73-7.21Z" transform="translate(-264.84 -174.85)"/><path id="Trazado_411" data-name="Trazado 411" class="cls-1" d="M453.88,315.47c1.66-.76,3.85,1.11,4,1.9.08.28,0,.87-.39.95a9.69,9.69,0,0,0-1.63,5.37c0,4.49,2.3,6,2.74,6,.76.08,2.94-2,2.94-6.6,0-5.84-3.61-5.61-3.61-5.61l-.16,0,.32-.28-.28-.27a.83.83,0,0,1,.47-.56c2-.91,8,.8,8,8.06,0,5.89-3,10.86-7.64,10.78-5.22-.08-8.19-6.88-8.19-10.34A13.36,13.36,0,0,1,453.88,315.47Zm0,27.56a28.11,28.11,0,0,1,12.09-1.63l.36.2s.36-1.35.44-1.63-.56-1.15-.56-1.15l.32-.08-.51-.64h.2c-1.24-2.15-10.58-3-14.76-.55-1.17,2.58-.37,6.39,2.42,5.48Z" transform="translate(-264.84 -174.85)"/><path id="Trazado_412" data-name="Trazado 412" class="cls-1" d="M487.6,342.19c-5.37,0-11-4-10.7-12.68.52-15.23,17.26-17.06,17.14-12,0,1.75-1,4.49-2.23,5-6.32-3.22-11.57,2.62-11.73,7.55a7,7,0,0,0,7.24,6,9.89,9.89,0,0,0,9-7.08c0-1.47.87,0,.87,0a9.87,9.87,0,0,1-6.11,12.55A10,10,0,0,1,487.6,342.19Z" transform="translate(-264.84 -174.85)"/><path id="Trazado_413" data-name="Trazado 413" class="cls-1" d="M499.21,315.47c1.66-.76,3.85,1.11,4,1.9.08.28,0,.87-.4.95a9.76,9.76,0,0,0-1.62,5.37c0,4.49,2.3,6,2.74,6,.76.08,2.94-2,2.94-6.6,0-5.84-3.62-5.61-3.62-5.61l-.16,0,.32-.28-.28-.27a.84.84,0,0,1,.48-.56c2-.91,8,.8,8,8.06,0,5.89-3,10.86-7.63,10.78-5.22-.08-8.19-6.88-8.19-10.34A13.36,13.36,0,0,1,499.21,315.47Zm0,27.56a28.11,28.11,0,0,1,12.09-1.63l.36.2s.36-1.35.44-1.63-.56-1.15-.56-1.15l.32-.08-.52-.64h.2c-1.23-2.15-10.57-3-14.75-.55-1.16,2.58-.37,6.39,2.41,5.48Z" transform="translate(-264.84 -174.85)"/><path id="Trazado_414" data-name="Trazado 414" class="cls-1" d="M532.21,341.4a3.17,3.17,0,0,1-6-1.07c-2.74-4.3-5.52-10.15-8-15.16C517.7,332,517,338.46,517,338.46l-.24-.12-1,2.11-.59.32-.48,1.39-.47-.44-.56,1.48a1.92,1.92,0,0,0-.71.11,1.35,1.35,0,0,0-.47.48c-.28-1.71.23-25.65-.71-29.15a6.42,6.42,0,0,1,1.63-.36,4.37,4.37,0,0,1,6,1.46c.07.12.14.24.2.37,1.95,5.57,4.85,12.17,6.6,16.11a164.28,164.28,0,0,1,2.35-19.77l.27,1,.32-.48c.12.12.4,1.47.52,1.66s.71.08.71.08a25.66,25.66,0,0,1,1.63,3.86l.12.39A122.34,122.34,0,0,0,532.21,341.4Z" transform="translate(-264.84 -174.85)"/><path id="Trazado_415" data-name="Trazado 415" class="cls-1" d="M555.67,315.51a6.72,6.72,0,0,1-4.89,5.25c-2,.07-3.9.2-5.57.28-.24,8-1.35,17.17-1.35,17.17l-.87,2-.32,0-.64,1.42s-.2-.31-.47,0l-.37.84h-.31l-.52.8-.36-1-.52,1.4c-.2-1.24-.16-13.92-.51-22.27l-6.29.35c-3.34.08-3.42-6.44-1.27-6.76a54.59,54.59,0,0,1,7.12-.35,1.21,1.21,0,0,1,.43-.32,5.14,5.14,0,0,1,4.26.44C547.16,314.87,551.42,315.19,555.67,315.51Z" transform="translate(-264.84 -174.85)"/><path id="Trazado_416" data-name="Trazado 416" class="cls-1" d="M557.5,321.12c-.32,8.23-1.16,17.89-1.16,17.89l-.27-.36-.2,1-.48.12-.52,1.47-1.15.67-.67.92-.32-.28-.32,1.07-.52.44c-.28-1.66-.16-24.06-1.07-28.79,0-.16.16-.52.55-.59C553.12,314.24,557.74,313.76,557.5,321.12Z" transform="translate(-264.84 -174.85)"/><path id="Trazado_417" data-name="Trazado 417" class="cls-1" d="M568.47,342.11c-5.37,0-11-4-10.69-12.68.51-15.23,17.25-17.06,17.13-12,0,1.74-.95,4.49-2.22,5-6.33-3.22-11.57,2.62-11.73,7.55a7,7,0,0,0,7.23,6.05,10.15,10.15,0,0,0,7.72-4.26c-2.9-.2-7.79-.71-8.07-.71a9.29,9.29,0,0,1-4.05-3.34,24.34,24.34,0,0,1,5.29-1,39.48,39.48,0,0,0-5.85.4c-.27-.08-.44-.16-.47-.32a73.36,73.36,0,0,1,13.64-1.11c1.63.2,2.31,3.66,2,5.29a9.71,9.71,0,0,1-10,11.09Z" transform="translate(-264.84 -174.85)"/><path id="Trazado_418" data-name="Trazado 418" class="cls-1" d="M580.52,315.47c1.66-.76,3.86,1.11,4,1.9.08.28,0,.87-.39.95a9.69,9.69,0,0,0-1.63,5.37c0,4.49,2.3,6,2.74,6,.76.08,3-2,3-6.6,0-5.84-3.62-5.61-3.62-5.61l-.16,0,.32-.28-.28-.27a.82.82,0,0,1,.48-.56c2-.91,8,.8,8,8.06,0,5.89-3,10.86-7.64,10.78-5.21-.08-8.19-6.88-8.19-10.34A13.36,13.36,0,0,1,580.52,315.47Zm0,27.56a28.13,28.13,0,0,1,12.1-1.63l.36.2s.36-1.35.43-1.63-.55-1.15-.55-1.15l.32-.08-.52-.64h.2c-1.24-2.15-10.58-3-14.75-.55-1.17,2.58-.37,6.39,2.41,5.48Z" transform="translate(-264.84 -174.85)"/><path id="Trazado_419" data-name="Trazado 419" class="cls-1" d="M264.89,218.84v-.66A1.23,1.23,0,0,0,264.89,218.84Z" transform="translate(-264.84 -174.85)"/><path id="Trazado_420" data-name="Trazado 420" class="cls-1" d="M350.42,224c-.17,1.22-.22,2.46-.47,3.68s-.71,2.61-1,3.91c-.23.94.07,1.15,1.17,1s2.07-.19,3.1-.31a10.11,10.11,0,0,0,1-.18c-2-2.87-1.49-6.25-3.36-9.37A7.25,7.25,0,0,0,350.42,224Z" transform="translate(-264.84 -174.85)"/><path id="Trazado_421" data-name="Trazado 421" class="cls-1" d="M354.55,176.74l-22.77,44.09-20-44.09H265.49L265,214.55c1.87,1.69,5.38,3.44,7.17,5.14s3.25,3.32,5.11,4.79c1.08.85,2.93,1,3.66,2.3,3.08,1.13,6.13,2.29,9.22,3.4.93.33,1.33,0,1.39-.79a13.81,13.81,0,0,1,.23-2.8,7,7,0,0,1,3.85-4.64,1.44,1.44,0,0,1,1.93.34,6.09,6.09,0,0,0,2.7,1.72c1,.21,2.05-.07,2.32,1.13,0,.16.53.26.82.36,1.62.57,2.13,1.38,1.68,2.8a1,1,0,0,0,.44,1.33,1,1,0,0,0,.37.1,6.41,6.41,0,0,0,2.21.33c1.53-.17,3-.54,4.54-.82a15.37,15.37,0,0,1,6.29-.44c2.47.55,4.91,1.21,7.35,1.83,1.07.27,2.14.59,3.23.78,1.38.23,2.8.36,4.2.49a2,2,0,0,0,1.13-.1,12.74,12.74,0,0,0,2.77-2.35c1.19-1.66,2-3.48,3.13-5.19,1.87-2.91,3.74-5.82,5.79-8.65a6.06,6.06,0,0,1,2.87-2.3,4.92,4.92,0,0,1,6.19,2.5c.61,1.59,1.16,3.2,1.89,4.75,1.19,2.55,2.42,5.09,3.79,7.59.54,1,.27,1.51-.65,2.09a1,1,0,0,0-.43,1c.05.21.71.44,1.06.41a32.36,32.36,0,0,0,10.49-2.35,2.92,2.92,0,0,0,1.92-3.32,16,16,0,0,1,.22-3.39c.11-.71.78-1.77,1.68-1.4s1,1.89,1.14,3a17.16,17.16,0,0,0,.75,3.32c.24.79,1,.86,1.68.42,1.15-.72,2.23-1.49,3.36-2.22.31-.2.7-.33,1-.5a7.74,7.74,0,0,0,1.94-1.05c3.55-3.5,7.07-7,10.5-10.59.86-.89,3.82-3.28,3.82-3.28V176.74Zm-57.13,5.2c2.69-1,4.41,3.32,5.05,5.56a9.94,9.94,0,0,0-3-2.44C298.38,184.55,294.21,183.12,297.42,181.94Zm-11.27,7c2.11,1.93-.91,5.46-2.59,7.05a9.61,9.61,0,0,0,.77-3.78C284.27,191,283.61,186.68,286.15,189Zm-4.17-1.1c2,.39,1.46,3.63,1,5.22a6.94,6.94,0,0,0-.92-2.58C281.61,189.82,279.61,187.41,282,187.88Zm11.15,3.83c.47-1,2.07-.86,2.72-.08C297.65,193.83,291.77,194.67,293.13,191.71Zm4.54-1.31c.37-.78,1.57-.65,2.06-.05,1.36,1.65-3.08,2.29-2.05.05Zm3.25,2.07c.29-.62,1.24-.52,1.64,0,1.08,1.32-2.46,1.83-1.64,0Zm5.07,8.27a5.39,5.39,0,0,1-1,2.71c-.14,0,.2-1,.33-2.8a15.28,15.28,0,0,0-.1-3.24,14.85,14.85,0,0,0-1.13-4.07,9.16,9.16,0,0,0-3-3.87,6.69,6.69,0,0,0-5.18-1.21A9.89,9.89,0,0,0,291,192c-1.47,1.76-2.82,3.8-4.45,5.76a20.72,20.72,0,0,1-2.69,2.77,10.11,10.11,0,0,1-3.4,1.91,7.73,7.73,0,0,1-3.85.2,7.34,7.34,0,0,1-3.3-1.69,6.34,6.34,0,0,1-1.89-3,5.73,5.73,0,0,1,.07-3.38,6.55,6.55,0,0,1,1.72-2.58l.54-.47a4.74,4.74,0,0,1,.61-.42,5,5,0,0,1,1.32-.53,6.14,6.14,0,0,1,2.56-.09,6.74,6.74,0,0,1,2.14.75,4.31,4.31,0,0,1,1.48,1.37,2.41,2.41,0,0,1,.36,1.72,2.57,2.57,0,0,1-.63,1.21,3.55,3.55,0,0,1-.71.62c-.41.27-.67.35-.7.31s.15-.24.48-.58a4.81,4.81,0,0,0,.52-.67,2,2,0,0,0,.36-1,1.68,1.68,0,0,0-.37-1.16,3.7,3.7,0,0,0-1.25-1,5.53,5.53,0,0,0-3.9-.33,3.77,3.77,0,0,0-1,.45l-.44.33-.44.42a5.23,5.23,0,0,0-1.28,2.05,4.23,4.23,0,0,0,0,2.49,5,5,0,0,0,1.49,2.24,5.94,5.94,0,0,0,2.58,1.26,6.19,6.19,0,0,0,3-.2,12.2,12.2,0,0,0,5.26-4.16c1.55-1.88,2.91-3.9,4.47-5.75a17.77,17.77,0,0,1,2.58-2.55,8.1,8.1,0,0,1,3.29-1.61,7,7,0,0,1,3.51.16c.27.08.52.19.78.28a5.4,5.4,0,0,1,.74.33c.24.13.48.24.71.38l.65.46.32.24.28.26.55.53a12.73,12.73,0,0,1,.92,1.14,11,11,0,0,1,.71,1.19,9.18,9.18,0,0,1,.54,1.2,14.9,14.9,0,0,1,1,4.47,14,14,0,0,1-.22,3.42Zm-30.06-6.47c.47-1,2-.85,2.68-.07C280.38,196.36,274.58,197.19,275.93,194.27Zm31.55,1.55a15,15,0,0,0-1.76-5.69c-1-1.59-5.1-7,0-5.76,4.3,1,2.82,8,1.74,11.44ZM388,188c2.78.69,1.79,5.21,1.07,7.42a9.65,9.65,0,0,0-1.12-3.69c-.61-1-3.26-4.56.06-3.74Zm-13.28-.48c.67,2.78-3.8,4-6.09,4.39a9.56,9.56,0,0,0,2.75-2.7c.64-1,2.53-5,3.35-1.7Zm-2.82-3.26c1.43,1.44-.83,3.84-2.08,4.91a7,7,0,0,0,.68-2.65C370.46,185.66,370.14,182.54,371.86,184.26Zm7.09,9.42c1-.59,2.2.45,2.29,1.46.26,2.83-5.09.23-2.29-1.46Zm7.67,12a14.42,14.42,0,0,1-2.08,2.72c-1.33,1.33-2.31,1.76-2.36,1.67s.74-.72,1.85-2.13a15.62,15.62,0,0,0,1.73-2.74,14.68,14.68,0,0,0,1.34-4,9,9,0,0,0-.35-4.9,6.66,6.66,0,0,0-3.61-3.91,9.92,9.92,0,0,0-6.14.31c-2.19.64-4.45,1.56-6.9,2.28a21.16,21.16,0,0,1-3.78.79,10,10,0,0,1-3.89-.33,7.82,7.82,0,0,1-3.3-2,7.46,7.46,0,0,1-1.78-3.26,6.4,6.4,0,0,1,.1-3.55,5.68,5.68,0,0,1,2-2.76,6.42,6.42,0,0,1,2.86-1.17l.72-.09a4.57,4.57,0,0,1,.74,0,4.8,4.8,0,0,1,1.39.3,6.22,6.22,0,0,1,2.17,1.36,6.5,6.5,0,0,1,1.34,1.82,4.12,4.12,0,0,1,.46,2,2.33,2.33,0,0,1-.67,1.63,2.51,2.51,0,0,1-1.18.65,3.73,3.73,0,0,1-.94.12c-.5,0-.75-.08-.75-.13s.25-.11.71-.22a4.67,4.67,0,0,0,.8-.26,2.11,2.11,0,0,0,.86-.62,1.74,1.74,0,0,0,.34-1.17,3.51,3.51,0,0,0-.5-1.5,5.59,5.59,0,0,0-3-2.46,3.87,3.87,0,0,0-1.07-.18,5.07,5.07,0,0,0-.55,0l-.6.1a5.21,5.21,0,0,0-2.21,1,4.25,4.25,0,0,0-1.38,2.07,4.92,4.92,0,0,0,0,2.69,5.74,5.74,0,0,0,1.43,2.48,6.06,6.06,0,0,0,2.59,1.51,12.17,12.17,0,0,0,6.68-.5c2.33-.68,4.6-1.6,6.93-2.25a17.21,17.21,0,0,1,3.56-.67,8.13,8.13,0,0,1,3.62.5,7,7,0,0,1,2.81,2.1c.19.22.33.45.49.67a4.17,4.17,0,0,1,.43.69c.13.24.27.48.39.72l.27.74.14.37.08.38c.06.23.11.5.17.74a14.13,14.13,0,0,1,.11,1.46,9.18,9.18,0,0,1-.08,1.39,8.21,8.21,0,0,1-.22,1.3,14.84,14.84,0,0,1-1.7,4.26Zm-3.18-10.5c.74-.45,1.66.34,1.74,1.1.2,2.14-3.84.17-1.74-1.11Zm2.91,4.41c.16,1.7-3.06.14-1.38-.88C385.56,198.32,386.3,199,386.35,199.56Zm-23.09-13.39c1-.59,2.17.44,2.26,1.44.26,2.79-5,.22-2.26-1.44Zm25.27,19a15,15,0,0,0,1.73-5.69c.09-1.87-.3-8.66,3.26-4.76,3,3.27-2.17,8.23-5,10.45Z" transform="translate(-264.84 -174.85)"/><path id="Trazado_422" data-name="Trazado 422" class="cls-1" d="M265.12,217.71l-.22.48v.65c.53,1.95,6.07,2.86,6.76,3.29l.2-.27C270,220.26,265.56,216.28,265.12,217.71Z" transform="translate(-264.84 -174.85)"/><path id="Trazado_423" data-name="Trazado 423" class="cls-1" d="M390.89,221.32l7.74-4.39v-3.21l-8,7.37Z" transform="translate(-264.84 -174.85)"/><path id="Trazado_424" data-name="Trazado 424" class="cls-1" d="M542.56,201.57c-.86.14-1.69,1.25-1.12,2.06C543.05,205.92,545,201.18,542.56,201.57Z" transform="translate(-264.84 -174.85)"/><path id="Trazado_425" data-name="Trazado 425" class="cls-1" d="M536.67,187.55c-.86.14-1.68,1.25-1.12,2.06C537.17,191.91,539.08,187.16,536.67,187.55Z" transform="translate(-264.84 -174.85)"/><path id="Trazado_426" data-name="Trazado 426" class="cls-1" d="M536.72,194.36c1.62,2.3,3.53-2.45,1.12-2.05C537,192.45,536.16,193.56,536.72,194.36Z" transform="translate(-264.84 -174.85)"/><path id="Trazado_427" data-name="Trazado 427" class="cls-1" d="M538.92,199.21c1.61,2.3,3.53-2.45,1.11-2.06C539.15,197.29,538.34,198.4,538.92,199.21Z" transform="translate(-264.84 -174.85)"/><path id="Trazado_428" data-name="Trazado 428" class="cls-1" d="M558.21,264.5A75.51,75.51,0,0,1,547.3,263a26.07,26.07,0,0,1-8.82-4.27,20.6,20.6,0,0,1-5.9-7.14,23,23,0,0,1-2.24-10.72,29.41,29.41,0,0,1,2.37-12.55,22.63,22.63,0,0,1,6.08-8.09,25,25,0,0,1,8.8-4.67A46.42,46.42,0,0,1,558.52,214c22.36-1.27,33.79,5,33.79,5V184.31l-3.84-1.84a76.36,76.36,0,0,0-16.92-5.73,86.62,86.62,0,0,0-18.09-1.89,79.57,79.57,0,0,0-24,3.71,61.88,61.88,0,0,0-21.56,11.89,59.18,59.18,0,0,0-15.36,20.76,71.08,71.08,0,0,0-5.74,29.69,63.92,63.92,0,0,0,5.91,28.45A57.43,57.43,0,0,0,508.2,289a62.72,62.72,0,0,0,21.68,11.26,85.24,85.24,0,0,0,24.22,3.52,81.58,81.58,0,0,0,35.15-7.64l3.87-1.83V257.51S580.89,265.54,558.21,264.5Zm20.93-70.64a14.13,14.13,0,0,1,3.29,2.56,10.53,10.53,0,0,1,1.33,1.72,7.66,7.66,0,0,1,.89,2,6,6,0,0,1-.27,4.18,4.12,4.12,0,0,1-1.32,1.63,2.83,2.83,0,0,1-2,.52,3.12,3.12,0,0,1-1.73-.8,3.6,3.6,0,0,1-.95-1.36l-.14-.35-.09-.36-.07-.36,0-.34,0-.34,0-.31a3.3,3.3,0,0,1,.09-.63,3.42,3.42,0,0,1,.46-1c.16-.27.32-.5.47-.72.6-.79.87-1.23,1-1.2s0,.64-.37,1.55a6.5,6.5,0,0,0-.55,1.55,3.69,3.69,0,0,0,.4,2,2.13,2.13,0,0,0,1.68,1.22c.68.07,1.33-.48,1.7-1.36a3.66,3.66,0,0,0,.31-1.42,4.83,4.83,0,0,0-.22-1.56,7.81,7.81,0,0,0-1.84-3,12.88,12.88,0,0,0-2.87-2.27,21.85,21.85,0,0,0-3.15-1.54,19.11,19.11,0,0,0-5.77-1.35,10.42,10.42,0,0,0-3.92.45c-.22.08-.44.12-.6.2l-.43.18c-.24.09-.4.12-.44.07s0-.17.24-.37l.37-.34a4.45,4.45,0,0,1,.58-.38,8.9,8.9,0,0,1,4.22-1.09,17.79,17.79,0,0,1,6.34,1.07A21.06,21.06,0,0,1,579.14,193.86Zm-9.3-6.82c3.16,2.17-1.76,2.56-3.08,2.81a10.94,10.94,0,0,0-3.92,1.8c1.32-2.23,4.38-6.42,7-4.61Zm-6.36-3.34c3.81-.41.33,3.08-.52,4.15a10.69,10.69,0,0,0-1.8,3.92C560.7,189.21,560.3,184,563.48,183.7ZM551.15,196a10.68,10.68,0,0,1-1.82,5.05,33.28,33.28,0,0,1-2.74-5.47,65.9,65.9,0,0,1-3.12-8.85l-.27-1.12A9.66,9.66,0,0,1,551.15,196ZM540,185.53c.17.95.41,1.91.63,2.85a64.54,64.54,0,0,0,3.12,8.85,32.06,32.06,0,0,0,3.25,6.26,14.49,14.49,0,0,0,1.42-1.29,16,16,0,0,1-2.94,2.44,14.79,14.79,0,0,1-4.37,1.85,33.26,33.26,0,0,1-4.87-8.35,65.9,65.9,0,0,1-3.12-8.85c-.11-.44-.22-.89-.32-1.34A18.46,18.46,0,0,1,540,185.53ZM529.07,199a17.07,17.07,0,0,1-.25-5.79,6.61,6.61,0,0,1,2.59-4.27,8.44,8.44,0,0,0-1.29,1.38l.15.61a66.53,66.53,0,0,0,3.12,8.86,34.79,34.79,0,0,0,4,7.18,7.42,7.42,0,0,1-3-.63,9,9,0,0,1-4.21-4.27c-.95.61-1.79,1.08-2.13,1.3-.56.34-1.09.71-1.61,1.06-.44-1.13-1-2.81-1.37-3.89l-2.29.89c2.06-.87,4.18-1.65,6.3-2.43Zm-7.59,3,.57-.26c.5,1.36,1.14,3.36,1.67,4.7-1.32,1-2.63,2.05-4.07,3l-.48.29-.15-.35c-.65-1.66-1.57-3.53-2.19-5.22,1.58-.89,3.34-1.6,4.63-2.18Zm-8.71,5.94a5.07,5.07,0,0,1,1.32-1.85c.59,1.56,1.44,3.3,2,4.83-2.4.54-4.57.07-3.39-3ZM512,222.52c3.29-.67,4.53,4.63,4.89,7.34a11.35,11.35,0,0,0-3.05-3.35c-1.2-.79-5.79-3.18-1.86-4Zm-7.35.11c2.94-1.61,5.69,3.09,6.84,5.56a11.5,11.5,0,0,0-3.9-2.3c-1.4-.39-6.49-1.32-3-3.25Zm-7.48,3c2-2.7,6.47.41,8.54,2.18a11.47,11.47,0,0,0-4.51-.45c-1.43.21-6.45,1.5-4.06-1.73ZM492.85,233c.07-3.36,5.52-3.4,8.23-3.15a11.49,11.49,0,0,0-3.94,2.23c-1.06,1-4.41,4.94-4.32.92Zm4.94,7.35a9.06,9.06,0,0,1,.08-4.36,9.35,9.35,0,0,1,2-3.7,11.27,11.27,0,0,1,6.85-3.51,13.8,13.8,0,0,1,1.82-.13,6.68,6.68,0,0,1,.89,0l.88.08a14,14,0,0,1,3.24.87,17.7,17.7,0,0,1,5.05,3.08,20.8,20.8,0,0,1,3.26,3.56c.37.54.72,1.1,1,1.68.14.27.29.52.41.77s.22.49.32.71a6.43,6.43,0,0,1,.76,3,20.62,20.62,0,0,1-1.43-2.66l-.37-.65c-.14-.22-.31-.45-.47-.69-.3-.5-.71-1-1.11-1.52a21.24,21.24,0,0,0-3.3-3.13,17,17,0,0,0-4.74-2.65,13.76,13.76,0,0,0-2.9-.69l-.76,0a5,5,0,0,0-.77,0,10.69,10.69,0,0,0-1.59.15,9.52,9.52,0,0,0-5.71,3,7.21,7.21,0,0,0-1.64,6.4,8.07,8.07,0,0,0,1.55,3.13,11.16,11.16,0,0,0,2.61,2.33,9.81,9.81,0,0,0,6.3,1.57,6.16,6.16,0,0,0,4.89-2.67l.19-.27.14-.31a4.47,4.47,0,0,0,.25-.6,8.23,8.23,0,0,0,.31-1.28,8.46,8.46,0,0,0-.07-2.51,9.13,9.13,0,0,0-1.63-4,3.42,3.42,0,0,0-2.62-1.53,4.39,4.39,0,0,0-2,.52c-.45.22-.7.35-.74.29s.12-.27.53-.61a4.05,4.05,0,0,1,2.19-.95,3.42,3.42,0,0,1,1.78.31,5.05,5.05,0,0,1,1.69,1.28,9.83,9.83,0,0,1,2.13,4.47,9.62,9.62,0,0,1,.21,2.93,10.4,10.4,0,0,1-.32,1.57,6.58,6.58,0,0,1-.29.78l-.17.4-.22.37a6.65,6.65,0,0,1-.49.73l-.59.67-.69.58a9,9,0,0,1-.76.5,9.3,9.3,0,0,1-3.52,1.11,11.62,11.62,0,0,1-3.81-.21,12.7,12.7,0,0,1-1.9-.6,11.67,11.67,0,0,1-1.78-.95,12.73,12.73,0,0,1-3.09-2.72,9.87,9.87,0,0,1-1.91-3.88Zm22.93,1.76c-1.09.55-2.31-.65-2.33-1.74-.08-3,5.41.17,2.3,1.75ZM507,245c-.56.28-1.19-.34-1.19-.89-.06-1.54,2.75.09,1.16.89Zm-3.19-7c.38,1.25,2.24,5.66-1,3.91-2.73-1.46-.49-6,.85-8.09a10.51,10.51,0,0,0,.16,4.18Zm8.87,2.19c-1.62.82-3.42-1-3.45-2.58-.1-4.49,8,.24,3.42,2.58Zm.66,3.79c-.95.48-2-.56-2-1.5-.07-2.63,4.68.13,2,1.5Zm-2.7,2c-.68.34-1.44-.41-1.45-1.09-.06-1.89,3.34.1,1.42,1.08Zm-10.33,3.72c-.79-3.62,2.94-.64,4.05.07a10.33,10.33,0,0,0,4,1.33c-2.44.7-7.39,1.63-8-1.4Zm9.8,23.25a10.56,10.56,0,0,1,7.59-12.13,11.56,11.56,0,0,1,5.87-.08,36.43,36.43,0,0,1-4.55,4.91,71.13,71.13,0,0,1-7.91,6.58Zm6.39,9.77a20.21,20.21,0,0,1-5.25-6.44c.92-.54,1.8-1.15,2.67-1.73a71,71,0,0,0,7.87-6.61,36.54,36.54,0,0,0,5.17-5.73,13.76,13.76,0,0,0-1.87-1,17,17,0,0,1,3.63,2.08,16.1,16.1,0,0,1,3.57,3.75,37.16,37.16,0,0,1-6.67,8.21,73.92,73.92,0,0,1-7.87,6.6c-.45.26-.86.54-1.29.82Zm12.73-.41a18.8,18.8,0,0,1-5.83,2.48,7.28,7.28,0,0,1-5.36-1,9.26,9.26,0,0,0,1.9.78l.57-.38a72,72,0,0,0,7.87-6.6,38.45,38.45,0,0,0,5.82-6.85,8,8,0,0,1,.52,3.32,10,10,0,0,1-2.75,5.94c.57.43,1.08.84,1.48,1.16-1,.89-1.94,1.78-2.94,2.64-.45-.5-.88-1-1.31-1.49Zm6,6.62c-.82-.81-1.6-1.66-2.37-2.49,1.18-1,2.35-2.09,3.51-3.14,2.37,1.58,4.79,2.91,7.2,4.63l.47.37-.3.29c-1.45,1.31-3,3-4.51,4.26-1.54-1.32-2.94-2.83-4-3.93Zm9.44,6.64a5.66,5.66,0,0,1-2.41-.64c1.38-1.2,2.83-2.75,4.16-4,1.44,2.22,1.79,4.62-1.78,4.59Zm25.93-9.62a21,21,0,0,1-3.63,1.16,14.19,14.19,0,0,1-4.16.31,11,11,0,0,1-2.14-.39,7.46,7.46,0,0,1-2-.87,5.91,5.91,0,0,1-2.61-3.28,4.12,4.12,0,0,1-.12-2.09A2.88,2.88,0,0,1,557.1,279a3.11,3.11,0,0,1,1.82-.56,3.65,3.65,0,0,1,1.62.36l.35.17.3.21.29.21.25.24.24.23.2.26a3.15,3.15,0,0,1,.35.52,3.55,3.55,0,0,1,.34,1.06,7.54,7.54,0,0,1,.12.83c.09,1,.19,1.49.07,1.55s-.46-.44-.76-1.39a6.51,6.51,0,0,0-.63-1.52,3.88,3.88,0,0,0-1.61-1.19,2.16,2.16,0,0,0-2.06.22,1.86,1.86,0,0,0-.36,2.16,3.74,3.74,0,0,0,.74,1.26,4.67,4.67,0,0,0,1.2,1,7.87,7.87,0,0,0,3.35,1,13.16,13.16,0,0,0,3.65-.24,20.91,20.91,0,0,0,3.37-1,19.19,19.19,0,0,0,5.18-2.87,10.28,10.28,0,0,0,2.61-3c.11-.2.24-.38.31-.55l.2-.43c.12-.23.22-.35.28-.34s.08.16.07.43a3.41,3.41,0,0,1,0,.5,5.06,5.06,0,0,1-.17.67,9,9,0,0,1-2.41,3.64,17.87,17.87,0,0,1-5.43,3.44Zm7.84,0c-3.8.51-.42-3.08.41-4.16a10.8,10.8,0,0,0,1.7-4c.49,2.54,1,7.7-2.14,8.12Zm7-1.79c-2.55,2.85-2.31-2.08-2.39-3.43a11,11,0,0,0-1.29-4.12c2,1.57,5.79,5.15,3.65,7.54Z" transform="translate(-264.84 -174.85)"/><path id="Trazado_429" data-name="Trazado 429" class="cls-1" d="M523.06,271.74c.48.83,1.93,1.25,2.54.36C527.33,269.55,521.73,269.42,523.06,271.74Z" transform="translate(-264.84 -174.85)"/><path id="Trazado_430" data-name="Trazado 430" class="cls-1" d="M529.15,267.8c1.73-2.53-3.86-2.67-2.53-.35C527.09,268.28,528.54,268.69,529.15,267.8Z" transform="translate(-264.84 -174.85)"/><path id="Trazado_431" data-name="Trazado 431" class="cls-1" d="M518.94,275.85c.47.83,1.92,1.24,2.53.35C523.2,273.66,517.61,273.53,518.94,275.85Z" transform="translate(-264.84 -174.85)"/><path id="Trazado_432" data-name="Trazado 432" class="cls-1" d="M514.52,278.87c.47.83,1.93,1.25,2.54.36C518.79,276.69,513.19,276.55,514.52,278.87Z" transform="translate(-264.84 -174.85)"/><path id="Trazado_433" data-name="Trazado 433" class="cls-1" d="M452.15,259.6V176.68H409.77l.35,124.61h74.67l-.36-41.68ZM457,275.38h0A26.6,26.6,0,0,1,441,277c-1.52-.24-3-.57-4.54-.91l-.12.31.12-.31c.1-.27.2-.54.31-.82a16.5,16.5,0,0,0,4,1,43.62,43.62,0,0,0,6.56.41,18.5,18.5,0,0,0,9.38-2.09c.12.3.23.58.33.87Zm-18.9-1.11a.34.34,0,0,1,.31.39.35.35,0,0,1-.33.31.36.36,0,0,1-.31-.39A.35.35,0,0,1,438.14,274.27Zm1.62.43a.35.35,0,1,1-.33.31A.35.35,0,0,1,439.76,274.7Zm1.84.27a.35.35,0,1,1-.32.3.36.36,0,0,1,.32-.3Zm1.81.19a.35.35,0,0,1,0,.7.35.35,0,0,1,0-.7Zm1.95.15a.33.33,0,0,1,.3.38.34.34,0,0,1-.33.31.34.34,0,0,1-.29-.39.33.33,0,0,1,.32-.3Zm1.84,0a.36.36,0,0,1,.31.39.35.35,0,0,1-.33.31.36.36,0,0,1-.31-.39.36.36,0,0,1,.34-.31Zm1.9-.07a.35.35,0,0,1,.31.38.31.31,0,1,1-.3-.38Zm1.75-.18a.33.33,0,0,1,.3.38.34.34,0,0,1-.33.31.35.35,0,0,1-.29-.4.34.34,0,0,1,.32-.29Zm1.85-.32a.35.35,0,0,1,.31.38.35.35,0,0,1-.33.32.37.37,0,0,1-.3-.4.36.36,0,0,1,.32-.3Zm1.54-.41a.36.36,0,0,1,.31.39.35.35,0,0,1-.34.31.35.35,0,0,1,0-.69Zm1.49-.67a.35.35,0,0,1,.31.38.34.34,0,1,1-.67-.05.36.36,0,0,1,.36-.34Zm.76.33c-.16-.4-.33-.79-.51-1.18a16.49,16.49,0,0,1-9,2,43.9,43.9,0,0,1-5.25-.31,15.5,15.5,0,0,1-4.14-.91l-.26.56.26-.56.24-.47a30.81,30.81,0,0,0,15.29.29,15.93,15.93,0,0,0,2.65-1.06l.24.5c.18.4.35.79.51,1.19Zm-1.44-3c.13.23.26.47.38.71l.16.31-.16-.31a22.71,22.71,0,0,1-13.66,1.42c-1.22-.18-2.42-.42-3.62-.67a6,6,0,0,0-.3.56,6,6,0,0,1,.3-.56,7.33,7.33,0,0,1,.39-.67c.13-.22.31-.5.47-.74-.16.24-.33.49-.47.74,2.13.57,11,2.65,16.51-.78l-.19-.33Zm-3.73-4.36a11.67,11.67,0,0,1,3.38,3.75l-1-.41-.24,1-1.19-.48-.35,1.09-1.25-.72-.53,1.06-1-.76-.83,1-.93-1-.84,1-.85-.85-.91.77-.87-.82-.92.71-.71-1-1,.74-.75-.93-1,.77-.42-.66a11.61,11.61,0,0,1,7.59-5.24,6.14,6.14,0,0,1,4.6,1ZM416,245.47a26.26,26.26,0,0,1,4.51-10.39,6.48,6.48,0,0,0,1.51-4.9,11.38,11.38,0,0,1-1-4.78c.72-4.83,6-6.66,10.59-6.54l2.8-28.26-.3,0-.06-1.14-.82.06,0,.36c.05.34-.49.44-.54.1s-.12-.89-.17-1.34.51-.43.55-.09l.05.45.86-.07L434,187l-.89,0,0,.28c0,.33-.51.43-.54.09s-.07-.84-.09-1.25.54-.29.56,0l0,.31.9,0-.09-1.69-.94,0,0,.13c0,.34-.52.43-.55.09l-.08-.87c0-.34.51-.43.54-.09l0,.21,1,0-.1-1.89,6.72-.2-.43,2.19c.33,0,.64.1,1,.17l.09-.33c.1-.33.62-.14.52.19a7,7,0,0,0-.21.93c-.06.33-.61.29-.56,0l.05-.24c-.32-.06-.63-.11-.95-.15l-.33,1.68.78.15.07-.27c.11-.33.63-.14.52.19a5.54,5.54,0,0,0-.19.9c0,.34-.59.29-.55-.05l0-.25-.77-.16-.35,1.77.64.07.06-.32c.06-.33.62-.28.56,0s-.14.74-.22,1.11-.61.28-.55-.05l.05-.27-.64-.07-.32,1.6-.48-.05-2.8,28.3c4.5.71,9.35,3.43,9.21,8.3a11.36,11.36,0,0,1-1.81,4.52,6.44,6.44,0,0,0,.62,5.09,26,26,0,0,1,2.61,11,10.09,10.09,0,0,1-4.2,7.2,16.34,16.34,0,0,1-8.58,2.56,20.2,20.2,0,0,1-2.46,0h0l-.76-.06-.75-.07h0a19.73,19.73,0,0,1-2.41-.47,16.42,16.42,0,0,1-8-4,10.17,10.17,0,0,1-2.87-7.83Zm55.1,45.14-.2.07a32.45,32.45,0,0,1-5.66-.21l-.95-.13a69.27,69.27,0,0,1-9-2.07c1.91-.42,3.57-.71,5.16-.95a41.9,41.9,0,0,1,6.33-.42h.08a22.93,22.93,0,0,1,3.31.24c.82.15,2.23.56,2.37,1.69v.38l0,.11v0l0,.11v0l-.07.13,0,0-.11.15v0l-.14.13,0,0-.14.13,0,0-.21.15,0,0-.52.26Zm5.21-1.36-.16.24-.07.07-.12.14-.08.08-.11.12-.09.08-.12.1-.1.07-.11.09-.11.07-.12.08-.12.07-.12.06-.12.07-.12.06-.13.05-.12.05-.14.05-.11,0-.15.06-.1,0-.17.05-.06,0c-.33.08-.66.15-1,.2l-.33,0-.46,0-.58,0,.31-.11,0,0a4.37,4.37,0,0,0,.61-.31h0l.29-.2h0l.21-.17,0-.05.18-.19h0l.16-.22,0,0,.1-.2,0,0v0l.06-.17v-.05l0-.18v-.05l0-.2V289l0-.26c-.18-1.42-1.66-2-2.89-2.23a22.62,22.62,0,0,0-3.48-.24,40.75,40.75,0,0,0-6.44.42c-2.15.3-4.27.73-6.39,1.22l-1.14.27h0l-1.33.33h0l-3.89,1c-2.12.54-4.24,1.08-6.37,1.54a63,63,0,0,1-6.41,1.08,38.25,38.25,0,0,1-6.42.19,13.45,13.45,0,0,1-8.23-2.81,4.72,4.72,0,0,1-1.63-5.17,3.32,3.32,0,0,1,.91-1.19,5.1,5.1,0,0,0,.81,3.72,7.69,7.69,0,0,0,5.28,3,28.56,28.56,0,0,0,6.91.24,53.11,53.11,0,0,0,7-.94c4.7-.91,9.3-2.27,13.94-3.42a61.84,61.84,0,0,1,14.11-2.21,10.64,10.64,0,0,1,6.5,1.6,5.45,5.45,0,0,1,2.18,3.87Zm.5-.93a5.66,5.66,0,0,0-.75-1.88,7.32,7.32,0,0,0-5.1-3.12,24.63,24.63,0,0,0-6.86,0,64.19,64.19,0,0,0-7,1.17c-4.69,1-9.29,2.4-14,3.5a54,54,0,0,1-14.1,1.74,12.6,12.6,0,0,1-6.5-1.55,5,5,0,0,1-2.3-5l.14-.45a7.11,7.11,0,0,1,2-.78l-2.05,1.3,1.26.95-.39,2,1.82.06.79,1.85,1.9-.61,1.78,1.29,1.74-1.1,1.79,1.08,1.59-1.34,2.19,1,1.66-1.6,2.45,1.12,1.15-1.83,2.83,1,1.29-2,2.64,1.24L448,284l3.08,1.39,1.55-2.5,2.89,1.65,1.59-2.76,3,1.75,2.18-2.76,2.43,1.74,2.29-2.23,2.07,2.23,2.94-1.75,1,2.66,3.45-.21a7.9,7.9,0,0,0-3.73-3.14,16,16,0,0,0-7-.85,51.45,51.45,0,0,0-7.3,1c-7.83,1.6-15.44,4.61-23.31,6.09l-1,.17c-1.23.21-2.49.39-3.74.51a8.75,8.75,0,0,1-7.46-1.86,3,3,0,0,1-.82-1.71,1.63,1.63,0,0,1,.8-1.58h0a19.37,19.37,0,0,1,11.48,2.35,41.32,41.32,0,0,1,1.77-7.46,35.22,35.22,0,0,0,18.2.45,19,19,0,0,0,2.82-1.11l-.1-.29.1.29c.39,1.13.74,2.3,1,3.45l.19,0a49.67,49.67,0,0,1,7.3-1,15.69,15.69,0,0,1,7,.85,7.15,7.15,0,0,1,4.47,5.12,8.7,8.7,0,0,1-.46,3.89Z" transform="translate(-264.84 -174.85)"/><path id="Trazado_434" data-name="Trazado 434" class="cls-1" d="M434.48,285.85c-.2,1.41-.26,2.29-.26,2.29s0-.49.14-1.31C434.39,286.54,434.42,286.21,434.48,285.85Z" transform="translate(-264.84 -174.85)"/><path id="Trazado_435" data-name="Trazado 435" class="cls-1" d="M476.17,284.09a.48.48,0,1,0,.35.38A.47.47,0,0,0,476.17,284.09Z" transform="translate(-264.84 -174.85)"/><path id="Trazado_436" data-name="Trazado 436" class="cls-1" d="M471.39,281.79a.46.46,0,0,0-.38.55.49.49,0,0,0,.35.38.47.47,0,0,0,.38-.55A.46.46,0,0,0,471.39,281.79Z" transform="translate(-264.84 -174.85)"/><path id="Trazado_437" data-name="Trazado 437" class="cls-1" d="M467,281.57a.46.46,0,0,0-.38.55.49.49,0,0,0,.35.38.48.48,0,0,0,.38-.56A.46.46,0,0,0,467,281.57Z" transform="translate(-264.84 -174.85)"/><path id="Trazado_438" data-name="Trazado 438" class="cls-1" d="M462.55,281.9a.48.48,0,1,0,.35.37A.49.49,0,0,0,462.55,281.9Z" transform="translate(-264.84 -174.85)"/><path id="Trazado_439" data-name="Trazado 439" class="cls-1" d="M457.43,282.77a.47.47,0,0,0-.38.55.46.46,0,0,0,.35.38.48.48,0,0,0,0-.93Z" transform="translate(-264.84 -174.85)"/><path id="Trazado_440" data-name="Trazado 440" class="cls-1" d="M453,283.83a.47.47,0,0,0,0,.92.47.47,0,0,0,0-.92Z" transform="translate(-264.84 -174.85)"/><path id="Trazado_441" data-name="Trazado 441" class="cls-1" d="M448.53,285a.48.48,0,0,0-.38.56.49.49,0,0,0,.35.37.48.48,0,0,0,.38-.56A.49.49,0,0,0,448.53,285Z" transform="translate(-264.84 -174.85)"/><path id="Trazado_442" data-name="Trazado 442" class="cls-1" d="M444.6,285.86a.48.48,0,1,0,.35.38A.47.47,0,0,0,444.6,285.86Z" transform="translate(-264.84 -174.85)"/><path id="Trazado_443" data-name="Trazado 443" class="cls-1" d="M440.51,286.92a.48.48,0,0,0,0,.93.47.47,0,0,0,0-.93Z" transform="translate(-264.84 -174.85)"/><path id="Trazado_444" data-name="Trazado 444" class="cls-1" d="M436.75,287.59a.46.46,0,0,0-.38.55.49.49,0,0,0,.35.38.49.49,0,0,0,.39-.56A.49.49,0,0,0,436.75,287.59Z" transform="translate(-264.84 -174.85)"/><path id="Trazado_445" data-name="Trazado 445" class="cls-1" d="M432.91,288.11a.48.48,0,0,0,0,.93.48.48,0,0,0,0-.93Z" transform="translate(-264.84 -174.85)"/><path id="Trazado_446" data-name="Trazado 446" class="cls-1" d="M429.09,288.31a.47.47,0,0,0-.38.55.46.46,0,0,0,.35.37.47.47,0,0,0,.37-.55A.46.46,0,0,0,429.09,288.31Z" transform="translate(-264.84 -174.85)"/><path id="Trazado_447" data-name="Trazado 447" class="cls-1" d="M425.52,288a.47.47,0,0,0,0,.93.48.48,0,0,0,.38-.55A.49.49,0,0,0,425.52,288Z" transform="translate(-264.84 -174.85)"/><path id="Trazado_448" data-name="Trazado 448" class="cls-1" d="M422.46,286.58a.47.47,0,0,0,0,.93.48.48,0,0,0,0-.93Z" transform="translate(-264.84 -174.85)"/><path id="Trazado_449" data-name="Trazado 449" class="cls-1" d="M420.7,284.24a.35.35,0,0,0-.33.37.32.32,0,1,0,.64,0A.35.35,0,0,0,420.7,284.24Z" transform="translate(-264.84 -174.85)"/><path id="Trazado_450" data-name="Trazado 450" class="cls-1" d="M439.77,270.51a.23.23,0,0,0-.24.23.23.23,0,0,0,.23.24h0a.24.24,0,0,0,0-.47Z" transform="translate(-264.84 -174.85)"/><path id="Trazado_451" data-name="Trazado 451" class="cls-1" d="M441.34,271.1a.23.23,0,0,0,.24-.23.24.24,0,0,0-.23-.25.23.23,0,0,0-.24.23A.25.25,0,0,0,441.34,271.1Z" transform="translate(-264.84 -174.85)"/><path id="Trazado_452" data-name="Trazado 452" class="cls-1" d="M443.08,271.29a.24.24,0,0,0,0-.47.24.24,0,1,0,0,.47Z" transform="translate(-264.84 -174.85)"/><path id="Trazado_453" data-name="Trazado 453" class="cls-1" d="M444.7,271.4a.23.23,0,0,0,.24-.23.23.23,0,0,0-.23-.24h0a.23.23,0,0,0-.24.23A.23.23,0,0,0,444.7,271.4Z" transform="translate(-264.84 -174.85)"/><path id="Trazado_454" data-name="Trazado 454" class="cls-1" d="M446.44,271.44a.24.24,0,1,0,0-.48h0a.24.24,0,0,0,0,.48Z" transform="translate(-264.84 -174.85)"/><path id="Trazado_455" data-name="Trazado 455" class="cls-1" d="M448.16,271.39a.23.23,0,0,0,.24-.23.24.24,0,0,0-.23-.25h0a.23.23,0,0,0-.24.23A.24.24,0,0,0,448.16,271.39Z" transform="translate(-264.84 -174.85)"/><path id="Trazado_456" data-name="Trazado 456" class="cls-1" d="M449.88,271.16a.23.23,0,0,0,.24-.23.25.25,0,0,0-.23-.25.23.23,0,0,0-.24.23A.24.24,0,0,0,449.88,271.16Z" transform="translate(-264.84 -174.85)"/><path id="Trazado_457" data-name="Trazado 457" class="cls-1" d="M451.53,270.8a.23.23,0,0,0,.24-.23.24.24,0,0,0-.23-.25h0a.24.24,0,0,0,0,.48Z" transform="translate(-264.84 -174.85)"/><path id="Trazado_458" data-name="Trazado 458" class="cls-1" d="M453.1,270.28a.23.23,0,0,0,.24-.23.24.24,0,0,0-.48,0A.24.24,0,0,0,453.1,270.28Z" transform="translate(-264.84 -174.85)"/><path id="Trazado_459" data-name="Trazado 459" class="cls-1" d="M438.1,188.39a23.27,23.27,0,0,0,.33-2.61,1.66,1.66,0,0,0-.23-1.21l-.1-.07-.16.05a.86.86,0,0,0-.23.59c-.16,1.15-.3,2.3-.42,3.46-.06.58-.12,1.17-.16,1.75l.62.08C437.89,189.77,438,189.06,438.1,188.39Z" transform="translate(-264.84 -174.85)"/><path id="Trazado_460" data-name="Trazado 460" class="cls-1" d="M435.86,190.25c.06-.59.11-1.17.15-1.76.09-1.15.15-2.31.19-3.47a.88.88,0,0,0-.13-.63l-.15-.08-.11.06a1.68,1.68,0,0,0-.45,1.15,25.06,25.06,0,0,0-.13,2.61c0,.68,0,1.39,0,2.08Z" transform="translate(-264.84 -174.85)"/><path id="Trazado_461" data-name="Trazado 461" class="cls-1" d="M429.23,229.89a1.46,1.46,0,0,0-.54,1.78,1.42,1.42,0,0,0-2-.15,1.48,1.48,0,0,0-.31.39,1.45,1.45,0,0,0,.36,1.83c-.92-.2-1.87.11-1.92,1.28a1.43,1.43,0,0,0,1.17,1.44c-.9.26-1.6,1-1.1,2a1.46,1.46,0,0,0,1.71.73,1.4,1.4,0,0,0-.36,2,1.33,1.33,0,0,0,.35.36,1.45,1.45,0,0,0,1.85-.16c-.29.89-.08,1.87,1.07,2.05a1.44,1.44,0,0,0,1.56-1c.16.93.81,1.7,1.9,1.31a1.44,1.44,0,0,0,.9-1.62,1.41,1.41,0,0,0,1.91.57,1.3,1.3,0,0,0,.39-.31,1.45,1.45,0,0,0,0-1.86c.86.39,1.86.28,2.15-.84a1.45,1.45,0,0,0-.84-1.66c1-.06,1.77-.63,1.51-1.76a1.44,1.44,0,0,0-1.53-1.06,1.42,1.42,0,0,0,.52-2.27,1.46,1.46,0,0,0-1.85-.23,1.41,1.41,0,0,0-.61-2.23,1.28,1.28,0,0,0-1.24.15,2,2,0,0,0-.5.5c0-.95-.43-1.82-1.59-1.68a1.31,1.31,0,0,0-1.1.92,1.74,1.74,0,0,0-.55-.53A1.31,1.31,0,0,0,429.23,229.89Zm7.78,7.39-.05.27a4.94,4.94,0,0,1-5.13,4,5.27,5.27,0,0,1-4.81-3.32,5.15,5.15,0,0,1,9.77-3.27,5.32,5.32,0,0,1,.22,2.31Z" transform="translate(-264.84 -174.85)"/><path id="Trazado_462" data-name="Trazado 462" class="cls-1" d="M442,247.71c0-.3.35-1.26-.32-.94a3.87,3.87,0,0,0-1.56,1.67A22.93,22.93,0,0,0,439,251v0a4.46,4.46,0,0,1-.41.56l.11-.21.13-.29.11-.3a7.77,7.77,0,0,0,.27-1.18c.06-.39.1-.77.13-1.13.06-.71.11-1.35.21-1.88h0a2.35,2.35,0,0,0,1.14-.71l.17-.45-.19-.24a4.81,4.81,0,0,1,1.31-.58,2.64,2.64,0,0,0,1.53-1l0-.07c0-.26-1,0-1.1,0a3.91,3.91,0,0,0-.67.27,14.44,14.44,0,0,0,1.3-1,1.7,1.7,0,0,0,.47-.68v-.15l-.65,0a2.09,2.09,0,0,0-.74.2,3.37,3.37,0,0,0-.79.49l.14-.4a3.06,3.06,0,0,0,0-1.67l-.21-.24-.15.06a2.46,2.46,0,0,0-.63.8,6.51,6.51,0,0,0-.55,1.43,3.25,3.25,0,0,0-.55-1.1,2.17,2.17,0,0,0-.55-.54l-.56-.34-.08.13a1.75,1.75,0,0,0,.08.82,12.48,12.48,0,0,0,.61,1.46l-.43-.47c-.1-.09-.8-.76-.95-.55l0,.09a2.72,2.72,0,0,0,.86,1.6,5.73,5.73,0,0,1,.82,1l-.13,0-.07.11a1.36,1.36,0,0,0,0,.89,4.63,4.63,0,0,0,.36.83v0h0c-.11.61-.19,1.21-.24,1.83a11.66,11.66,0,0,1-.41,2.26l-.11.28-.12.28-.27.5a5.2,5.2,0,0,1-.69.86l-.34.29a5,5,0,0,0,.26-.52l.15-.41a7.78,7.78,0,0,0,.81-4.62c0-.2-.08-.41-.14-.61s-.26-1.1-.68-1.07c-.27,0-.44.54-.47.76a5,5,0,0,0,.21,2.71c-.09-.19-.5-.47-.71-.3l0,.64a9.58,9.58,0,0,0,.45,1.27,5.47,5.47,0,0,1,.3,1.66h0a6.23,6.23,0,0,1-.24.58l-.33.24a5.57,5.57,0,0,1-.76.41,5.82,5.82,0,0,1-1.22.34l-.34,0-.13,0,.13,0h.35a4.65,4.65,0,0,0,1.27-.27,5.08,5.08,0,0,0,.81-.4,4.63,4.63,0,0,0,.82-.64,4.74,4.74,0,0,0,.73-.88l.12-.19a2.85,2.85,0,0,0,.58-.62c.13-.19.28-.41.45-.64l.34-.28a24,24,0,0,1,2.49-1.23,14.35,14.35,0,0,1,1.38-.64,3,3,0,0,0,.81-.51l.19-.3-.15-.3-.33-.13A3.13,3.13,0,0,0,442,247.71Z" transform="translate(-264.84 -174.85)"/><path id="Trazado_463" data-name="Trazado 463" class="cls-1" d="M439.33,227.72a5.55,5.55,0,0,0-3,2.43,3.68,3.68,0,0,1,1.54-.53,4.14,4.14,0,0,1,1.68.1,3,3,0,0,0,1.79-.2,2.44,2.44,0,0,0,1.47-1.49A3.87,3.87,0,0,0,439.33,227.72Z" transform="translate(-264.84 -174.85)"/><path id="Trazado_464" data-name="Trazado 464" class="cls-1" d="M435.36,229.2a2,2,0,0,0,1.41-.8,6.75,6.75,0,0,0,1.81-4.08,4.45,4.45,0,0,0-.13-1.5,2.24,2.24,0,0,0-.94-1.33l-.17-.05-.1.11a6.55,6.55,0,0,0-.31,3,9.1,9.1,0,0,1-.39,2.75A4,4,0,0,1,435.36,229.2Z" transform="translate(-264.84 -174.85)"/><path id="Trazado_465" data-name="Trazado 465" class="cls-1" d="M438.54,227.2l.8-.41a4.36,4.36,0,0,1,.92-.26,3.11,3.11,0,0,0,1.63-.59,1.35,1.35,0,0,0,.54-1.38A5,5,0,0,0,438.54,227.2Z" transform="translate(-264.84 -174.85)"/><path id="Trazado_466" data-name="Trazado 466" class="cls-1" d="M440.4,223.88a2,2,0,0,0,.06-1.54l0-.06-.07,0c-1,.75-.66,2-1.1,3A4.75,4.75,0,0,0,440.4,223.88Z" transform="translate(-264.84 -174.85)"/><path id="Trazado_467" data-name="Trazado 467" class="cls-1" d="M440.62,232.65a.56.56,0,0,0,.55-.21.59.59,0,0,0-.14-.62,4,4,0,0,0-3.87-1.11,6.39,6.39,0,0,1,1.66,1.1A3.31,3.31,0,0,0,440.62,232.65Z" transform="translate(-264.84 -174.85)"/><path id="Trazado_468" data-name="Trazado 468" class="cls-1" d="M426,247.81a.9.9,0,0,0,.81,1h0l7.89.7a.89.89,0,0,0,.15-1.78h0L427,247a.9.9,0,0,0-1,.81Z" transform="translate(-264.84 -174.85)"/><path id="Trazado_469" data-name="Trazado 469" class="cls-1" d="M436.58,244.27c-.08-.38-.51-.31-.81-.24a4.68,4.68,0,0,0-1.86,1,7.14,7.14,0,0,1-2.27,1.58c1.23.34,3.66.32,4.47-.91A2.29,2.29,0,0,0,436.58,244.27Z" transform="translate(-264.84 -174.85)"/><path id="Trazado_470" data-name="Trazado 470" class="cls-1" d="M434.08,255.16a4,4,0,0,0-1.42,1.26,2,2,0,0,1,1-.42,29.91,29.91,0,0,1,3.28.18,3.82,3.82,0,0,0,1.82-.4,1.75,1.75,0,0,0,.95-1.52,22.62,22.62,0,0,1-3.75.47A10.36,10.36,0,0,0,434.08,255.16Z" transform="translate(-264.84 -174.85)"/><path id="Trazado_471" data-name="Trazado 471" class="cls-1" d="M439.62,251.65c-.39.47-.63,1-1,1.49a1.09,1.09,0,0,1-.58.43,2.68,2.68,0,0,0,1.62-.26,7.16,7.16,0,0,0,1.58-1,2.51,2.51,0,0,0,.9-1.78A3.3,3.3,0,0,0,439.62,251.65Z" transform="translate(-264.84 -174.85)"/><path id="Trazado_472" data-name="Trazado 472" class="cls-1" d="M443.92,249.66l-.1,0c-.2.08-.22.35-.16.52l.47.22.24-.48A.42.42,0,0,0,443.92,249.66Z" transform="translate(-264.84 -174.85)"/><path id="Trazado_473" data-name="Trazado 473" class="cls-1" d="M443.15,251.39h-.08l-.13.42.38.17.18-.37Z" transform="translate(-264.84 -174.85)"/><path id="Trazado_474" data-name="Trazado 474" class="cls-1" d="M442.36,252.57l-.07,0-.1.34.3.13.16-.3Z" transform="translate(-264.84 -174.85)"/><path id="Trazado_475" data-name="Trazado 475" class="cls-1" d="M441,253.6l-.07,0-.1.34.3.13.15-.3Z" transform="translate(-264.84 -174.85)"/><path id="Trazado_476" data-name="Trazado 476" class="cls-1" d="M443.14,245.2a3.77,3.77,0,0,0-.5,1.25l.07-.07a3.78,3.78,0,0,1,.81-.62,3,3,0,0,0,.79-.64,1.12,1.12,0,0,0,.24-1,1.36,1.36,0,0,0-.84.33A2.74,2.74,0,0,0,443.14,245.2Z" transform="translate(-264.84 -174.85)"/><path id="Trazado_477" data-name="Trazado 477" class="cls-1" d="M440.3,237.25a5,5,0,0,0-.68,3.45l.13-.21c.58-1.16,3-2.78,1.73-4.3A3.17,3.17,0,0,0,440.3,237.25Z" transform="translate(-264.84 -174.85)"/><path id="Trazado_478" data-name="Trazado 478" class="cls-1" d="M441,239.88c.51-.21,1.26.42,1.56.76a2.86,2.86,0,0,0,.79.76l.11,0,.08-.09a.86.86,0,0,0-.11-1,1.94,1.94,0,0,0-.95-.65A2.17,2.17,0,0,0,441,239.88Z" transform="translate(-264.84 -174.85)"/><path id="Trazado_479" data-name="Trazado 479" class="cls-1" d="M435.22,253.46a1.84,1.84,0,0,0,1-.71,2.14,2.14,0,0,0,.3-1.16c0-.32-.05-.85-.45-.44s-.64.77-1,1.15a2.78,2.78,0,0,1-1.51,1l-.39.08A3.34,3.34,0,0,0,435.22,253.46Z" transform="translate(-264.84 -174.85)"/><path id="Trazado_480" data-name="Trazado 480" class="cls-1" d="M433.79,252.59a2.37,2.37,0,0,0,1-.85,2.18,2.18,0,0,0,.24-1.52,2.55,2.55,0,0,0-.73.43c-.57.54-.59,1.42-1,2.06Z" transform="translate(-264.84 -174.85)"/><path id="Trazado_481" data-name="Trazado 481" class="cls-1" d="M432.73,250.65l.21.34.41-.11v-.43C433.17,250.24,432.71,250.25,432.73,250.65Z" transform="translate(-264.84 -174.85)"/><path id="Trazado_482" data-name="Trazado 482" class="cls-1" d="M431.54,250.5l.14.22.26-.07v-.28C431.83,250.24,431.53,250.24,431.54,250.5Z" transform="translate(-264.84 -174.85)"/><path id="Trazado_483" data-name="Trazado 483" class="cls-1" d="M442.5,239c.43.15.63-.41.22-.54S442.08,238.85,442.5,239Z" transform="translate(-264.84 -174.85)"/><path id="Trazado_484" data-name="Trazado 484" class="cls-1" d="M442.37,230.67l0-.19c-.07-.5-1-.44-.93.12a.47.47,0,0,0,.42.38A.51.51,0,0,0,442.37,230.67Z" transform="translate(-264.84 -174.85)"/><path id="Trazado_485" data-name="Trazado 485" class="cls-1" d="M435.32,225.6a.49.49,0,0,0,.43.38.52.52,0,0,0,.47-.3l0-.2C436.19,225,435.22,225,435.32,225.6Z" transform="translate(-264.84 -174.85)"/><path id="Trazado_486" data-name="Trazado 486" class="cls-1" d="M442.25,226.7l.28.26.33-.19,0-.13C442.85,226.3,442.2,226.32,442.25,226.7Z" transform="translate(-264.84 -174.85)"/><path id="Trazado_487" data-name="Trazado 487" class="cls-1" d="M437.06,231.69l.28.27.33-.2,0-.12C437.66,231.3,437,231.31,437.06,231.69Z" transform="translate(-264.84 -174.85)"/><path id="Trazado_488" data-name="Trazado 488" class="cls-1" d="M438.84,222.27l.34-.2,0-.12c0-.34-.68-.33-.63.05Z" transform="translate(-264.84 -174.85)"/><path id="Trazado_489" data-name="Trazado 489" class="cls-1" d="M441.46,223.81l.33-.19,0-.13c0-.34-.68-.32-.63.06Z" transform="translate(-264.84 -174.85)"/><path id="Trazado_490" data-name="Trazado 490" class="cls-1" d="M441.51,235.52a.8.8,0,0,0-.23-.8c-.67-.77-1.86-1.07-2.28-2.05a3.58,3.58,0,0,0,.56,2A2,2,0,0,0,441.51,235.52Z" transform="translate(-264.84 -174.85)"/><path id="Trazado_491" data-name="Trazado 491" class="cls-1" d="M433.07,254.82c.13-.66-.33-1-.87-1.09l.09,0a1.12,1.12,0,0,0,.54-.49.87.87,0,0,0-.15-.91.91.91,0,0,0-1.27-.13l-.13.13,0-.09a1,1,0,0,0,0-.73.88.88,0,0,0-.8-.45c-.71,0-.93.61-.86,1.19l-.12-.17a1.06,1.06,0,0,0-.6-.41.87.87,0,0,0-.85.37.91.91,0,0,0,.19,1.26.6.6,0,0,0,.15.09h-.1a1.07,1.07,0,0,0-.69.22.85.85,0,0,0-.24.88.9.9,0,0,0,1.1.66l.17-.07-.07.08a1,1,0,0,0-.27.67.88.88,0,0,0,.53.75.9.9,0,0,0,1.2-.45l.06-.17v.1a1.06,1.06,0,0,0,.36.63.87.87,0,0,0,.92,0,.9.9,0,0,0,.39-1.21.54.54,0,0,0-.09-.15l.08.05a1,1,0,0,0,.71.11A.85.85,0,0,0,433.07,254.82Z" transform="translate(-264.84 -174.85)"/><path id="Trazado_492" data-name="Trazado 492" class="cls-1" d="M418.05,246a10.62,10.62,0,0,1,1.24.87,21.14,21.14,0,0,1,2.23,1.66l.3.33c.12.26.22.51.32.71a2.61,2.61,0,0,0,.48.71l.08.21a5.45,5.45,0,0,0,.56,1,5.66,5.66,0,0,0,.7.77,4.68,4.68,0,0,0,.73.53,4.33,4.33,0,0,0,1.2.49l.35.06h.12l-.11-.05-.33-.1a5.21,5.21,0,0,1-1.14-.55,5.89,5.89,0,0,1-.68-.53l-.29-.3c0-.12-.08-.34-.13-.62h0a5.84,5.84,0,0,1,.59-1.57,9,9,0,0,0,.66-1.17l.08-.63c-.18-.22-.64,0-.76.17a5.23,5.23,0,0,0,.69-2.64c0-.22-.09-.76-.35-.83s-.74.68-.86.93a5.89,5.89,0,0,0-.24.58,7.9,7.9,0,0,0,0,4.69l.08.43a5,5,0,0,0,.17.55l-.28-.35a4.63,4.63,0,0,1-.53-.95,3.54,3.54,0,0,1-.18-.55l-.08-.28,0-.3a11.05,11.05,0,0,1,0-2.3,15.52,15.52,0,0,0,.08-1.85l0,0v0a3.69,3.69,0,0,0,.5-.76,1.34,1.34,0,0,0,.13-.88l-.05-.11-.12-.06a5.75,5.75,0,0,1,1-.86,2.69,2.69,0,0,0,1.13-1.42V241c-.11-.24-.92.29-1,.36l-.51.4a11.53,11.53,0,0,0,.85-1.33,1.59,1.59,0,0,0,.24-.79l-.06-.14-.61.24a2.25,2.25,0,0,0-.64.43,3.35,3.35,0,0,0-.73,1,7,7,0,0,0-.29-1.49,2.38,2.38,0,0,0-.48-.9l-.13-.08-.24.19a3,3,0,0,0-.26,1.66l.06.42a3.13,3.13,0,0,0-.69-.62,2,2,0,0,0-.69-.33l-.64-.15,0,.15a1.71,1.71,0,0,0,.34.75,13.11,13.11,0,0,0,1.1,1.25,4.28,4.28,0,0,0-.62-.38c-.12,0-1-.46-1.07-.21v.08a2.67,2.67,0,0,0,1.32,1.25,4.87,4.87,0,0,1,1.19.8l-.24.21.09.48a2.24,2.24,0,0,0,1,.9c0,.54-.06,1.18-.13,1.89,0,.36-.06.74-.07,1.13a8.45,8.45,0,0,0,.06,1.23l.06.31.07.3.07.24a5.12,5.12,0,0,1-.31-.62v0a19.3,19.3,0,0,0-.61-2.71,3.85,3.85,0,0,0-1.24-1.92c-.6-.43-.44.57-.47.87a3.07,3.07,0,0,0-2.16-1.05l-.34.07-.21.27.13.33A3.53,3.53,0,0,0,418.05,246Z" transform="translate(-264.84 -174.85)"/><path id="Trazado_493" data-name="Trazado 493" class="cls-1" d="M423.71,228a3,3,0,0,0,1.73.52,4.21,4.21,0,0,1,1.66.19,3.62,3.62,0,0,1,1.43.8,5.56,5.56,0,0,0-2.5-2.92,3.89,3.89,0,0,0-3.51-.31A2.43,2.43,0,0,0,423.71,228Z" transform="translate(-264.84 -174.85)"/><path id="Trazado_494" data-name="Trazado 494" class="cls-1" d="M427.36,223.32a6.71,6.71,0,0,0,1.06,4.34,2.07,2.07,0,0,0,1.25,1,3.9,3.9,0,0,1-.84-2,9.27,9.27,0,0,1,.09-2.78,6.57,6.57,0,0,0,.24-3l-.08-.12h-.16a2.34,2.34,0,0,0-1.17,1.15A4.87,4.87,0,0,0,427.36,223.32Z" transform="translate(-264.84 -174.85)"/><path id="Trazado_495" data-name="Trazado 495" class="cls-1" d="M425.32,225.21a4,4,0,0,1,.86.41c.17.11.65.35.71.55a5,5,0,0,0-3.36-3.28,1.34,1.34,0,0,0,.28,1.45A3.34,3.34,0,0,0,425.32,225.21Z" transform="translate(-264.84 -174.85)"/><path id="Trazado_496" data-name="Trazado 496" class="cls-1" d="M426.53,224.16c-.26-1.07.28-2.22-.56-3.13l-.06,0-.05,0a1.94,1.94,0,0,0-.21,1.54A4.82,4.82,0,0,0,426.53,224.16Z" transform="translate(-264.84 -174.85)"/><path id="Trazado_497" data-name="Trazado 497" class="cls-1" d="M423.62,230.28c-.16.16-.32.38-.23.59a.57.57,0,0,0,.51.31,3.36,3.36,0,0,0,1.9-.51,6.55,6.55,0,0,1,1.84-.8A4.06,4.06,0,0,0,423.62,230.28Z" transform="translate(-264.84 -174.85)"/><path id="Trazado_498" data-name="Trazado 498" class="cls-1" d="M428.33,244.5a4.78,4.78,0,0,0-1.66-1.3c-.28-.1-.69-.23-.84.11a2.28,2.28,0,0,0,.21,1.45c.58,1.36,3,1.81,4.25,1.68C429.41,246,429,245.19,428.33,244.5Z" transform="translate(-264.84 -174.85)"/><path id="Trazado_499" data-name="Trazado 499" class="cls-1" d="M426.37,254.48a10.5,10.5,0,0,0-1.79-.77,22.38,22.38,0,0,1-3.6-1.11,1.72,1.72,0,0,0,.65,1.66,3.78,3.78,0,0,0,1.72.71,29.79,29.79,0,0,1,3.27.4,1.93,1.93,0,0,1,.94.6A3.94,3.94,0,0,0,426.37,254.48Z" transform="translate(-264.84 -174.85)"/><path id="Trazado_500" data-name="Trazado 500" class="cls-1" d="M422.77,252.22a1.06,1.06,0,0,1-.49-.53c-.3-.53-.44-1.11-.75-1.64a3.29,3.29,0,0,0-2.26-1.57,2.5,2.5,0,0,0,.58,1.91,7.28,7.28,0,0,0,1.37,1.29A2.65,2.65,0,0,0,422.77,252.22Z" transform="translate(-264.84 -174.85)"/><path id="Trazado_501" data-name="Trazado 501" class="cls-1" d="M417.81,247.92l-.07-.55-.1,0-.47.21.15.5Z" transform="translate(-264.84 -174.85)"/><path id="Trazado_502" data-name="Trazado 502" class="cls-1" d="M418.18,249.2l-.08,0-.38.17.11.39.4-.1Z" transform="translate(-264.84 -174.85)"/><path id="Trazado_503" data-name="Trazado 503" class="cls-1" d="M418.68,250.48l-.31.14.1.32.32-.09,0-.35Z" transform="translate(-264.84 -174.85)"/><path id="Trazado_504" data-name="Trazado 504" class="cls-1" d="M419.85,251.73l-.31.14.1.32.32-.08,0-.35Z" transform="translate(-264.84 -174.85)"/><path id="Trazado_505" data-name="Trazado 505" class="cls-1" d="M418.73,243.57a4.1,4.1,0,0,1,.69.75l.06.08a4,4,0,0,0-.28-1.32,2.72,2.72,0,0,0-.44-.8,1.3,1.3,0,0,0-.76-.47,1.09,1.09,0,0,0,.06,1A3.34,3.34,0,0,0,418.73,243.57Z" transform="translate(-264.84 -174.85)"/><path id="Trazado_506" data-name="Trazado 506" class="cls-1" d="M423.45,239.27a4.94,4.94,0,0,0-.06-3.51,3.08,3.08,0,0,0-1-1.26c-1.51,1.28.58,3.3.95,4.54Z" transform="translate(-264.84 -174.85)"/><path id="Trazado_507" data-name="Trazado 507" class="cls-1" d="M419.54,239.31h.12a3.08,3.08,0,0,0,.9-.62c.36-.28,1.21-.77,1.66-.48a2.16,2.16,0,0,0-1.43-.43,1.92,1.92,0,0,0-1,.48.84.84,0,0,0-.28,1Z" transform="translate(-264.84 -174.85)"/><path id="Trazado_508" data-name="Trazado 508" class="cls-1" d="M424.58,250.53a2.19,2.19,0,0,0,.09,1.19,1.79,1.79,0,0,0,.88.88,3.4,3.4,0,0,0,2,.24l-.38-.15a2.77,2.77,0,0,1-1.31-1.22c-.26-.43-.47-.89-.75-1.31S424.63,250.21,424.58,250.53Z" transform="translate(-264.84 -174.85)"/><path id="Trazado_509" data-name="Trazado 509" class="cls-1" d="M426.34,249.46a2.18,2.18,0,0,0,0,1.53,2.39,2.39,0,0,0,.82,1l.5.22c-.31-.7-.17-1.58-.63-2.21A2.4,2.4,0,0,0,426.34,249.46Z" transform="translate(-264.84 -174.85)"/><path id="Trazado_510" data-name="Trazado 510" class="cls-1" d="M427.91,250a.31.31,0,0,0-.06.43l.38.18.27-.3C428.59,249.89,428.13,249.8,427.91,250Z" transform="translate(-264.84 -174.85)"/><path id="Trazado_511" data-name="Trazado 511" class="cls-1" d="M429.31,250.13l0,.28.23.12.18-.2C429.75,250.08,429.45,250,429.31,250.13Z" transform="translate(-264.84 -174.85)"/><path id="Trazado_512" data-name="Trazado 512" class="cls-1" d="M420.92,237.08c.44-.06.29-.63-.12-.57S420.47,237.14,420.92,237.08Z" transform="translate(-264.84 -174.85)"/><path id="Trazado_513" data-name="Trazado 513" class="cls-1" d="M422.94,229.3a.46.46,0,0,0,.47-.29c.2-.54-.74-.77-.9-.29v.2A.51.51,0,0,0,422.94,229.3Z" transform="translate(-264.84 -174.85)"/><path id="Trazado_514" data-name="Trazado 514" class="cls-1" d="M429.85,225.46a.48.48,0,0,0,.47-.3c.19-.54-.74-.76-.9-.28v.19A.51.51,0,0,0,429.85,225.46Z" transform="translate(-264.84 -174.85)"/><path id="Trazado_515" data-name="Trazado 515" class="cls-1" d="M423,225.23l.32-.21c.11-.36-.52-.49-.62-.16V225Z" transform="translate(-264.84 -174.85)"/><path id="Trazado_516" data-name="Trazado 516" class="cls-1" d="M426.94,230.68v.13l.3.24.32-.21C427.67,230.49,427,230.36,426.94,230.68Z" transform="translate(-264.84 -174.85)"/><path id="Trazado_517" data-name="Trazado 517" class="cls-1" d="M427.46,221.26l.32-.21c.11-.37-.52-.49-.62-.17V221Z" transform="translate(-264.84 -174.85)"/><path id="Trazado_518" data-name="Trazado 518" class="cls-1" d="M424.61,222.32l.32-.21c.12-.37-.52-.5-.61-.17v.13Z" transform="translate(-264.84 -174.85)"/><path id="Trazado_519" data-name="Trazado 519" class="cls-1" d="M424.56,233.36a3.64,3.64,0,0,0,.91-1.89c-.58.89-1.81,1-2.61,1.61a.81.81,0,0,0-.37.76A2,2,0,0,0,424.56,233.36Z" transform="translate(-264.84 -174.85)"/><path id="Trazado_520" data-name="Trazado 520" class="cls-1" d="M339.37,246.72c-4.73.11-9.49.06-14.2-.25a83.71,83.71,0,0,1-17.23-2.72c-.72-.21-1.44-.42-2.15-.65l15.55,58.19h15.83l14.59-56.5c-1.22.34-2.46.65-3.71.91A47,47,0,0,1,339.37,246.72Z" transform="translate(-264.84 -174.85)"/><path id="Trazado_521" data-name="Trazado 521" class="cls-1" d="M397.72,219.12c-3.59,1.9-7.17,3.79-10.77,5.67a3.34,3.34,0,0,0-1.82,1.87c-.19.51-.95.89-1.51,1.25s-1.29.52-1.79.92a98.17,98.17,0,0,1-18.95,11.74,76.73,76.73,0,0,1-8.9,3.55l-.33,57.16h16.83a11,11,0,0,1-.13-1.17.43.43,0,0,0-.32-.43l-1-.41a2.65,2.65,0,0,1-.68-.37.93.93,0,0,1,.83,0c.27.08.52.19.79.28s.27,0,.25-.21c-.13-1.23-.25-2.46-.36-3.7l-.24-.24-1.33-.48-.22-.19.32-.19c.24.05.48.13.72.2.68.21.71.21.63-.51-.09-1.05-.2-2.09-.29-3.14a.59.59,0,0,0-.52-.59,12.45,12.45,0,0,1-1.68-.5c.74-.47,1.39.12,2.08,0-.05-.79-.11-1.62-.16-2.45,0-.47-.08-.95-.1-1.42,0-.22-.07-.3-.29-.34a6.56,6.56,0,0,1-1.52-.34l-.31-.15-.24-.24.43-.11a5.66,5.66,0,0,0,1.42.34c.3,0,.4,0,.37-.36-.06-.71-.08-1.42-.11-2.13,0-.2-.08-.24-.27-.24a11.27,11.27,0,0,1-2.32-.1,8.71,8.71,0,0,1-3.79-1.71c-.51-.4-.56-.4-1.1-.06l-.51.3-.28.05.08-.4c.21-.16.43-.31.65-.46l.06-.29c-.52-.74-1-1.49-1.53-2.24l-.41-.15a3.82,3.82,0,0,1-1.61-.15.81.81,0,0,1,.78-.3,2.66,2.66,0,0,0,.69,0l.21-.28c-.15-.9-.29-1.8-.45-2.71l-.32-.38-1.19-.67-.13-.29.33-.06,1.07.5.23-.14a1.31,1.31,0,0,0-.51-1.44l-.2-.31.43,0,.41.11-.06-.54c-.22-.29-.45-.59-.68-.87a.44.44,0,0,1,0-.55c.31.33.6.63.88.95l.35,0c.2-.2.55-.34.6-.55s-.32-.42-.48-.64l-.38-.49c-.18-.27-.11-.45.2-.56h.06c.4,0,.53-.21.55-.6s.15-.43.5-.37.43.23.62.1l.32-.53.12-.2.37.41c.2.3.38.29.66.09s.52-.26.74.22l.09.23c.08.31.21.51.59.46.22,0,.4.33.35.64a1.14,1.14,0,0,1-.29.58l-.51.52,0,.3.2.24c.42.47.42.47.9.09a.52.52,0,0,1,.46-.14,3.4,3.4,0,0,1-.49.74l-.08.45c.24.79.46,1.57.68,2.37.05.2.13.26.33.19s.69-.22,1-.33h.22v.27l-.29.24-.88.33a.33.33,0,0,0-.25.4s0,0,0,.06c.19.71.37,1.42.55,2.15.06.24.17.33.41.24a4.11,4.11,0,0,1,.57-.17l.3,0-.13.39c-.22.11-.44.19-.69.29a4.07,4.07,0,0,0,2,1.42c-.06-.55-.11-1.07-.17-1.58a10.58,10.58,0,0,1-.15-1.13.7.7,0,0,0-.53-.7,4.16,4.16,0,0,1-1.26-.64.71.71,0,0,1,.74,0l.62.24.2-.17c-.08-1.07-.15-2.15-.22-3.22l-.22-.29-1.34-.94a1.69,1.69,0,0,1-.55-.58c.88,0,1.39.73,2.17,1.08v-1.47A5.83,5.83,0,0,1,368,268a.85.85,0,0,0-.29-.93c-.54-.48-1.05-1-1.57-1.48l-.1-.3.37,0,1.31,1.14.41.34.65-1.38c.18-.39.35-.78.53-1.16l0-.5c-.36-.53-.69-1.08-1-1.61l0-.33.29.14a13.28,13.28,0,0,1,1.19,1.5l.39.06c.5-.34,1-.66,1.57-1l-.51-.34a2.15,2.15,0,0,1-.92-1.34c-.06-.2,0-.24.17-.28a2.28,2.28,0,0,1,.9,0c.26,0,.37,0,.31-.33s-.12-.8-.19-1.2c0-.23.07-.31.27-.33a1.15,1.15,0,0,1,.72.19l.59.35c.08-.32.17-.61.24-.9l.29-.23a.93.93,0,0,1,.71.34,3.38,3.38,0,0,1,.54,1l.3.08c.35-.3.71-.58,1.08-.87s.31-.23.38.15a4.89,4.89,0,0,1,0,1.43c0,.23,0,.35.27.28H377c.51,0,.68.15.57.67a1.59,1.59,0,0,1-.34.64c-.12.16-.24.31-.4.5l1.16.3.25-.17c.28-.46.55-.92.82-1.38l.18-.25.27-.19.07.44c-.17.29-.36.57-.54.85l-.33.53c-.07.15-.34.26-.15.48.32.4.49.45.85.31l.32-.13v.4c-.24.24-.12.46,0,.69.19.45.39.89.56,1.35.09.26.22.28.43.17s.71-.37,1.1-.53c.15-.06.4-.26.51,0s-.17.34-.36.43c-.43.2-.86.41-1.29.59-.16.07-.22.13-.17.33.28,1.09.53,2.18.78,3.28,0,.25.14.25.35.18.59-.26,1.2-.48,1.81-.68.12,0,.28-.18.35,0s-.05.32-.23.4c-.59.21-1.17.45-1.76.65a.34.34,0,0,0-.26.45c.1.71.19,1.45.26,2.17,0,.26.12.3.34.22l1.26-.38c.1,0,.24-.15.31.06l-.16.37-.95.3c-.71.21-.71.21-.76.92-.05.91-.08,1.83-.15,2.74,0,.29.08.31.31.24l.59-.19a.34.34,0,0,1,.45.16l-.29.28-1,.32-.24.28c-.15,1.07-.29,2.14-.49,3.19-.08.42-.08.84-.19,1.25,0,.2,0,.24.21.21a5.4,5.4,0,0,1,.58-.08l.24.18-.2.25-.1,0c-.81.21-.82.21-.93,1-.09.67-.15,1.36-.24,2,0,.19,0,.27.24.26a4.45,4.45,0,0,1,.73,0c.4.06.55-.13.67-.48a11.4,11.4,0,0,0,.48-3,16.92,16.92,0,0,1,.29-2.93,4.11,4.11,0,0,1,1.76-2.69l.11-.14c-.28-.12-.57-.24-.84-.37a1.34,1.34,0,0,1-.71-.9c-.1-.38,0-.6.44-.66s.4-.12.4-.39l0-.17c.14-.61.26-.67.85-.4.24.1.36.09.51-.14s.44-.38.72,0l.26.37c.13.31.3.31.59.19.62-.29.64-.27.93.36.11.24.24.48.54.51s.22.19.2.34a2.44,2.44,0,0,1-1.05,1.75c-.1.07-.41.06-.22.34.33.48.36.5.67.29a15.74,15.74,0,0,1,1.42-1l.31-.05-.1.46-.87.57c-.62.41-.63.41-.43,1.15.15.55.33,1.09.45,1.64a.4.4,0,0,0,.44.36h1.17a1.6,1.6,0,0,1,.68.12l.19.15-.15.22-.37,0a4.87,4.87,0,0,0-1.66,0c-.2,0-.27.12-.26.32v2.71c0,.24.05.31.29.3.57,0,1.13,0,1.7,0,.15,0,.3,0,.28.2s-.06.31-.3.31h-1.87a.29.29,0,0,0-.34.23c-.22.7-.45,1.39-.71,2.07-.09.24,0,.33.19.42.35.14.69.31,1,.47l.22.24-.34.16a2.69,2.69,0,0,1-1.09-.42c-.21-.12-.32-.12-.48.09-.55.72-1.12,1.44-1.71,2.13-.24.27-.16.4.09.56a3.45,3.45,0,0,1,1,.76l.11.17a1.59,1.59,0,0,1-1.15-.45.94.94,0,0,0-1.31-.16.23.23,0,0,0-.07.07,9.42,9.42,0,0,1-.88.49l-.16.23.33.68.18.57-.39-.13a5,5,0,0,1-.45-.74c-.09-.18-.18-.24-.38-.16-.9.31-1.82.6-2.73.9l-.23.25q-.11,1.35-.24,2.7c0,.24.06.26.24.19a7,7,0,0,1,1.57-.42l.23,0,.32.14c0,.2-.12.26-.27.3l-1,.24c-.33.08-.59.15-.88.2s-.26.13-.28.32c-.07.8-.14,1.59-.22,2.39,0,.19.05.23.22.25.54.05,1.08,0,1.66,0a.89.89,0,0,1-.77.41c-.29,0-.57,0-.86,0a.81.81,0,0,0-.47.16h20.81v-82.6A4,4,0,0,0,397.72,219.12Z" transform="translate(-264.84 -174.85)"/><path id="Trazado_522" data-name="Trazado 522" class="cls-1" d="M289.74,235.36c-3.23-2.24-6.29-4.66-9.45-7a15.7,15.7,0,0,0-1.49-.56c-.59-.32-1.45-.67-1.57-1.12a2.68,2.68,0,0,0-1.79-1.75c-3.08-1.33-5.34-.85-8.46-2.14a2.75,2.75,0,0,1-1.48-1.11l-.65-.11.65,79.7h39.63l.3-58.3A59.62,59.62,0,0,1,289.74,235.36Zm8.05,44.74.26-.11-.14.21-.08.14a42.12,42.12,0,0,0-2.05,3.8c-.4.81-.82,1.66-1.26,2.45a32.47,32.47,0,0,1-2.39,3.74h0l-.27.05h-.07l-.23.05-.48.13-.13.05-.34.13-.14.05L290,291l0,0-.45.23-.13.08-.32.2-.13.09-.39.27,0,0-.42.35-.12.1-.31.28-.07.06c.2-.5.42-1,.68-1.61s.59-1.24.86-1.76.4-.74.6-1.07a22.66,22.66,0,0,1,6.09-7A14,14,0,0,1,297.79,280.1Zm-3.4-12.78-.05.15-.07.2c-.15.49-.31,1-.47,1.6l-.05.16c-.47,1.71-.89,3.49-1.28,5.21-.31,1.32-.63,2.7-1,4-.8,3.1-1.84,6.37-3.16,10V287c0-.83,0-1.66,0-2.51,0-.26,0-.52,0-.79l0-1.73c0-.28,0-.56,0-.85,0-.56,0-1.12.05-1.69s0-.87,0-1.31,0-.78,0-1.19a28.76,28.76,0,0,1,6.24-10.76C294.66,266.52,294.54,266.88,294.39,267.32ZM284,272.54l0-.2,0-.24a108.08,108.08,0,0,1,6.74-26.9,243,243,0,0,0-3.21,31.62c-.1,2.55-.16,5.11-.2,7.64,0,.85,0,1.69,0,2.53,0,1.16,0,2.4,0,3.77l-.08.17-.12.29-.1.24-.11.23-.1.24-.09.22-.1.27-.07.18h0c-.07.17-.14.36-.21.55l-.19.47,0,.11-.15.4-.08.23-.11.34-.09.26-.08.25,0,0-.16-.17a8.43,8.43,0,0,0-.64-.69l-.21-.21-.28-.28-.09-.09-.15-1.06c-.3-2.43-.5-4.9-.58-7.41a90.87,90.87,0,0,1,.48-12.78Zm-3.42-13.05a44.82,44.82,0,0,0,.75,5.65c.34,1.8.76,3.58,1.17,5.31.16.69.32,1.39.47,2.08v.13l-.18,1.87,0,.34c-.06.63-.1,1.26-.14,1.89l0,.4c0,.64-.07,1.28-.09,1.91v.26c0,.61,0,1.22-.05,1.83v2.52c0,.62,0,1.25.05,1.87v.29c0,.62.06,1.24.1,1.86v.12c0,.64.09,1.27.14,1.9l0,.19a56.12,56.12,0,0,1-1.93-7.11l0-.21-.12-.6a60.72,60.72,0,0,1-.84-6A64,64,0,0,1,280.55,259.49Zm-3.08,20.33a32.11,32.11,0,0,1,2.38,3.3l.08.38c.05.22.09.43.14.65l.1.45.15.62.12.47.15.6.12.47.17.59,0,.13h0c-.24-.34-.49-.67-.74-1l-.19-.23-.71-.89-.06-.07c-.26-.31-.53-.61-.79-.91l-.21-.22c-.23-.26-.47-.52-.71-.76l-.08-.09-.09-.19c-1-2.24-2.09-4.55-3.29-6.67a24.83,24.83,0,0,1,3.43,3.37Zm-6.29,2.49c-.68-.89-1.35-1.75-2-2.55l-.12-.16L268,278.32l.1,0a6.71,6.71,0,0,1,1,.25,22.32,22.32,0,0,1,2.93,1.57,26.6,26.6,0,0,1,4.63,3.77,34.6,34.6,0,0,1,4.51,5.66c.34.53.69,1.1,1,1.69s.55,1,.82,1.49l0,0-.1-.08-.43-.3-.18-.12-.39-.25-.16-.1-.55-.3-.08,0-.48-.23-.18-.08-.4-.17-.18-.07-.57-.2-.58-.16-.19,0-.4-.08-.24,0-.35-.06-.26,0-.22,0-1-1.44-1-1.33c-.47-.67-.95-1.33-1.42-2l-.39-.54c-.63-.87-1.26-1.72-1.86-2.52Zm13.52,14.5-.24.48,0,0-.2.48-.05.11-.16.46h0l-.12.43,0,.09-.07.41v.05l0,.34v.46l-2,.06a9.41,9.41,0,0,1-1.35-.83,27.38,27.38,0,0,1-3.13-2.87c-.48-.5-1-1-1.5-1.5a12,12,0,0,0-4-2.76,9.74,9.74,0,0,1,7.15-.5,11.54,11.54,0,0,1,1.16.44,12.89,12.89,0,0,1,3.3,2.21,15.83,15.83,0,0,1,1.28,1.31l.38.4v0l-.29.53Zm13.09-3.1h-.05a7.5,7.5,0,0,0-4.51,1.9c-.61.5-1.2,1.06-1.64,1.49l-.71.71a30.13,30.13,0,0,1-2.42,2.24l-3.69.11a7.32,7.32,0,0,1,1.35-3.82c.13-.24.26-.44.38-.62l.26-.4a8.93,8.93,0,0,1,5-3.88c.22-.05.45-.09.68-.12h0c.23,0,.47,0,.71,0a6.83,6.83,0,0,1,3.92,1.31,9.29,9.29,0,0,1,1.39,1.19,5.38,5.38,0,0,0-.69-.07Zm-.4-2.15h0l-.38-.24-.11-.06-.29-.15-.12-.06-.31-.15-.08,0-.39-.15-.12,0-.29-.1-.13,0-.3-.07-.11,0-.39-.08-.11,0-.31,0h-.06a12.71,12.71,0,0,1,1.92-1,7.63,7.63,0,0,1,6.58.05,16.7,16.7,0,0,0-5,2.25Z" transform="translate(-264.84 -174.85)"/></g></svg>