<svg id="Layer_1" data-name="Layer 1" xmlns="http://www.w3.org/2000/svg" viewBox="0 0 283.46 283.46"><defs><style>.cls-1{fill:#34646c;}.cls-2{fill:#f77e0b;}.cls-3{fill:#ec411b;}.cls-4{fill:#fff;}.cls-5{fill:#fff0d6;}.cls-6{fill:#ffcc9c;}.cls-7{fill:#eebf93;}.cls-8{fill:#203040;}</style></defs><g id="Grupo_1065" data-name="Grupo 1065"><g id="Grupo_930" data-name="Grupo 930"><path id="Trazado_597" data-name="Trazado 597" class="cls-1" d="M9.7,251.78H41.82a3.69,3.69,0,0,0,3.7-3.7h0v-11l2.74-3.94v-79l-2.74-3.12V139.32a3.7,3.7,0,0,0-3.7-3.7H9.7a3.7,3.7,0,0,0-3.7,3.7H6V248.07a3.69,3.69,0,0,0,3.7,3.7h0Z"/><path id="Trazado_598" data-name="Trazado 598" class="cls-2" d="M267.14,43.67,218.48,23.4a17.86,17.86,0,0,0-13.66,0L156.16,43.67a16.46,16.46,0,0,0-10.31,15.09V146l0,88.59h0A16.83,16.83,0,0,0,163,250.41h97.32A16.81,16.81,0,0,0,277.47,234V58.76a16.45,16.45,0,0,0-10.31-15.09ZM210.82,72.09a11.52,11.52,0,1,1,11.52-11.51h0A11.52,11.52,0,0,1,210.83,72.1h0Z"/><path id="Trazado_599" data-name="Trazado 599" class="cls-3" d="M184.25,234.6V224.12a30,30,0,0,0,3.53-25.66,30,30,0,0,0,4.52-27,29.94,29.94,0,0,0-6-41.91c-.68-.51-1.37-1-2.08-1.43V58.76a16.44,16.44,0,0,1,10.3-15.1l36.3-15.12-12.37-5.15a17.75,17.75,0,0,0-13.65,0L156.16,43.66a16.44,16.44,0,0,0-10.31,15.09V146h0v88.59h0A16.83,16.83,0,0,0,163,250.4h38.38a16.82,16.82,0,0,1-17.12-15.81Z"/><path id="Trazado_600" data-name="Trazado 600" class="cls-4" d="M228.46,163.74l-25.93-8.43a5.44,5.44,0,0,1-3.77-5.19V138.74a8,8,0,0,1,8-8h14a8,8,0,0,1,8,8,5.76,5.76,0,0,0,11.52.24,1,1,0,0,0,0-.24,19.51,19.51,0,0,0-19.49-19.49h-1.23V106.58a5.76,5.76,0,1,0-11.52-.25v12.92h-1.24a19.51,19.51,0,0,0-19.49,19.49v11.38A16.94,16.94,0,0,0,199,166.27l25.94,8.43a5.46,5.46,0,0,1,3.77,5.2v7.94a9.84,9.84,0,0,1-9.81,9.82H208.56a9.82,9.82,0,0,1-9.81-9.82,5.77,5.77,0,0,0-11.53,0h0a21.36,21.36,0,0,0,20.72,21.33v12.68a5.77,5.77,0,0,0,11.53,0V209.17a21.37,21.37,0,0,0,20.73-21.33V179.9A16.94,16.94,0,0,0,228.46,163.74Z"/><path id="Trazado_601" data-name="Trazado 601" class="cls-5" d="M147,221.16h6.77a13.53,13.53,0,0,1,0,27.05H81.2a16.58,16.58,0,0,1-10.09-3.46c-7.65-5.87-15.74-7.11-25.58-7.69V151C68.66,124.61,98,122.13,95.93,82.63a12,12,0,0,1,23.35-4.16C125.49,98.82,127,119,118.84,140h49.47a13.53,13.53,0,0,1,0,27.06h-4.58a13.53,13.53,0,1,1,0,27h-4.49a13.53,13.53,0,0,1,0,27.06Z"/><path id="Trazado_602" data-name="Trazado 602" class="cls-6" d="M147,221.16h6.77a13.53,13.53,0,0,1,0,27.05H81.2a16.58,16.58,0,0,1-10.09-3.46c-7.65-5.87-15.74-7.11-25.58-7.69V151C68.66,124.61,98,122.13,95.93,82.63a12,12,0,0,1,23.35-4.16C125.49,98.82,127,119,118.84,140h49.47a13.53,13.53,0,0,1,0,27.06h-4.58a13.53,13.53,0,1,1,0,27h-4.49a13.53,13.53,0,0,1,0,27.06Z"/><path id="Trazado_603" data-name="Trazado 603" class="cls-7" d="M124.27,116c-9,10.49-22.68,17.36-35.36,29.79a16.53,16.53,0,0,0-5,11.8v64.91a16.59,16.59,0,0,0,12.61,16.18,33.91,33.91,0,0,1,16.88,9.54H81.2a16.67,16.67,0,0,1-10.09-3.46c-7.65-5.86-15.74-7.11-25.57-7.69V151C68.68,124.59,98,122.13,95.92,82.55a12,12,0,0,1,19-10.16,11.73,11.73,0,0,1,4.31,6.08,102.92,102.92,0,0,1,5,37.52Z"/><path id="Shape" class="cls-8" d="M19.48,235.88v-6.29a6.29,6.29,0,1,1,12.58,0v6.29a6.29,6.29,0,0,1-12.58,0Z"/></g></g></svg>