<svg id="Layer_1" data-name="Layer 1" xmlns="http://www.w3.org/2000/svg" viewBox="0 0 283.46 283.46"><defs><style>.cls-1{fill:#ffd400;}.cls-2{fill:#deb000;}.cls-3{fill:#2d1a10;}.cls-4{fill:#ffd868;}.cls-5{fill:#800047;}.cls-6{fill:#e0007a;}.cls-7{fill:#5a5b5e;}.cls-8{fill:#e0e1e3;}.cls-9{fill:#1a1818;}.cls-10{fill:#c89f82;}.cls-11{fill:#ffc8a1;}.cls-12{fill:#260046;}.cls-13{fill:#482080;}</style></defs><g id="Grupo_1066" data-name="Grupo 1066"><g id="Grupo_1062" data-name="Grupo 1062"><g id="Grupo_1063" data-name="Grupo 1063"><path id="Trazado_764" data-name="Trazado 764" class="cls-1" d="M69,30.75,30.75,69a8.2,8.2,0,0,0,0,11.59L202.92,252.71a8.18,8.18,0,0,0,11.58,0l38.21-38.21a8.18,8.18,0,0,0,0-11.58h0L80.55,30.75a8.2,8.2,0,0,0-11.59,0Z"/><path id="Trazado_765" data-name="Trazado 765" class="cls-2" d="M218,240.39l-175-175a8.3,8.3,0,0,1-2.42-6.35L30.75,69a8.2,8.2,0,0,0,0,11.59L202.92,252.72a8.2,8.2,0,0,0,11.59,0l9.9-9.91a8.3,8.3,0,0,1-6.35-2.41Z"/><g id="Grupo_1062-2" data-name="Grupo 1062-2"><path id="Trazado_766" data-name="Trazado 766" class="cls-3" d="M69.24,119l7.68-7.69a4.53,4.53,0,0,0-6.4-6.4l-7.68,7.69Z"/><path id="Trazado_767" data-name="Trazado 767" class="cls-3" d="M172.11,206.53l-7.68,7.69,6.39,6.4,7.69-7.68a4.53,4.53,0,0,0-6.4-6.4Z"/><path id="Trazado_768" data-name="Trazado 768" class="cls-3" d="M52.31,102.11,60,94.42a4.53,4.53,0,1,0-6.4-6.4l-7.68,7.69Z"/><path id="Trazado_769" data-name="Trazado 769" class="cls-3" d="M155.18,189.6l-7.68,7.68,6.4,6.41,7.68-7.69a4.53,4.53,0,0,0-6.4-6.4Z"/><path id="Trazado_770" data-name="Trazado 770" class="cls-3" d="M189.05,223.45l-7.69,7.68,6.4,6.41,7.69-7.69a4.53,4.53,0,1,0-6.4-6.4Z"/><path id="Trazado_771" data-name="Trazado 771" class="cls-3" d="M104.39,138.81l-7.68,7.68,6.4,6.4,7.68-7.68a4.53,4.53,0,1,0-6.4-6.4Z"/><path id="Trazado_772" data-name="Trazado 772" class="cls-3" d="M87.46,121.87l-7.68,7.69,6.4,6.4,7.68-7.68a4.53,4.53,0,1,0-6.4-6.41Z"/><path id="Trazado_773" data-name="Trazado 773" class="cls-3" d="M121.32,155.74l-7.68,7.68,6.4,6.41,7.68-7.69a4.53,4.53,0,0,0-6.4-6.4Z"/><path id="Trazado_774" data-name="Trazado 774" class="cls-3" d="M138.25,172.67l-7.68,7.68,6.4,6.4,7.68-7.68a4.53,4.53,0,0,0-6.4-6.4Z"/></g><path id="Trazado_775" data-name="Trazado 775" class="cls-4" d="M62.63,37.09,246.37,220.83l6.34-6.33a8.2,8.2,0,0,0,0-11.59L80.54,30.75a8.2,8.2,0,0,0-11.59,0Z"/></g><g id="Grupo_1064" data-name="Grupo 1064"><path id="Trazado_776" data-name="Trazado 776" class="cls-5" d="M241.88,41.58l5,5a21.08,21.08,0,0,1,0,29.72l-12,12L202.56,68.46Z"/><path id="Trazado_777" data-name="Trazado 777" class="cls-6" d="M236.93,36.62l4.95,5-33.11,33.1-13.59-26,12-12A21.09,21.09,0,0,1,236.93,36.62Z"/><path id="Trazado_778" data-name="Trazado 778" class="cls-7" d="M215,68.46l19.82,19.82L215,108.09,182.74,88.28Z"/><path id="Trazado_779" data-name="Trazado 779" class="cls-8" d="M195.17,48.65,215,68.46l-26,26-13.6-26Z"/><path id="Trazado_780" data-name="Trazado 780" class="cls-9" d="M46,231.21,50.39,248l-19.9,5Z"/><path id="Trazado_781" data-name="Trazado 781" class="cls-9" d="M35.46,233.07l7.47,7.47L30.49,253Z"/><path id="Trazado_782" data-name="Trazado 782" class="cls-10" d="M66.63,210.62l16.7,29.14L50.39,248l-7.47-7.47Z"/><path id="Trazado_783" data-name="Trazado 783" class="cls-11" d="M43.7,200.13l19.82,19.81L42.93,240.53l-7.47-7.46Z"/><path id="Trazado_784" data-name="Trazado 784" class="cls-12" d="M195.17,88.28,215,108.1,83.32,239.76,63.5,219.94,120,144.79Z"/><rect id="Rectángulo_259" data-name="Rectángulo 259" class="cls-13" x="26.34" y="130.19" width="186.2" height="28.02" transform="translate(-66.98 126.69) rotate(-45)"/></g></g></g></svg>