<svg id="Layer_1" data-name="Layer 1" xmlns="http://www.w3.org/2000/svg" viewBox="0 0 283.46 283.46"><defs><style>.cls-1{fill:#002b7f;}.cls-2{fill:#5a5b5e;}.cls-3{fill:#464749;}.cls-4{fill:#edeeef;}.cls-5{fill:#e0007a;}.cls-6{fill:#8b004e;}.cls-7{fill:#fe9d2b;}.cls-8{fill:#c57c22;}.cls-9{fill:#009cdc;}.cls-10{fill:#006790;}.cls-11{fill:#8abb2a;}.cls-12{fill:#5a7f1c;}</style></defs><g id="_Group_" data-name=" Group "><path id="Trazado_650" data-name="Trazado 650" class="cls-1" d="M181,44.23,100.44,42.5l3.42-5.2c0-2.52-1.38-8.94,1.14-8.94h73.46A4.56,4.56,0,0,1,183,32.92h0v2.74Z"/><path id="Trazado_651" data-name="Trazado 651" class="cls-2" d="M183,35.67v6.85l-37.87,6-44.71-6V32.91A4.56,4.56,0,0,1,105,28.35h2.29v5.47a1.79,1.79,0,0,0,1.8,1.8Z"/><path id="Trazado_652" data-name="Trazado 652" class="cls-1" d="M68.19,255.11H59.06c-1.26,0,1.75-25.87,1.75-27.13l-4-23.36H70.46v48.22A2.28,2.28,0,0,1,68.19,255.11Z"/><path id="Trazado_653" data-name="Trazado 653" class="cls-1" d="M224.4,255.11h-9.11c-1.26,0,1.64-25.87,1.64-27.13L213,204.62h13.68v48.22A2.29,2.29,0,0,1,224.4,255.11Z"/><g id="Grupo_1023" data-name="Grupo 1023"><path id="Trazado_654" data-name="Trazado 654" class="cls-2" d="M56.79,204.62v48.22a2.28,2.28,0,0,0,2.28,2.28h7.3a2.28,2.28,0,0,1-2.28-2.28h0V218.77a2.28,2.28,0,0,1,2.28-2.28h4.1V204.62Z"/><path id="Trazado_655" data-name="Trazado 655" class="cls-2" d="M226.69,216.49V204.62H213v48.22a2.28,2.28,0,0,0,2.28,2.28h7.3a2.28,2.28,0,0,1-2.28-2.28h0V218.77a2.28,2.28,0,0,1,2.28-2.28h4.1Z"/></g><path id="Trazado_656" data-name="Trazado 656" class="cls-2" d="M234.71,204.62l-183.39.68a6.85,6.85,0,0,1-6.85-6.84h0l-.53-148.4c0-3.78,1.16-7.56,4.93-7.56h7.81l85.86,10.57L226.75,42.5h7.8a6.85,6.85,0,0,1,6.85,6.84h0V200.52C241.44,204.29,238.5,204.62,234.71,204.62Z"/><path id="Trazado_657" data-name="Trazado 657" class="cls-3" d="M241.44,199.6v.91a6.85,6.85,0,0,1-6.85,6.84H48.87A6.84,6.84,0,0,1,42,200.51h0V49.34a6.84,6.84,0,0,1,6.84-6.84h.91V197.32a2.29,2.29,0,0,0,2.29,2.28H241.44Z"/><path id="Trazado_658" data-name="Trazado 658" class="cls-4" d="M219.82,190.71,61.87,189.08a2.28,2.28,0,0,1-2.28-2.28h0L59,44l5.45-1.53h162.3V184.8l-4.63,3.65a2.28,2.28,0,0,1-2.28,2.28h0Z"/><path id="Trazado_659" data-name="Trazado 659" class="cls-1" d="M226.76,184.77v5.48a2.28,2.28,0,0,1-2.28,2.28H59a2.28,2.28,0,0,1-2.28-2.28h0V42.5h7.75v140a2.29,2.29,0,0,0,2.29,2.28h160Z"/><g id="Grupo_1024" data-name="Grupo 1024"><path id="Trazado_660" data-name="Trazado 660" class="cls-1" d="M145.15,192.8v32.45a3.42,3.42,0,1,1-6.84,0V188.42h6.81C145.15,188.51,145.15,192.71,145.15,192.8Z"/></g><path id="Trazado_661" data-name="Trazado 661" class="cls-5" d="M149,227.93a7.21,7.21,0,0,0-7.21-7.21h0a6.94,6.94,0,0,0-1.2.1c-3.42.56-3.73,3.6-3.73,7.16,0,4,.94,5.22,4.92,5.22,3.6,0,6.55-.66,7.11-4.09a6.78,6.78,0,0,0,.1-1.2Z"/><path id="Trazado_662" data-name="Trazado 662" class="cls-6" d="M148.85,229.11a7.2,7.2,0,1,1-8.31-8.3,8.08,8.08,0,0,0-.09,1.2,7.2,7.2,0,0,0,7.19,7.22,8.12,8.12,0,0,0,1.21-.1Z"/><path id="Trazado_663" data-name="Trazado 663" class="cls-7" d="M142.6,139.67A35.22,35.22,0,0,1,134.67,162a38,38,0,0,1-9.28,7.21l-7.21-6.08-.65-8a18.61,18.61,0,0,0,8.21-15.61c0-.56,0-1.11-.09-1.67a1.6,1.6,0,0,1,1.31-1.73l13.48-2.44a1.6,1.6,0,0,1,1.87,1.29s0,0,0,.07a34,34,0,0,1,.31,4.62Z"/><path id="Trazado_664" data-name="Trazado 664" class="cls-5" d="M88.53,140a18.19,18.19,0,0,0,.35,3.29L82,150.09l-7.84-2.55a32.38,32.38,0,0,1-1.53-7.85,33,33,0,0,1,5.83-19.34l7.73,1.8,4.91,8.21a18.44,18.44,0,0,0-2.56,9.69Z"/><path id="Trazado_665" data-name="Trazado 665" class="cls-8" d="M135.7,160.64a35.93,35.93,0,0,1-9.6,9l-3.91-1.09,1.93-2.25a35.29,35.29,0,0,0,9.61-4.29h0C134.4,161.56,135.06,161.11,135.7,160.64Z"/><path id="Trazado_666" data-name="Trazado 666" class="cls-6" d="M81.88,145.33l-3.56,4L72.62,148a35.12,35.12,0,0,1,5.19-28.14l1.93-.67,1,3a35.08,35.08,0,0,0,1.16,23.2Z"/><g id="Grupo_1025" data-name="Grupo 1025"><path id="Trazado_667" data-name="Trazado 667" class="cls-7" d="M100.09,71.54H74.43a3.42,3.42,0,0,1,0-6.84h25.66a3.42,3.42,0,1,1,0,6.84Z"/></g><g id="Grupo_1026" data-name="Grupo 1026"><path id="Trazado_668" data-name="Trazado 668" class="cls-7" d="M100.44,87.57H74.78a3.43,3.43,0,0,1,0-6.85h25.66a3.43,3.43,0,0,1,0,6.85Z"/></g><g id="Grupo_1027" data-name="Grupo 1027"><path id="Trazado_669" data-name="Trazado 669" class="cls-1" d="M207.19,126.69H162.45a3.42,3.42,0,1,1,0-6.84h44.73a3.42,3.42,0,0,1,0,6.84Z"/></g><g id="Grupo_1028" data-name="Grupo 1028"><path id="Trazado_670" data-name="Trazado 670" class="cls-1" d="M207.19,143.84H178.61a3.42,3.42,0,0,1,0-6.84h28.58a3.42,3.42,0,1,1,0,6.84Z"/></g><g id="Grupo_1029" data-name="Grupo 1029"><path id="Trazado_671" data-name="Trazado 671" class="cls-1" d="M207.19,159.72H178.61a3.43,3.43,0,0,1,0-6.85h28.58a3.43,3.43,0,0,1,0,6.85Z"/></g><g id="Grupo_1030" data-name="Grupo 1030"><path id="Trazado_672" data-name="Trazado 672" class="cls-1" d="M207.19,175.2H178.61a3.42,3.42,0,0,1,0-6.84h28.58a3.42,3.42,0,1,1,0,6.84Z"/></g><g id="Grupo_1031" data-name="Grupo 1031"><path id="Trazado_673" data-name="Trazado 673" class="cls-9" d="M164.32,143.84h-1.86a3.42,3.42,0,0,1,0-6.84h1.86a3.42,3.42,0,1,1,0,6.84Z"/></g><g id="Grupo_1032" data-name="Grupo 1032"><path id="Trazado_674" data-name="Trazado 674" class="cls-9" d="M164.32,159.72h-1.86a3.43,3.43,0,0,1,0-6.85h1.86a3.43,3.43,0,0,1,0,6.85Z"/></g><g id="Grupo_1033" data-name="Grupo 1033"><path id="Trazado_675" data-name="Trazado 675" class="cls-9" d="M164.32,175.2h-1.86a3.42,3.42,0,0,1,0-6.84h1.86a3.42,3.42,0,1,1,0,6.84Z"/></g><g id="Grupo_1034" data-name="Grupo 1034"><path id="Trazado_676" data-name="Trazado 676" class="cls-9" d="M130.13,84.05,204,85.19a2.29,2.29,0,0,0,2.29-2.28h0l.93-2.29V73.78a2.28,2.28,0,0,0-2.28-2.28H132.27l-3.19,2.23A2.28,2.28,0,0,0,126.8,76h0l1.06,5.76a2.28,2.28,0,0,0,2.28,2.28h0Z"/><path id="Trazado_677" data-name="Trazado 677" class="cls-10" d="M207.19,80.62v4.57a2.28,2.28,0,0,1-2.28,2.28H127.69a2.28,2.28,0,0,1-2.28-2.28h0V73.78a2.28,2.28,0,0,1,2.28-2.28h4.57v7.76a1.36,1.36,0,0,0,1.37,1.36Z"/></g><g id="Grupo_1035" data-name="Grupo 1035"><path id="Trazado_678" data-name="Trazado 678" class="cls-1" d="M207.19,111.09H162.45a3.42,3.42,0,1,1,0-6.84h44.73a3.42,3.42,0,0,1,0,6.84Z"/></g><path id="Trazado_679" data-name="Trazado 679" class="cls-11" d="M118.89,108l-4.76,12.84a1.61,1.61,0,0,1-1.93,1,18.55,18.55,0,0,0-21.09,8.49l-10.39-8.2-1.28-2.28c1.21-1.8,1-3.44,2.46-5a35.35,35.35,0,0,1,36-8.95,1.62,1.62,0,0,1,1,2l0,.07Z"/><path id="Trazado_680" data-name="Trazado 680" class="cls-12" d="M86.18,111.17c-.26.33-.5.68-.73,1a35.63,35.63,0,0,0-4.73,9.94l-2.91-2.3A35.86,35.86,0,0,1,86.18,111.17Z"/><path id="Trazado_681" data-name="Trazado 681" class="cls-9" d="M126.09,169.64l-.71-.46a30.87,30.87,0,0,1-17.81,4.64A33.17,33.17,0,0,1,74,148.26l4.2-.15,3.72-2.78,7-2a18.56,18.56,0,0,0,28.62,11.78l6.6,11.18-4.38,2.4Z"/><path id="Trazado_682" data-name="Trazado 682" class="cls-10" d="M126.09,169.64h0a35.18,35.18,0,0,1-18.92,5.56A35.71,35.71,0,0,1,72.61,148l9.26-2.64a35.37,35.37,0,0,0,42.23,21Z"/><path id="Trazado_683" data-name="Trazado 683" class="cls-1" d="M115.81,135.26v-.38a7.37,7.37,0,0,0-5.16-7V125h-5.16v2.92a7.37,7.37,0,0,0-1.09,13.62l5,2.52a2.2,2.2,0,0,1-1,4.2h-.73a2.2,2.2,0,0,1-2.2-2.2v-.38h-5.17V146a7.4,7.4,0,0,0,5.17,7V156h5.16v-2.92a7.38,7.38,0,0,0,1.09-13.63l-5-2.51a2.21,2.21,0,0,1,1-4.21h.76a2.21,2.21,0,0,1,2.2,2.21h0v.38Z"/><g id="Grupo_1036" data-name="Grupo 1036"><path id="Trazado_684" data-name="Trazado 684" class="cls-1" d="M150.65,58.85v-.18a3.68,3.68,0,0,0-2.58-3.52V53.69h-2.58v1.46a3.69,3.69,0,0,0-.55,6.81l2.52,1.26a1.11,1.11,0,0,1,.48,1.49,1.08,1.08,0,0,1-1,.6h-.38a1.11,1.11,0,0,1-1.11-1.1V64H142.9v.19a3.7,3.7,0,0,0,2.58,3.52v1.46h2.59V67.73a3.69,3.69,0,0,0,.54-6.81l-2.51-1.26a1.1,1.1,0,0,1,.49-2.09H147a1.1,1.1,0,0,1,1.1,1.1v.19Z"/><path id="Trazado_685" data-name="Trazado 685" class="cls-1" d="M137.91,58.85v-.18a3.69,3.69,0,0,0-2.58-3.52V53.69h-2.59v1.46A3.68,3.68,0,0,0,132.2,62l2.51,1.26a1.11,1.11,0,0,1,.49,1.49,1.1,1.1,0,0,1-1,.6h-.38a1.1,1.1,0,0,1-1.1-1.1V64h-2.58v.19a3.69,3.69,0,0,0,2.58,3.52v1.46h2.58V67.73a3.69,3.69,0,0,0,2.4-4.63,3.64,3.64,0,0,0-1.85-2.18l-2.52-1.26a1.11,1.11,0,0,1-.48-1.49,1.08,1.08,0,0,1,1-.6h.38a1.11,1.11,0,0,1,1.11,1.1v.19Z"/><path id="Trazado_686" data-name="Trazado 686" class="cls-1" d="M176.15,58.85v-.18a3.69,3.69,0,0,0-2.58-3.52V53.69H171v1.46a3.68,3.68,0,0,0-.54,6.81L173,63.22a1.11,1.11,0,0,1,.49,1.49,1.1,1.1,0,0,1-1,.6h-.38a1.1,1.1,0,0,1-1.1-1.1V64H168.4v.19A3.69,3.69,0,0,0,171,67.73v1.46h2.58V67.73a3.69,3.69,0,0,0,.55-6.81l-2.52-1.26a1.11,1.11,0,0,1-.48-1.49,1.08,1.08,0,0,1,1-.6h.38a1.11,1.11,0,0,1,1.11,1.1v.19Z"/><path id="Trazado_687" data-name="Trazado 687" class="cls-1" d="M163.4,58.85v-.18a3.68,3.68,0,0,0-2.58-3.52V53.69h-2.58v1.46a3.68,3.68,0,0,0-.55,6.81l2.52,1.26a1.11,1.11,0,0,1,.48,1.49,1.09,1.09,0,0,1-1,.6h-.34a1.11,1.11,0,0,1-1.11-1.1V64h-2.58v.19a3.69,3.69,0,0,0,2.58,3.52v1.46h2.58V67.73a3.69,3.69,0,0,0,.55-6.81l-2.52-1.26a1.11,1.11,0,0,1-.48-1.49,1.09,1.09,0,0,1,1-.6h.37a1.11,1.11,0,0,1,1.11,1.1v.19Z"/><path id="Trazado_688" data-name="Trazado 688" class="cls-1" d="M201.66,58.85v-.18a3.69,3.69,0,0,0-2.58-3.52V53.69H196.5v1.46A3.68,3.68,0,0,0,196,62l2.52,1.26a1.11,1.11,0,0,1,.48,1.49,1.09,1.09,0,0,1-1,.6h-.37a1.1,1.1,0,0,1-1.11-1.1V64h-2.58v.19a3.69,3.69,0,0,0,2.58,3.52v1.46h2.58V67.73a3.69,3.69,0,0,0,.55-6.81l-2.52-1.26a1.11,1.11,0,0,1-.48-1.49,1.09,1.09,0,0,1,1-.6H198a1.11,1.11,0,0,1,1.11,1.1v.19Z"/><path id="Trazado_689" data-name="Trazado 689" class="cls-1" d="M188.9,58.85v-.18a3.69,3.69,0,0,0-2.58-3.52V53.69h-2.58v1.46a3.68,3.68,0,0,0-.55,6.81l2.52,1.26a1.11,1.11,0,0,1,.49,1.49,1.1,1.1,0,0,1-1,.6h-.38a1.1,1.1,0,0,1-1.1-1.1V64h-2.58v.19a3.69,3.69,0,0,0,2.58,3.52v1.46h2.58V67.73a3.69,3.69,0,0,0,.55-6.81l-2.52-1.26a1.11,1.11,0,0,1-.48-1.49,1.08,1.08,0,0,1,1-.6h.38a1.11,1.11,0,0,1,1.11,1.1v.19Z"/></g></g></svg>