<svg id="Layer_1" data-name="Layer 1" xmlns="http://www.w3.org/2000/svg" xmlns:xlink="http://www.w3.org/1999/xlink" viewBox="0 0 283.46 283.46"><defs><style>.cls-1{fill:none;}.cls-2{clip-path:url(#clip-path);}.cls-3{fill:#6da12f;}.cls-4{fill:#f2f3f4;}.cls-5{fill:#e93546;}.cls-6{fill:#ffc739;}.cls-7{fill:#35ae8a;}.cls-8{fill:#009cd5;}.cls-9{fill:#5f202a;}.cls-10{fill:#a7c84d;}.cls-11{fill:#73303f;}.cls-12{fill:#642c36;}.cls-13{fill:#ffd942;}.cls-14{fill:#fca263;}.cls-15{fill:#883949;}.cls-16{fill:#fff;opacity:0.5;}.cls-16,.cls-17{isolation:isolate;}.cls-17,.cls-22{fill:#1a1818;}.cls-17{opacity:0.3;}.cls-18{fill:#ffa419;}.cls-19{fill:#f16322;}.cls-20{fill:#fe9d2b;}.cls-21{fill:#e50019;}.cls-23{fill:#00a1ed;}.cls-24{clip-path:url(#clip-path-2);}.cls-25{fill:#22388b;}.cls-26{fill:#ffcc9c;}.cls-27{fill:#ec7e5e;}.cls-28{fill:#34646c;}.cls-29{fill:#203040;}.cls-30{fill:#e0007a;}</style><clipPath id="clip-path"><path class="cls-1" d="M160.38,121H267.55a9.33,9.33,0,0,1,9.33,9.32h0v60.58a9.33,9.33,0,0,1-9.33,9.32H160.38a9.33,9.33,0,0,1-9.33-9.32h0V130.36a9.33,9.33,0,0,1,9.33-9.32Z"/></clipPath><clipPath id="clip-path-2"><path class="cls-1" d="M101.61,75.19h0a32.24,32.24,0,0,1,32.24,32.24v58a32.24,32.24,0,0,1-32.24,32.25h0a32.25,32.25,0,0,1-32.24-32.25v-58A32.25,32.25,0,0,1,101.61,75.19Z"/></clipPath></defs><g id="Grupo_1057" data-name="Grupo 1057"><g id="Grupo_1050" data-name="Grupo 1050"><g id="Grupo_1049" data-name="Grupo 1049"><g id="Grupo_1046" data-name="Grupo 1046"><g class="cls-2"><g id="Grupo_1045" data-name="Grupo 1045"><g id="Grupo_1044" data-name="Grupo 1044"><path id="Trazado_695" data-name="Trazado 695" class="cls-3" d="M193.12,201.62H153.58a2.16,2.16,0,0,1-2.16-2.15V121.83a2.16,2.16,0,0,1,2.16-2.16h39.54Z"/><rect id="Rectángulo_239" data-name="Rectángulo 239" class="cls-4" x="193.12" y="119.67" width="41.7" height="81.95"/><path id="Trazado_696" data-name="Trazado 696" class="cls-5" d="M274.35,201.62H234.81V119.69h39.54a2.16,2.16,0,0,1,2.16,2.15v77.65A2.16,2.16,0,0,1,274.35,201.62Z"/><g id="Grupo_1043" data-name="Grupo 1043"><path id="Trazado_697" data-name="Trazado 697" class="cls-6" d="M217.68,162.58,214,164.44v1.86h1.86Z"/><g id="Grupo_1041" data-name="Grupo 1041"><path id="Trazado_698" data-name="Trazado 698" class="cls-7" d="M214,171A.93.93,0,0,1,213,170h0V166.3a.92.92,0,0,1,.85-1,.94.94,0,0,1,1,.85V170A.94.94,0,0,1,214,171Z"/><path id="Trazado_699" data-name="Trazado 699" class="cls-7" d="M214,167.23a14.52,14.52,0,0,1-9.93-4,.93.93,0,0,1,1-1.55.8.8,0,0,1,.23.22,12.55,12.55,0,0,0,17.32,0,.94.94,0,0,1,1.31-.19.93.93,0,0,1,.19,1.3.8.8,0,0,1-.23.22A14.6,14.6,0,0,1,214,167.23Z"/></g><path id="Trazado_700" data-name="Trazado 700" class="cls-8" d="M214,171a12,12,0,0,1-6.66-2l1-1.55a10.39,10.39,0,0,0,11.33,0l1,1.55A12.09,12.09,0,0,1,214,171Z"/><path id="Trazado_701" data-name="Trazado 701" class="cls-9" d="M212.49,158.39l-2.05,3.18-.35,1,5.33-1.24Z"/><path id="Trazado_702" data-name="Trazado 702" class="cls-10" d="M208.27,163.63c-2.46,0-5.41-2.06-6.19-6.66l1.84-.31c.66,3.83,3,5.13,4.42,5.13.43,0,.89-.16.93-.47s0-.45-.92-.78a3.31,3.31,0,0,1-1.55-.86c-1.7-2,.6-4,1.71-5,.19-.18.27-.32.25-.38a1,1,0,0,0-.84-.4,2.28,2.28,0,0,1-2.34-1.74,2.5,2.5,0,0,1,1.21-2.79l.86,1.66a.65.65,0,0,0-.26.66c0,.1.08.32.53.32a2.76,2.76,0,0,1,2.57,1.6,2.12,2.12,0,0,1-.75,2.43c-1.22,1.09-2,1.91-1.55,2.37a2.64,2.64,0,0,0,.75.33c.84.29,2.4.81,2.17,2.76a2.57,2.57,0,0,1-2.72,2.12Z"/><path id="Trazado_703" data-name="Trazado 703" class="cls-11" d="M215.82,153.28a4.07,4.07,0,0,0-1.7-5.5l-.16-.08s13-1.85,11.16,14.88h0a14.44,14.44,0,0,1-3.68-4.18l-5.61-3.26v-1.86Z"/><path id="Trazado_704" data-name="Trazado 704" class="cls-9" d="M214,157l9.33,5.58-3.72,1.86L214,158.86Z"/><path id="Trazado_705" data-name="Trazado 705" class="cls-12" d="M210.25,151.42h0a1.85,1.85,0,0,1,1.85,1.85h0a3.65,3.65,0,0,0-.66,4.21l.42.84a3.68,3.68,0,0,0,.66,1l5.17,5.16v-2.57a20.7,20.7,0,0,0-2.18-9.23h0a5.58,5.58,0,0,0-5-3.08h-.27v1.86Z"/><path id="Trazado_706" data-name="Trazado 706" class="cls-6" d="M210.25,149.56l-1.86,1.85v1.86s2.21-1.12,3-1.48a.65.65,0,0,0,.32-.88.57.57,0,0,0-.19-.24Z"/><path id="Trazado_707" data-name="Trazado 707" class="cls-10" d="M214,174.66a15.84,15.84,0,0,1-15.81-15.8H200a14,14,0,1,0,27.9.06v-.06h1.86A15.82,15.82,0,0,1,214,174.66Z"/><g id="Grupo_1042" data-name="Grupo 1042"><circle id="Elipse_67" data-name="Elipse 67" class="cls-13" cx="200.11" cy="164.37" r="1.26"/><circle id="Elipse_68" data-name="Elipse 68" class="cls-13" cx="202.9" cy="168.83" r="1.26"/><circle id="Elipse_69" data-name="Elipse 69" class="cls-13" cx="207.43" cy="172.2" r="1.26"/><circle id="Elipse_70" data-name="Elipse 70" class="cls-13" cx="227.95" cy="164.37" r="1.26"/><circle id="Elipse_71" data-name="Elipse 71" class="cls-13" cx="225.15" cy="168.83" r="1.26"/><circle id="Elipse_72" data-name="Elipse 72" class="cls-13" cx="220.62" cy="172.2" r="1.26"/></g><path id="Trazado_708" data-name="Trazado 708" class="cls-14" d="M214.89,171.87H213a1.86,1.86,0,0,1-1.86-1.86h0a1.85,1.85,0,0,1,1.86-1.85h1.86a1.86,1.86,0,0,1,1.86,1.85h0A1.86,1.86,0,0,1,214.89,171.87Z"/><path id="Trazado_709" data-name="Trazado 709" class="cls-15" d="M221.44,158.4a6.87,6.87,0,0,0,3.68,4.18h0C227,145.84,214,147.7,214,147.7,223.26,147.7,221.44,158.4,221.44,158.4Z"/></g></g><rect id="Rectángulo_240" data-name="Rectángulo 240" class="cls-16" x="148.29" y="118.65" width="130.48" height="85.5" rx="42.75"/></g></g></g><path id="Trazado_711" data-name="Trazado 711" class="cls-17" d="M267.56,121h-1.87c-22,39-63.09,65.83-88.18,79.21h90.05a9.32,9.32,0,0,0,9.32-9.32h0V130.35A9.33,9.33,0,0,0,267.56,121Z"/><rect id="Rectángulo_241" data-name="Rectángulo 241" class="cls-18" x="159.17" y="131.03" width="23.3" height="18.64"/><g id="Grupo_1047" data-name="Grupo 1047"><rect id="Rectángulo_242" data-name="Rectángulo 242" class="cls-19" x="159.17" y="138.02" width="6.99" height="4.66"/><rect id="Rectángulo_243" data-name="Rectángulo 243" class="cls-19" x="175.48" y="138.02" width="6.99" height="4.66"/></g><circle id="Elipse_73" data-name="Elipse 73" class="cls-20" cx="261.3" cy="182.26" r="9.96"/><circle id="Elipse_74" data-name="Elipse 74" class="cls-21" cx="249.34" cy="182.26" r="9.96"/><g id="Grupo_1048" data-name="Grupo 1048"><rect id="Rectángulo_244" data-name="Rectángulo 244" class="cls-22" x="160.38" y="177.3" width="13.98" height="4.66"/><rect id="Rectángulo_245" data-name="Rectángulo 245" class="cls-22" x="183.67" y="177.3" width="13.98" height="4.66"/><rect id="Rectángulo_246" data-name="Rectángulo 246" class="cls-22" x="206.97" y="177.3" width="13.98" height="4.66"/><rect id="Rectángulo_247" data-name="Rectángulo 247" class="cls-22" x="160.38" y="187.65" width="60.57" height="4.66"/><rect id="Rectángulo_248" data-name="Rectángulo 248" class="cls-22" x="237.43" y="131.48" width="4.66" height="9.32"/><rect id="Rectángulo_249" data-name="Rectángulo 249" class="cls-22" x="246.75" y="131.48" width="4.66" height="9.32"/><rect id="Rectángulo_250" data-name="Rectángulo 250" class="cls-22" x="256.07" y="131.48" width="4.66" height="9.32"/><rect id="Rectángulo_251" data-name="Rectángulo 251" class="cls-22" x="265.39" y="131.48" width="4.66" height="9.32"/></g></g></g><path id="Rectángulo_252" data-name="Rectángulo 252" class="cls-23" d="M101.61,68.74h0a38.69,38.69,0,0,1,38.69,38.69v58a38.69,38.69,0,0,1-38.69,38.69h0a38.69,38.69,0,0,1-38.69-38.69v-58A38.69,38.69,0,0,1,101.61,68.74Z"/><g id="Grupo_1056" data-name="Grupo 1056"><g class="cls-24"><g id="Grupo_1055" data-name="Grupo 1055"><g id="Grupo_1054" data-name="Grupo 1054"><path id="Trazado_712" data-name="Trazado 712" class="cls-4" d="M257.9,200.19H72a3.33,3.33,0,0,1-3.33-3.33V77.4A3.33,3.33,0,0,1,72,74.07H257.9a3.33,3.33,0,0,1,3.33,3.33V196.87A3.32,3.32,0,0,1,257.9,200.19Z"/><g id="Grupo_1051" data-name="Grupo 1051"><path id="Trazado_713" data-name="Trazado 713" class="cls-5" d="M261.22,83.78H68.7V77.4A3.33,3.33,0,0,1,72,74.07H257.89a3.33,3.33,0,0,1,3.33,3.33Z"/><rect id="Rectángulo_253" data-name="Rectángulo 253" class="cls-5" x="68.73" y="112.88" width="192.49" height="9.7"/><rect id="Rectángulo_254" data-name="Rectángulo 254" class="cls-5" x="68.73" y="93.48" width="192.49" height="9.7"/><path id="Trazado_714" data-name="Trazado 714" class="cls-5" d="M261.22,142H72a3.33,3.33,0,0,1-3.33-3.33v-6.38H261.22Z"/><rect id="Rectángulo_255" data-name="Rectángulo 255" class="cls-5" x="68.73" y="171.09" width="192.49" height="9.7"/><path id="Trazado_715" data-name="Trazado 715" class="cls-5" d="M257.9,200.17H72a3.33,3.33,0,0,1-3.33-3.33v-6.38H261.23v6.38A3.33,3.33,0,0,1,257.9,200.17Z"/><rect id="Rectángulo_256" data-name="Rectángulo 256" class="cls-5" x="68.73" y="151.69" width="192.49" height="9.7"/></g><g id="Grupo_1053" data-name="Grupo 1053"><path id="Trazado_716" data-name="Trazado 716" class="cls-25" d="M132.63,74.08H71.19a2.46,2.46,0,0,0-2.46,2.46h0v45.37a2.46,2.46,0,0,0,2.46,2.46h61.44a2.46,2.46,0,0,0,2.46-2.46h0V76.54a2.46,2.46,0,0,0-2.46-2.46Z"/><g id="Grupo_1052" data-name="Grupo 1052"><path id="Trazado_717" data-name="Trazado 717" class="cls-4" d="M75.61,79.72l.54,1.63h1.72a.25.25,0,0,1,.23.24.23.23,0,0,1-.09.18l-1.39,1,.52,1.64a.22.22,0,0,1-.16.29.21.21,0,0,1-.19,0l-1.4-1-1.4,1a.23.23,0,0,1-.35-.26l.52-1.64-1.39-1a.23.23,0,0,1,0-.32.27.27,0,0,1,.18-.1h1.72l.55-1.63a.23.23,0,0,1,.29-.14A.26.26,0,0,1,75.61,79.72Z"/><path id="Trazado_718" data-name="Trazado 718" class="cls-4" d="M75.61,88.26l.54,1.63h1.72a.23.23,0,0,1,.23.24.26.26,0,0,1-.09.18l-1.39,1L77.14,93a.23.23,0,0,1-.16.29.31.31,0,0,1-.19,0l-1.4-1-1.4,1a.23.23,0,0,1-.32-.07.22.22,0,0,1,0-.19l.52-1.64-1.39-1a.25.25,0,0,1,0-.33.23.23,0,0,1,.18-.09h1.72l.55-1.63a.22.22,0,0,1,.29-.15A.28.28,0,0,1,75.61,88.26Z"/><path id="Trazado_719" data-name="Trazado 719" class="cls-4" d="M75.61,96.79l.54,1.63h1.72a.24.24,0,0,1,.14.42l-1.39,1,.52,1.64a.23.23,0,0,1-.16.29.21.21,0,0,1-.19,0l-1.4-1-1.4,1a.23.23,0,0,1-.32-.07.21.21,0,0,1,0-.19l.52-1.64-1.39-1a.25.25,0,0,1,0-.33.26.26,0,0,1,.18-.09h1.72l.55-1.63a.22.22,0,0,1,.29-.14A.23.23,0,0,1,75.61,96.79Z"/><path id="Trazado_720" data-name="Trazado 720" class="cls-4" d="M75.61,105.33l.54,1.63h1.72a.24.24,0,0,1,.14.42l-1.39,1,.52,1.64a.23.23,0,0,1-.16.29.21.21,0,0,1-.19,0l-1.4-1-1.4,1a.23.23,0,0,1-.32-.07.21.21,0,0,1,0-.19l.52-1.64-1.39-1a.23.23,0,0,1,.13-.42h1.72l.55-1.63a.22.22,0,0,1,.29-.14A.23.23,0,0,1,75.61,105.33Z"/><path id="Trazado_721" data-name="Trazado 721" class="cls-4" d="M75.61,113.86l.54,1.64h1.72a.23.23,0,0,1,.23.23.23.23,0,0,1-.09.18l-1.39,1,.52,1.64a.22.22,0,0,1-.16.29.21.21,0,0,1-.19,0l-1.4-1-1.4,1a.23.23,0,0,1-.32-.06.24.24,0,0,1,0-.2l.52-1.64-1.39-1a.23.23,0,0,1,0-.32.23.23,0,0,1,.18-.09h1.72l.55-1.64a.23.23,0,0,1,.29-.14A.26.26,0,0,1,75.61,113.86Z"/><path id="Trazado_722" data-name="Trazado 722" class="cls-4" d="M82.26,83.91l.54,1.63h1.72a.23.23,0,0,1,.23.24.24.24,0,0,1-.1.18l-1.38,1,.52,1.64a.24.24,0,0,1-.15.3.23.23,0,0,1-.21,0l-1.4-1-1.4,1a.23.23,0,0,1-.35-.26L80.8,87l-1.39-1a.25.25,0,0,1,0-.33.25.25,0,0,1,.19-.09h1.72l.55-1.63a.22.22,0,0,1,.29-.15A.28.28,0,0,1,82.26,83.91Z"/><path id="Trazado_723" data-name="Trazado 723" class="cls-4" d="M82.26,92.45l.54,1.63h1.72a.23.23,0,0,1,.23.24.22.22,0,0,1-.1.18l-1.38,1,.52,1.64a.23.23,0,0,1-.15.29.26.26,0,0,1-.21,0l-1.4-1-1.4,1a.23.23,0,0,1-.32-.07.22.22,0,0,1,0-.19l.52-1.64-1.39-1a.25.25,0,0,1,0-.33.25.25,0,0,1,.19-.09h1.72l.55-1.63a.22.22,0,0,1,.29-.15A.28.28,0,0,1,82.26,92.45Z"/><path id="Trazado_724" data-name="Trazado 724" class="cls-4" d="M82.26,101l.54,1.63h1.72a.24.24,0,0,1,.23.24.22.22,0,0,1-.1.18l-1.38,1,.52,1.64a.23.23,0,0,1-.15.29.23.23,0,0,1-.21,0L82,105l-1.4,1a.23.23,0,0,1-.32-.07.21.21,0,0,1,0-.19l.52-1.64-1.39-1a.25.25,0,0,1,0-.33.28.28,0,0,1,.19-.09h1.72l.55-1.63a.22.22,0,0,1,.29-.14A.23.23,0,0,1,82.26,101Z"/><path id="Trazado_725" data-name="Trazado 725" class="cls-4" d="M82.26,109.51l.54,1.63h1.72a.23.23,0,0,1,.23.24.22.22,0,0,1-.1.18l-1.38,1,.52,1.64a.23.23,0,0,1-.15.29.26.26,0,0,1-.21,0l-1.4-1-1.4,1a.23.23,0,0,1-.32-.07.22.22,0,0,1,0-.19l.52-1.64-1.39-1a.23.23,0,0,1,.14-.42h1.72l.55-1.63a.23.23,0,0,1,.29-.15A.28.28,0,0,1,82.26,109.51Z"/><path id="Trazado_726" data-name="Trazado 726" class="cls-4" d="M88.88,79.72l.55,1.63h1.72a.25.25,0,0,1,.23.24.24.24,0,0,1-.1.18l-1.38,1,.52,1.64a.24.24,0,0,1-.15.3.22.22,0,0,1-.21,0l-1.4-1-1.4,1a.25.25,0,0,1-.33-.06.27.27,0,0,1,0-.2l.51-1.64-1.38-1a.23.23,0,0,1-.05-.32.26.26,0,0,1,.19-.1H87.9l.54-1.63a.24.24,0,0,1,.3-.14A.22.22,0,0,1,88.88,79.72Z"/><path id="Trazado_727" data-name="Trazado 727" class="cls-4" d="M88.88,88.26l.55,1.63h1.72a.23.23,0,0,1,.23.24.27.27,0,0,1-.1.18l-1.38,1L90.42,93a.23.23,0,0,1-.15.29.25.25,0,0,1-.21,0l-1.4-1-1.4,1a.24.24,0,0,1-.33-.07.25.25,0,0,1,0-.19l.51-1.64-1.38-1A.25.25,0,0,1,86,90a.25.25,0,0,1,.19-.09H87.9l.54-1.63a.24.24,0,0,1,.3-.15A.23.23,0,0,1,88.88,88.26Z"/><path id="Trazado_728" data-name="Trazado 728" class="cls-4" d="M88.88,96.79l.55,1.63h1.72a.24.24,0,0,1,.23.24.25.25,0,0,1-.1.18l-1.38,1,.52,1.64a.23.23,0,0,1-.15.29.22.22,0,0,1-.21,0l-1.4-1-1.4,1a.23.23,0,0,1-.35-.26l.51-1.64-1.38-1a.25.25,0,0,1-.05-.33.28.28,0,0,1,.19-.09H87.9l.54-1.63a.23.23,0,0,1,.3-.14A.2.2,0,0,1,88.88,96.79Z"/><path id="Trazado_729" data-name="Trazado 729" class="cls-4" d="M88.88,105.33l.55,1.63h1.72a.24.24,0,0,1,.23.24.25.25,0,0,1-.1.18l-1.38,1,.52,1.64a.23.23,0,0,1-.15.29.22.22,0,0,1-.21,0l-1.4-1-1.4,1a.23.23,0,0,1-.35-.26l.51-1.64-1.38-1a.24.24,0,0,1-.05-.32.26.26,0,0,1,.19-.1H87.9l.54-1.63a.23.23,0,0,1,.3-.14A.2.2,0,0,1,88.88,105.33Z"/><path id="Trazado_730" data-name="Trazado 730" class="cls-4" d="M88.88,113.86l.55,1.64h1.72a.23.23,0,0,1,.23.23.24.24,0,0,1-.1.18l-1.38,1,.52,1.64a.24.24,0,0,1-.15.3.22.22,0,0,1-.21,0l-1.4-1-1.4,1a.24.24,0,0,1-.33-.06.27.27,0,0,1,0-.2l.51-1.64-1.38-1a.23.23,0,0,1-.05-.32.25.25,0,0,1,.19-.09H87.9l.54-1.64a.24.24,0,0,1,.3-.14A.22.22,0,0,1,88.88,113.86Z"/><path id="Trazado_731" data-name="Trazado 731" class="cls-4" d="M95.51,83.91l.54,1.63h1.72a.23.23,0,0,1,.23.24.24.24,0,0,1-.1.18l-1.38,1L97,88.62a.24.24,0,0,1-.16.29.21.21,0,0,1-.19,0l-1.4-1-1.4,1a.25.25,0,0,1-.33-.06.28.28,0,0,1,0-.2L94.05,87l-1.38-1a.24.24,0,0,1,0-.33.23.23,0,0,1,.19-.09h1.72l.54-1.63a.24.24,0,0,1,.31-.13A.27.27,0,0,1,95.51,83.91Z"/><path id="Trazado_732" data-name="Trazado 732" class="cls-4" d="M95.51,92.45l.54,1.63h1.72a.23.23,0,0,1,.23.24.22.22,0,0,1-.1.18l-1.38,1L97,97.16a.25.25,0,0,1-.16.29.3.3,0,0,1-.19,0l-1.4-1-1.4,1a.24.24,0,0,1-.33-.07.26.26,0,0,1,0-.19l.52-1.64-1.38-1a.24.24,0,0,1,0-.33.23.23,0,0,1,.19-.09h1.72l.54-1.63a.24.24,0,0,1,.31-.13A.27.27,0,0,1,95.51,92.45Z"/><path id="Trazado_733" data-name="Trazado 733" class="cls-4" d="M95.51,101l.54,1.63h1.72a.24.24,0,0,1,.23.24.22.22,0,0,1-.1.18l-1.38,1,.52,1.64a.25.25,0,0,1-.16.29.21.21,0,0,1-.19,0l-1.4-1-1.4,1a.24.24,0,0,1-.33-.07.24.24,0,0,1,0-.19l.52-1.64-1.38-1a.24.24,0,0,1,0-.33.26.26,0,0,1,.19-.09h1.72l.54-1.63a.24.24,0,0,1,.31-.13A.27.27,0,0,1,95.51,101Z"/><path id="Trazado_734" data-name="Trazado 734" class="cls-4" d="M95.51,109.51l.54,1.63h1.72a.23.23,0,0,1,.23.24.22.22,0,0,1-.1.18l-1.38,1,.52,1.64a.25.25,0,0,1-.16.29.24.24,0,0,1-.19,0l-1.4-1-1.4,1a.24.24,0,0,1-.33-.07.26.26,0,0,1,0-.19l.52-1.64-1.38-1a.24.24,0,0,1,0-.33.23.23,0,0,1,.19-.09h1.72l.54-1.63a.24.24,0,0,1,.31-.13A.27.27,0,0,1,95.51,109.51Z"/><path id="Trazado_735" data-name="Trazado 735" class="cls-4" d="M102.13,79.72l.55,1.63h1.72a.25.25,0,0,1,.23.24.24.24,0,0,1-.1.18l-1.38,1,.52,1.64a.24.24,0,0,1-.15.3.22.22,0,0,1-.21,0l-1.4-1-1.4,1a.25.25,0,0,1-.33-.06.34.34,0,0,1,0-.2l.52-1.64-1.38-1a.23.23,0,0,1-.05-.32.26.26,0,0,1,.19-.1h1.72l.54-1.63a.24.24,0,0,1,.3-.14A.22.22,0,0,1,102.13,79.72Z"/><path id="Trazado_736" data-name="Trazado 736" class="cls-4" d="M102.13,88.26l.55,1.63h1.72a.23.23,0,0,1,.23.24.27.27,0,0,1-.1.18l-1.38,1,.52,1.64a.23.23,0,0,1-.15.29.25.25,0,0,1-.21,0l-1.4-1-1.4,1a.24.24,0,0,1-.33-.07.32.32,0,0,1,0-.19l.52-1.64-1.38-1a.25.25,0,0,1-.05-.33.25.25,0,0,1,.19-.09h1.72l.54-1.63a.24.24,0,0,1,.3-.15A.23.23,0,0,1,102.13,88.26Z"/><path id="Trazado_737" data-name="Trazado 737" class="cls-4" d="M102.13,96.79l.55,1.63h1.72a.24.24,0,0,1,.23.24.25.25,0,0,1-.1.18l-1.38,1,.52,1.64a.23.23,0,0,1-.15.29.22.22,0,0,1-.21,0l-1.4-1-1.4,1a.24.24,0,0,1-.33-.07.3.3,0,0,1,0-.19l.52-1.64-1.38-1a.25.25,0,0,1-.05-.33.28.28,0,0,1,.19-.09h1.72l.54-1.63a.23.23,0,0,1,.3-.14A.2.2,0,0,1,102.13,96.79Z"/><path id="Trazado_738" data-name="Trazado 738" class="cls-4" d="M102.13,105.33l.55,1.63h1.72a.24.24,0,0,1,.23.24.25.25,0,0,1-.1.18l-1.38,1,.52,1.64a.23.23,0,0,1-.15.29.22.22,0,0,1-.21,0l-1.4-1-1.4,1a.24.24,0,0,1-.33-.07.3.3,0,0,1,0-.19l.52-1.64-1.38-1a.24.24,0,0,1-.05-.32.26.26,0,0,1,.19-.1h1.72l.54-1.63a.23.23,0,0,1,.3-.14A.2.2,0,0,1,102.13,105.33Z"/><path id="Trazado_739" data-name="Trazado 739" class="cls-4" d="M102.13,113.86l.55,1.64h1.72a.23.23,0,0,1,.23.23.24.24,0,0,1-.1.18l-1.38,1,.52,1.64a.24.24,0,0,1-.15.3.22.22,0,0,1-.21,0l-1.4-1-1.4,1a.24.24,0,0,1-.33-.06.34.34,0,0,1,0-.2l.52-1.64-1.38-1a.23.23,0,0,1-.05-.32.25.25,0,0,1,.19-.09h1.72l.54-1.64a.24.24,0,0,1,.3-.14A.22.22,0,0,1,102.13,113.86Z"/><path id="Trazado_740" data-name="Trazado 740" class="cls-4" d="M108.76,83.91l.54,1.63H111a.23.23,0,0,1,.23.24.27.27,0,0,1-.1.18l-1.38,1,.52,1.64a.24.24,0,0,1-.15.3.23.23,0,0,1-.21,0l-1.4-1-1.4,1a.23.23,0,0,1-.35-.26L107.3,87l-1.39-1a.25.25,0,0,1,0-.33.25.25,0,0,1,.19-.09h1.72l.55-1.63a.22.22,0,0,1,.29-.15A.28.28,0,0,1,108.76,83.91Z"/><path id="Trazado_741" data-name="Trazado 741" class="cls-4" d="M108.76,92.45l.54,1.63H111a.23.23,0,0,1,.23.24.25.25,0,0,1-.1.18l-1.38,1,.52,1.64a.23.23,0,0,1-.15.29.26.26,0,0,1-.21,0l-1.4-1-1.4,1a.23.23,0,0,1-.32-.07.22.22,0,0,1,0-.19l.52-1.64-1.39-1a.25.25,0,0,1,0-.33.25.25,0,0,1,.19-.09h1.72l.55-1.63a.22.22,0,0,1,.29-.15A.28.28,0,0,1,108.76,92.45Z"/><path id="Trazado_742" data-name="Trazado 742" class="cls-4" d="M108.76,101l.54,1.63H111a.24.24,0,0,1,.23.24.25.25,0,0,1-.1.18l-1.38,1,.52,1.64a.23.23,0,0,1-.15.29.23.23,0,0,1-.21,0l-1.4-1-1.4,1a.23.23,0,0,1-.32-.07.21.21,0,0,1,0-.19l.52-1.64-1.39-1a.25.25,0,0,1,0-.33.28.28,0,0,1,.19-.09h1.72l.55-1.63a.22.22,0,0,1,.29-.14A.23.23,0,0,1,108.76,101Z"/><path id="Trazado_743" data-name="Trazado 743" class="cls-4" d="M108.76,109.51l.54,1.63H111a.23.23,0,0,1,.23.24.25.25,0,0,1-.1.18l-1.38,1,.52,1.64a.23.23,0,0,1-.15.29.26.26,0,0,1-.21,0l-1.4-1-1.4,1a.23.23,0,0,1-.32-.07.22.22,0,0,1,0-.19l.52-1.64-1.39-1a.23.23,0,0,1,.14-.42h1.72l.55-1.63a.23.23,0,0,1,.29-.15A.28.28,0,0,1,108.76,109.51Z"/><path id="Trazado_744" data-name="Trazado 744" class="cls-4" d="M115.36,79.72l.55,1.63h1.72a.25.25,0,0,1,.23.24.24.24,0,0,1-.1.18l-1.38,1,.52,1.64a.24.24,0,0,1-.36.26l-1.4-1-1.4,1a.22.22,0,0,1-.32,0,.2.2,0,0,1,0-.21l.51-1.64-1.38-1a.23.23,0,0,1,0-.32.25.25,0,0,1,.18-.1h1.72l.55-1.63a.23.23,0,0,1,.44,0Z"/><path id="Trazado_745" data-name="Trazado 745" class="cls-4" d="M115.36,88.26l.55,1.63h1.72a.23.23,0,0,1,.23.24.27.27,0,0,1-.1.18l-1.38,1L116.9,93a.25.25,0,0,1-.16.29.34.34,0,0,1-.2,0l-1.4-1-1.4,1a.24.24,0,0,1-.32,0,.2.2,0,0,1,0-.21l.51-1.64-1.38-1a.25.25,0,0,1,0-.33.21.21,0,0,1,.18-.09h1.72l.55-1.63a.23.23,0,0,1,.44,0Z"/><path id="Trazado_746" data-name="Trazado 746" class="cls-4" d="M115.36,96.79l.55,1.63h1.72a.24.24,0,0,1,.23.24.25.25,0,0,1-.1.18l-1.38,1,.52,1.64a.25.25,0,0,1-.16.29.24.24,0,0,1-.2,0l-1.4-1-1.4,1a.23.23,0,0,1-.32-.05.2.2,0,0,1,0-.21l.51-1.64-1.38-1a.25.25,0,0,1,0-.33.24.24,0,0,1,.18-.09h1.72l.55-1.63a.24.24,0,0,1,.29-.16A.24.24,0,0,1,115.36,96.79Z"/><path id="Trazado_747" data-name="Trazado 747" class="cls-4" d="M115.36,105.33l.55,1.63h1.72a.24.24,0,0,1,.23.24.25.25,0,0,1-.1.18l-1.38,1,.52,1.64a.25.25,0,0,1-.16.29.24.24,0,0,1-.2,0l-1.4-1-1.4,1a.23.23,0,0,1-.32,0,.2.2,0,0,1,0-.21l.51-1.64-1.38-1a.24.24,0,0,1,0-.32.22.22,0,0,1,.18-.1h1.72l.55-1.63a.24.24,0,0,1,.29-.16A.24.24,0,0,1,115.36,105.33Z"/><path id="Trazado_748" data-name="Trazado 748" class="cls-4" d="M115.36,113.86l.55,1.64h1.72a.23.23,0,0,1,.23.23.24.24,0,0,1-.1.18l-1.38,1,.52,1.64a.24.24,0,0,1-.36.26l-1.4-1-1.4,1a.22.22,0,0,1-.32,0,.2.2,0,0,1,0-.21l.51-1.64-1.38-1a.23.23,0,0,1,0-.32.21.21,0,0,1,.18-.09h1.72l.55-1.64a.23.23,0,0,1,.44,0Z"/><path id="Trazado_749" data-name="Trazado 749" class="cls-4" d="M122,83.91l.54,1.63h1.72a.23.23,0,0,1,.23.23.25.25,0,0,1-.09.19L123,87l.52,1.64a.22.22,0,0,1-.15.29.24.24,0,0,1-.2,0l-1.4-1-1.4,1a.22.22,0,0,1-.32,0,.23.23,0,0,1,0-.21l.52-1.64-1.38-1a.23.23,0,0,1,0-.33.21.21,0,0,1,.18-.09H121l.55-1.63a.22.22,0,0,1,.29-.15A.28.28,0,0,1,122,83.91Z"/><path id="Trazado_750" data-name="Trazado 750" class="cls-4" d="M122,92.45l.54,1.63h1.72a.23.23,0,0,1,.23.23.25.25,0,0,1-.09.19l-1.39,1,.52,1.64a.23.23,0,0,1-.15.29.34.34,0,0,1-.2,0l-1.4-1-1.4,1a.23.23,0,0,1-.32,0,.23.23,0,0,1,0-.21l.52-1.64-1.38-1a.23.23,0,0,1,0-.33.21.21,0,0,1,.18-.09H121l.55-1.63a.22.22,0,0,1,.29-.15A.28.28,0,0,1,122,92.45Z"/><path id="Trazado_751" data-name="Trazado 751" class="cls-4" d="M122,101l.54,1.63h1.72a.23.23,0,0,1,.23.24.21.21,0,0,1-.09.18l-1.39,1,.52,1.64a.23.23,0,0,1-.15.29.24.24,0,0,1-.2,0l-1.4-1-1.4,1a.23.23,0,0,1-.32,0,.23.23,0,0,1,0-.21l.52-1.64-1.38-1a.23.23,0,0,1,0-.33.24.24,0,0,1,.18-.09H121l.55-1.63a.22.22,0,0,1,.29-.14A.23.23,0,0,1,122,101Z"/><path id="Trazado_752" data-name="Trazado 752" class="cls-4" d="M122,109.51l.54,1.63h1.72a.23.23,0,0,1,.23.23.23.23,0,0,1-.09.19l-1.39,1,.52,1.64a.23.23,0,0,1-.15.29.28.28,0,0,1-.2,0l-1.4-1-1.4,1a.23.23,0,0,1-.32,0,.23.23,0,0,1,0-.21l.52-1.64-1.38-1a.23.23,0,0,1,0-.33.24.24,0,0,1,.18-.09H121l.55-1.63a.23.23,0,0,1,.29-.15A.28.28,0,0,1,122,109.51Z"/><path id="Trazado_753" data-name="Trazado 753" class="cls-4" d="M128.63,79.72l.55,1.63h1.72a.25.25,0,0,1,.23.24.24.24,0,0,1-.1.18l-1.38,1,.52,1.64a.24.24,0,0,1-.36.26l-1.4-1-1.4,1a.23.23,0,0,1-.35-.26l.52-1.64-1.38-1a.22.22,0,0,1,0-.32.25.25,0,0,1,.18-.1h1.72l.54-1.63a.24.24,0,0,1,.3-.14A.22.22,0,0,1,128.63,79.72Z"/><path id="Trazado_754" data-name="Trazado 754" class="cls-4" d="M128.63,88.26l.55,1.63h1.72a.23.23,0,0,1,.23.24.27.27,0,0,1-.1.18l-1.38,1,.52,1.64a.25.25,0,0,1-.16.29.34.34,0,0,1-.2,0l-1.4-1-1.4,1a.23.23,0,0,1-.32-.07.22.22,0,0,1,0-.19l.52-1.64-1.38-1a.23.23,0,0,1,0-.33.21.21,0,0,1,.18-.09h1.72l.54-1.63a.24.24,0,0,1,.3-.15A.23.23,0,0,1,128.63,88.26Z"/><path id="Trazado_755" data-name="Trazado 755" class="cls-4" d="M128.63,96.79l.55,1.63h1.72a.24.24,0,0,1,.23.24.25.25,0,0,1-.1.18l-1.38,1,.52,1.64a.25.25,0,0,1-.16.29.24.24,0,0,1-.2,0l-1.4-1-1.4,1a.23.23,0,0,1-.32-.07.21.21,0,0,1,0-.19l.52-1.64-1.38-1a.23.23,0,0,1,0-.33.24.24,0,0,1,.18-.09h1.72l.54-1.63a.23.23,0,0,1,.3-.14A.2.2,0,0,1,128.63,96.79Z"/><path id="Trazado_756" data-name="Trazado 756" class="cls-4" d="M128.63,105.33l.55,1.63h1.72a.24.24,0,0,1,.23.24.25.25,0,0,1-.1.18l-1.38,1,.52,1.64a.25.25,0,0,1-.16.29.24.24,0,0,1-.2,0l-1.4-1-1.4,1a.23.23,0,0,1-.32-.07.21.21,0,0,1,0-.19l.52-1.64-1.38-1a.22.22,0,0,1,0-.32.22.22,0,0,1,.18-.1h1.72l.54-1.63a.23.23,0,0,1,.3-.14A.2.2,0,0,1,128.63,105.33Z"/><path id="Trazado_757" data-name="Trazado 757" class="cls-4" d="M128.63,113.86l.55,1.64h1.72a.23.23,0,0,1,.23.23.24.24,0,0,1-.1.18l-1.38,1,.52,1.64a.24.24,0,0,1-.36.26l-1.4-1-1.4,1a.23.23,0,0,1-.32-.06.24.24,0,0,1,0-.2l.52-1.64-1.38-1a.22.22,0,0,1,0-.32.21.21,0,0,1,.18-.09h1.72l.54-1.64a.24.24,0,0,1,.3-.14A.22.22,0,0,1,128.63,113.86Z"/></g></g><path id="Rectángulo_257" data-name="Rectángulo 257" class="cls-16" d="M101.14,73.21h0a35.38,35.38,0,0,1,35.38,35.38v56.29a35.38,35.38,0,0,1-35.38,35.38h0a35.38,35.38,0,0,1-35.38-35.38V108.59A35.38,35.38,0,0,1,101.14,73.21Z"/></g></g></g></g><path id="Trazado_758" data-name="Trazado 758" class="cls-22" d="M116,146.73v-.66a13.65,13.65,0,0,0-9.56-13v-5.41H96.83v5.41a13.63,13.63,0,0,0-2,25.2l9.33,4.67a4.08,4.08,0,0,1-1.83,7.73h-1.39a4.08,4.08,0,0,1-4.08-4.08v-.67H87.31v.67a13.65,13.65,0,0,0,9.55,13V185h9.56v-5.46a13.63,13.63,0,0,0,2-25.2l-9.33-4.67a4.08,4.08,0,0,1,1.82-7.73h1.4a4.08,4.08,0,0,1,4.08,4.08v.67Z"/><path id="Trazado_759" data-name="Trazado 759" class="cls-26" d="M33.91,171.91l6.44-6.45v-29A9.68,9.68,0,0,1,50,126.77H62.92v12.89L71,131.6a6.84,6.84,0,0,1,9.9,9.45l-.22.23L66.15,155.79a18.23,18.23,0,0,1,0,25.78h0L50,197.7Z"/><path id="Trazado_760" data-name="Trazado 760" class="cls-27" d="M56.46,141.56l1.88-1.9a3.24,3.24,0,0,1,4.56,0h0a3.24,3.24,0,0,1,0,4.56L61,146.11a3.23,3.23,0,0,1-4.55,0h0A3.21,3.21,0,0,1,56.46,141.56Z"/><path id="Rectangle-path-3" class="cls-28" d="M14.67,173.65h0A17.48,17.48,0,0,1,38.8,179l5.64,8.85A17.48,17.48,0,0,1,39.09,212h0A17.47,17.47,0,0,1,15,206.63l-5.64-8.84A17.49,17.49,0,0,1,14.67,173.65Z"/><path id="Shape-8" class="cls-29" d="M28.64,202.07l-1.88-2.95a3.5,3.5,0,0,1,5.9-3.76l1.88,2.95a3.5,3.5,0,1,1-5.9,3.76Z"/><path id="Trazado_761" data-name="Trazado 761" class="cls-30" d="M196.34,112.27l-10-38a1.47,1.47,0,0,0-2.54-.59l-8.72,10c-17.73-14.17-41.81-5.33-52.74,6.76l0,.06a1.46,1.46,0,0,0,.14,2.07h0a1.48,1.48,0,0,0,2.07-.13l.06-.07c2.71-2.88,25.62-5.61,38.91,4.67l-8.66,10a1.48,1.48,0,0,0,.14,2.08,1.52,1.52,0,0,0,.8.35l39,4.57a1.49,1.49,0,0,0,1.6-1.84Z"/></g></svg>