<svg id="Layer_1" data-name="Layer 1" xmlns="http://www.w3.org/2000/svg" xmlns:xlink="http://www.w3.org/1999/xlink" viewBox="0 0 170.08 170.08"><defs><style>.cls-1{fill:none;}.cls-2{fill:#fff;}.cls-3{fill:#d80361;}.cls-4{clip-path:url(#clip-path);}.cls-5{fill:#fdd7b2;}.cls-6{fill:#eabe96;}.cls-7{fill:#50b5e7;}.cls-8{fill:#299dd8;}.cls-9{fill:#915a41;}.cls-10{fill:#573722;}.cls-11{isolation:isolate;}.cls-12{fill:#4fbfd7;}</style><clipPath id="clip-path"><rect class="cls-1" x="59.47" y="35.47" width="51.8" height="95.79"/></clipPath></defs><g id="Secure-3"><rect id="Rect치ngulo_100-3" data-name="Rect치ngulo 100-3" class="cls-2" x="8.91" y="12.6" width="152.26" height="144.87" rx="30"/><g id="Grupo_1239-3" data-name="Grupo 1239-3"><rect id="Rect치ngulo_124-3" data-name="Rect치ngulo 124-3" class="cls-3" x="107.31" y="25.02" width="39.36" height="22.25" rx="11.12"/><circle id="Elipse_54-11" data-name="Elipse 54-11" class="cls-2" cx="135.55" cy="36.14" r="5.99"/></g></g><g id="Hijo_3" data-name="Hijo 3"><g id="Grupo_787-3" data-name="Grupo 787-3"><g class="cls-4"><g id="Grupo_724-3" data-name="Grupo 724-3"><path id="Trazado_142-3" data-name="Trazado 142-3" class="cls-5" d="M90.48,82.63V77.28H80.28v5.35a.8.8,0,0,1-.82.77h-7v18.46h25.9V83.4h-7a.79.79,0,0,1-.82-.77"/><path id="Trazado_143-3" data-name="Trazado 143-3" class="cls-6" d="M98.4,83.4h-7a.8.8,0,0,1-.82-.77V77.28H85.22v24.58H98.4Z"/><path id="Trazado_144-3" data-name="Trazado 144-3" class="cls-5" d="M68.42,62.22a3.86,3.86,0,0,1,.44,7.71h-.44A3.86,3.86,0,0,1,68,62.22h.42"/><path id="Trazado_145-3" data-name="Trazado 145-3" class="cls-6" d="M101.47,62.22a3.86,3.86,0,1,1-4.08,3.86,4,4,0,0,1,4.08-3.86"/><path id="Trazado_146-3" data-name="Trazado 146-3" class="cls-5" d="M85.4,82.13h-.92c-8.5,0-15.39-6.52-15.39-14.55V54.3c0-8,6.89-14.55,15.39-14.55h.92c8.5,0,15.38,6.52,15.38,14.55V67.58c0,8-6.89,14.55-15.38,14.55"/><path id="Trazado_147-3" data-name="Trazado 147-3" class="cls-5" d="M85.4,39.75h-.26V82.13h.26c8.5,0,15.39-6.52,15.39-14.55V54.3c0-8-6.89-14.55-15.39-14.55"/><path id="Trazado_148-3" data-name="Trazado 148-3" class="cls-7" d="M99.44,83.4H94c0,4.51.12,8.81-8.78,8.81s-8.49-4.3-8.49-8.81H71.31c-6.54,0-11.84,5-11.84,11.19v31.76a70.73,70.73,0,0,0,51.8,0V94.59c0-6.18-5.3-11.19-11.83-11.19"/><path id="Trazado_149-3" data-name="Trazado 149-3" class="cls-8" d="M99.44,83.4H94c0,4.51.08,8.81-8.78,8.81v39.05h.15a70.07,70.07,0,0,0,25.9-4.92V94.59c0-6.18-5.3-11.19-11.84-11.19"/><path id="Trazado_150-3" data-name="Trazado 150-3" class="cls-9" d="M100.3,42.7a18.24,18.24,0,0,0-14.69-7.23H84.54c-9.9,0-17.93,7.59-17.93,17v1.31l-.26,5H69l.26-.08h0c8-.77,15.85-2.25,22.73-5.5a40.39,40.39,0,0,0,8.5,7l.53,0h3.07l-.52-3.5V52.43a16.2,16.2,0,0,0-3.25-9.73"/><path id="Trazado_151-3" data-name="Trazado 151-3" class="cls-10" d="M100.3,42.7a18.27,18.27,0,0,0-14.69-7.23h-.12V55.66A47.07,47.07,0,0,0,92,53.17a40.13,40.13,0,0,0,8.5,7l.53,0h3.07l-.52-3.5V52.43a16.26,16.26,0,0,0-3.25-9.73"/></g></g></g><g id="HIJO_3-2" data-name="HIJO 3-2" class="cls-11"><g class="cls-11"><path class="cls-12" d="M73.07,148.28v-3.76H69.46v3.76h-2.1v-9h2.1v3.48h3.61V139.3h2.1v9Z"/><path class="cls-12" d="M76.81,148.28v-9h2.11v9Z"/><path class="cls-12" d="M80.46,150.78a4.4,4.4,0,0,1-1.34-.19L79.2,149a1.92,1.92,0,0,0,.7.12c.51,0,.65-.39.65-1V139.3h2.1v8.79C82.65,149.57,82.13,150.78,80.46,150.78Z"/><path class="cls-12" d="M88.59,148.43a4.64,4.64,0,1,1,4.76-4.63A4.47,4.47,0,0,1,88.59,148.43Zm0-7.47a2.81,2.81,0,1,0,2.62,2.79A2.58,2.58,0,0,0,88.59,141Z"/><path class="cls-12" d="M100.18,148.42a4,4,0,0,1-3.27-1.5l1-1.24a3.33,3.33,0,0,0,2.2,1.11c.88,0,1.57-.45,1.57-1.26s-.63-1.21-1.43-1.21h-.79v-1.47h.79c.7,0,1.19-.35,1.19-1s-.58-1.05-1.3-1.05a3.38,3.38,0,0,0-2.14.87l-.78-1.33a4.27,4.27,0,0,1,3.09-1.12c1.63,0,3.12.89,3.12,2.4a2,2,0,0,1-1.28,2v0a2.11,2.11,0,0,1,1.57,2.08C103.68,147.44,102,148.42,100.18,148.42Z"/></g></g></g></svg>