<svg id="Layer_1" data-name="Layer 1" xmlns="http://www.w3.org/2000/svg" xmlns:xlink="http://www.w3.org/1999/xlink" viewBox="0 0 170.08 170.08"><defs><style>.cls-1{fill:none;}.cls-2{fill:#fff;}.cls-3{fill:#706f6f;}.cls-4{clip-path:url(#clip-path);}.cls-5{fill:#fdd7b2;}.cls-6{fill:#eabe96;}.cls-7{fill:#50b5e7;}.cls-8{fill:#299dd8;}.cls-9{fill:#915a41;}.cls-10{fill:#573722;}.cls-11{isolation:isolate;}.cls-12{fill:#4fbfd7;}</style><clipPath id="clip-path"><rect class="cls-1" x="59.24" y="35.47" width="51.8" height="95.79"/></clipPath></defs><rect id="Rect치ngulo_100" data-name="Rect치ngulo 100" class="cls-2" x="8.91" y="12.6" width="152.26" height="144.87" rx="30"/><g id="Grupo_1239" data-name="Grupo 1239"><rect id="Rect치ngulo_124" data-name="Rect치ngulo 124" class="cls-3" x="105.31" y="23.16" width="41.65" height="23.54" rx="11.77"/><circle id="Elipse_54-9" data-name="Elipse 54-9" class="cls-2" cx="117.08" cy="34.94" r="6.34"/></g><g class="cls-4"><g id="Grupo_724" data-name="Grupo 724"><path id="Trazado_142" data-name="Trazado 142" class="cls-5" d="M90.24,82.63V77.28H80v5.35a.79.79,0,0,1-.82.77h-7v18.46h25.9V83.4h-7a.8.8,0,0,1-.82-.77"/><path id="Trazado_143" data-name="Trazado 143" class="cls-6" d="M98.17,83.4h-7a.79.79,0,0,1-.82-.77V77.28H85v24.58H98.17Z"/><path id="Trazado_144" data-name="Trazado 144" class="cls-5" d="M68.18,62.22a3.86,3.86,0,0,1,.45,7.71h-.45a3.86,3.86,0,0,1-.41-7.71h.41"/><path id="Trazado_145" data-name="Trazado 145" class="cls-6" d="M101.23,62.22a3.86,3.86,0,1,1-4.08,3.86,4,4,0,0,1,4.08-3.86"/><path id="Trazado_146" data-name="Trazado 146" class="cls-5" d="M85.17,82.13h-.93c-8.5,0-15.39-6.52-15.39-14.55V54.3c0-8,6.9-14.55,15.39-14.55h.92c8.5,0,15.39,6.52,15.39,14.55V67.58c0,8-6.89,14.55-15.39,14.55"/><path id="Trazado_147" data-name="Trazado 147" class="cls-5" d="M85.17,39.75H84.9V82.13h.26c8.5,0,15.39-6.52,15.39-14.55V54.3c0-8-6.89-14.55-15.39-14.55"/><path id="Trazado_148" data-name="Trazado 148" class="cls-7" d="M99.2,83.4H93.77c0,4.51.12,8.81-8.78,8.81s-8.48-4.3-8.48-8.81H71.08c-6.54,0-11.84,5-11.84,11.19v31.76a70.73,70.73,0,0,0,51.8,0V94.59c0-6.18-5.3-11.19-11.84-11.19"/><path id="Trazado_149" data-name="Trazado 149" class="cls-8" d="M99.2,83.4H93.77c0,4.51.08,8.81-8.78,8.81v39.05h.15a70,70,0,0,0,25.9-4.92V94.59c0-6.18-5.3-11.19-11.84-11.19"/><path id="Trazado_150" data-name="Trazado 150" class="cls-9" d="M100.07,42.7a18.25,18.25,0,0,0-14.69-7.23H84.31c-9.9,0-17.93,7.59-17.93,17v1.31l-.27,5h2.64l.26-.08h0c8-.77,15.84-2.25,22.73-5.5a40.39,40.39,0,0,0,8.5,7l.52,0h3.08l-.52-3.5V52.43a16.33,16.33,0,0,0-3.25-9.73"/><path id="Trazado_151" data-name="Trazado 151" class="cls-10" d="M100.06,42.7a18.25,18.25,0,0,0-14.68-7.23h-.13V55.66a47.19,47.19,0,0,0,6.49-2.49,40.13,40.13,0,0,0,8.5,7l.52,0h3.08l-.52-3.5V52.43a16.27,16.27,0,0,0-3.26-9.73"/></g></g><g class="cls-11"><path class="cls-12" d="M73.86,146.56v-3.75h-3.6v3.75H68.15v-9h2.11v3.47h3.6v-3.47H76v9Z"/><path class="cls-12" d="M77.6,146.56v-9h2.11v9Z"/><path class="cls-12" d="M81.25,149.07a4.25,4.25,0,0,1-1.33-.19l.07-1.55a2.17,2.17,0,0,0,.71.12c.5,0,.65-.39.65-1v-8.82h2.09v8.79C83.44,147.86,82.92,149.07,81.25,149.07Z"/><path class="cls-12" d="M89.38,146.72a4.64,4.64,0,1,1,4.76-4.63A4.47,4.47,0,0,1,89.38,146.72Zm0-7.48A2.81,2.81,0,1,0,92,142,2.59,2.59,0,0,0,89.38,139.24Z"/><path class="cls-12" d="M99.53,146.56V139H97.91v-1.45h3.65v9Z"/></g></svg>