<svg id="Layer_1" data-name="Layer 1" xmlns="http://www.w3.org/2000/svg" xmlns:xlink="http://www.w3.org/1999/xlink" viewBox="0 0 170.08 170.08"><defs><style>.cls-1{fill:none;}.cls-2{fill:#fff;}.cls-3{fill:#d80361;}.cls-4{clip-path:url(#clip-path);}.cls-5{fill:#fdd7b2;}.cls-6{fill:#eabe96;}.cls-7{fill:#50b5e7;}.cls-8{fill:#299dd8;}.cls-9{fill:#915a41;}.cls-10{fill:#573722;}.cls-11{isolation:isolate;}.cls-12{fill:#4fbfd7;}</style><clipPath id="clip-path"><rect class="cls-1" x="59.36" y="35.47" width="51.8" height="95.79"/></clipPath></defs><rect id="Rect치ngulo_100-2" data-name="Rect치ngulo 100-2" class="cls-2" x="8.91" y="12.6" width="152.26" height="144.87" rx="30"/><g id="Grupo_1239-2" data-name="Grupo 1239-2"><path id="Rect치ngulo_124-2" data-name="Rect치ngulo 124-2" class="cls-3" d="M121.71,23.47h17.53a11.39,11.39,0,0,1,11.4,11.4h0a11.39,11.39,0,0,1-11.4,11.39H121.71a11.4,11.4,0,0,1-11.4-11.39h0A11.4,11.4,0,0,1,121.71,23.47Z"/><circle id="Elipse_54-10" data-name="Elipse 54-10" class="cls-2" cx="139.24" cy="34.87" r="6.14"/></g><g class="cls-4"><g id="Grupo_724-2" data-name="Grupo 724-2"><path id="Trazado_142-2" data-name="Trazado 142-2" class="cls-5" d="M90.36,82.63V77.28H80.16v5.35a.79.79,0,0,1-.82.77h-7v18.46h25.9V83.4h-7a.8.8,0,0,1-.82-.77"/><path id="Trazado_143-2" data-name="Trazado 143-2" class="cls-6" d="M98.29,83.4h-7a.79.79,0,0,1-.82-.77V77.28H85.1v24.58H98.29Z"/><path id="Trazado_144-2" data-name="Trazado 144-2" class="cls-5" d="M68.3,62.22a3.86,3.86,0,0,1,.45,7.71H68.3a3.86,3.86,0,0,1-.41-7.71h.41"/><path id="Trazado_145-2" data-name="Trazado 145-2" class="cls-6" d="M101.35,62.22a3.86,3.86,0,1,1-4.08,3.86,4,4,0,0,1,4.08-3.86"/><path id="Trazado_146-2" data-name="Trazado 146-2" class="cls-5" d="M85.28,82.13h-.92C75.86,82.13,69,75.61,69,67.58V54.3c0-8,6.9-14.55,15.39-14.55h.92c8.5,0,15.39,6.52,15.39,14.55V67.58c0,8-6.89,14.55-15.39,14.55"/><path id="Trazado_147-2" data-name="Trazado 147-2" class="cls-5" d="M85.28,39.75H85V82.13h.26c8.5,0,15.39-6.52,15.39-14.55V54.3c0-8-6.89-14.55-15.39-14.55"/><path id="Trazado_148-2" data-name="Trazado 148-2" class="cls-7" d="M99.32,83.4H93.89c0,4.51.12,8.81-8.78,8.81s-8.48-4.3-8.48-8.81H71.2c-6.54,0-11.84,5-11.84,11.19v31.76a70.73,70.73,0,0,0,51.8,0V94.59c0-6.18-5.3-11.19-11.84-11.19"/><path id="Trazado_149-2" data-name="Trazado 149-2" class="cls-8" d="M99.32,83.4H93.89c0,4.51.08,8.81-8.78,8.81v39.05h.15a70,70,0,0,0,25.9-4.92V94.59c0-6.18-5.3-11.19-11.84-11.19"/><path id="Trazado_150-2" data-name="Trazado 150-2" class="cls-9" d="M100.19,42.7A18.25,18.25,0,0,0,85.5,35.47H84.43c-9.9,0-17.94,7.59-17.94,17v1.31l-.26,5h2.64l.26-.08h0c8-.77,15.84-2.25,22.73-5.5a40.39,40.39,0,0,0,8.5,7l.52,0H104l-.53-3.5V52.43a16.25,16.25,0,0,0-3.24-9.73"/><path id="Trazado_151-2" data-name="Trazado 151-2" class="cls-10" d="M100.18,42.7A18.26,18.26,0,0,0,85.5,35.47h-.13V55.66a47.19,47.19,0,0,0,6.49-2.49,39.64,39.64,0,0,0,8.5,7l.52,0H104l-.53-3.5V52.43a16.2,16.2,0,0,0-3.25-9.73"/></g></g><g class="cls-11"><path class="cls-12" d="M73,146.38v-3.76h-3.6v3.76H67.24v-9h2.11v3.47H73v-3.47h2.1v9Z"/><path class="cls-12" d="M76.69,146.38v-9H78.8v9Z"/><path class="cls-12" d="M80.35,148.89A4.28,4.28,0,0,1,79,148.7l.07-1.55a2.17,2.17,0,0,0,.71.12c.5,0,.65-.39.65-1v-8.82h2.09v8.79C82.53,147.68,82,148.89,80.35,148.89Z"/><path class="cls-12" d="M88.47,146.54a4.64,4.64,0,1,1,4.76-4.63A4.47,4.47,0,0,1,88.47,146.54Zm0-7.48a2.81,2.81,0,1,0,2.63,2.8A2.59,2.59,0,0,0,88.47,139.06Z"/><path class="cls-12" d="M97.17,146.38l-.25-1.32,3-2.75c.85-.76,1.35-1.35,1.35-2.12a1.27,1.27,0,0,0-1.44-1.26,2.91,2.91,0,0,0-2.17,1.21l-.88-1.38a3.84,3.84,0,0,1,3.25-1.48c2,0,3.26,1.08,3.26,2.65a4.26,4.26,0,0,1-1.89,3.15l-1.86,1.68h4.16v1.62Z"/></g></svg>