<svg xmlns="http://www.w3.org/2000/svg" xmlns:xlink="http://www.w3.org/1999/xlink" viewBox="0 0 152.26 155.83"><defs><style>.cls-1{fill:none;}.cls-2{fill:#fff;}.cls-3{fill:#706e6e;}.cls-4{fill:#4fbfd7;}.cls-5{clip-path:url(#clip-path);}.cls-6{fill:#fcd6b1;}.cls-7{fill:#eabe95;}.cls-8{fill:#50b4e7;}.cls-9{fill:#299dd7;}.cls-10{fill:#905a41;}.cls-11{fill:#573722;}</style><clipPath id="clip-path" transform="translate(-9.75 -5.79)"><rect class="cls-1" x="53.61" y="22.73" width="62.85" height="116.22"/></clipPath></defs><g id="pareja_copy" data-name="pareja copy"><path id="Rect치ngulo_260" data-name="Rect치ngulo 260" class="cls-2" d="M39.75,5.79H132c16.57,0,30,14.45,30,32.27v91.29c0,17.82-13.43,32.27-30,32.27H39.75c-16.57,0-30-14.45-30-32.27V38.06C9.75,20.24,23.18,5.79,39.75,5.79Z" transform="translate(-9.75 -5.79)"/><g id="Grupo_1288" data-name="Grupo 1288"><rect id="Rect치ngulo_124-4" data-name="Rect치ngulo 124-4" class="cls-3" x="112.57" y="17.34" width="29.54" height="16.7" rx="8.35"/><circle id="Elipse_54-12" data-name="Elipse 54-12" class="cls-2" cx="120.92" cy="25.68" r="4.5"/></g><path class="cls-4" d="M64.05,143.77h3.12v14H64.05v-5.5H58.49v5.5H55.37v-14h3.12v5.84h5.56Z" transform="translate(-9.75 -5.79)"/><path class="cls-4" d="M70.61,143.77h3.12v14H70.61Z" transform="translate(-9.75 -5.79)"/><path class="cls-4" d="M77.69,146.45v-2.68H85v9.12a5,5,0,0,1-1.29,3.74,4.56,4.56,0,0,1-3.31,1.24,6,6,0,0,1-4.4-1.94l1.62-2.24a3.61,3.61,0,0,0,2.64,1.36,1.48,1.48,0,0,0,1.13-.51,2.21,2.21,0,0,0,.47-1.53v-6.56Z" transform="translate(-9.75 -5.79)"/><path class="cls-4" d="M100.05,155.82a7.62,7.62,0,0,1-10.44,0,7.32,7.32,0,0,1,0-10.3,7.62,7.62,0,0,1,10.44,0,7.32,7.32,0,0,1,0,10.3ZM99,150.68a4.57,4.57,0,0,0-1.2-3.19,4,4,0,0,0-5.9,0,4.83,4.83,0,0,0,0,6.37,4,4,0,0,0,5.9,0A4.53,4.53,0,0,0,99,150.68Z" transform="translate(-9.75 -5.79)"/><path class="cls-4" d="M109,143.77h5.66v14h-3V146.43H109Z" transform="translate(-9.75 -5.79)"/><g id="Grupo_787" data-name="Grupo 787"><g class="cls-5"><g id="Grupo_724" data-name="Grupo 724"><path id="Trazado_142" data-name="Trazado 142" class="cls-6" d="M91.23,80V73.46H78.85V80a1,1,0,0,1-1,.94H69.33v22.39h31.42V80.89H92.22a1,1,0,0,1-1-.94" transform="translate(-9.75 -5.79)"/><path id="Trazado_143" data-name="Trazado 143" class="cls-7" d="M100.85,80.89H92.32a1,1,0,0,1-1-.94V73.46H84.85v29.82h16Z" transform="translate(-9.75 -5.79)"/><path id="Trazado_144" data-name="Trazado 144" class="cls-6" d="M64.46,55.19A4.68,4.68,0,1,1,65,64.54h-.54a4.68,4.68,0,0,1-.5-9.35h.5" transform="translate(-9.75 -5.79)"/><path id="Trazado_145" data-name="Trazado 145" class="cls-7" d="M104.56,55.19a4.68,4.68,0,1,1-4.94,4.68,4.81,4.81,0,0,1,4.94-4.68" transform="translate(-9.75 -5.79)"/><path id="Trazado_146" data-name="Trazado 146" class="cls-6" d="M85.07,79.34H84c-10.31,0-18.67-7.9-18.67-17.65V45.57c0-9.74,8.36-17.64,18.67-17.64h1.11c10.32,0,18.68,7.9,18.68,17.64V61.69c0,9.75-8.36,17.65-18.68,17.65" transform="translate(-9.75 -5.79)"/><path id="Trazado_147" data-name="Trazado 147" class="cls-6" d="M85.07,27.93h-.32V79.34h.31c10.32,0,18.68-7.9,18.68-17.65V45.57c0-9.74-8.36-17.64-18.68-17.64" transform="translate(-9.75 -5.79)"/><path id="Trazado_148" data-name="Trazado 148" class="cls-8" d="M102.1,80.89H95.52c0,5.46.14,10.68-10.66,10.68s-10.3-5.22-10.3-10.68H68C60,80.89,53.61,87,53.61,94.46V133a85.79,85.79,0,0,0,62.85,0V94.46c0-7.5-6.43-13.57-14.36-13.57" transform="translate(-9.75 -5.79)"/><path id="Trazado_149" data-name="Trazado 149" class="cls-9" d="M102.1,80.89H95.52c0,5.46.09,10.68-10.66,10.68V139H85a85,85,0,0,0,31.43-6V94.46c0-7.5-6.43-13.57-14.37-13.57" transform="translate(-9.75 -5.79)"/><path id="Trazado_150" data-name="Trazado 150" class="cls-10" d="M103.15,31.5a22.13,22.13,0,0,0-17.82-8.77H84c-12,0-21.76,9.21-21.76,20.57v1.59L62,51h3.2l.32-.11h0C75.16,50,84.69,48.16,93,44.21a49.45,49.45,0,0,0,10.32,8.54l.63,0h3.74l-.64-4.24V43.3a19.67,19.67,0,0,0-3.94-11.8" transform="translate(-9.75 -5.79)"/><path id="Trazado_151" data-name="Trazado 151" class="cls-11" d="M103.15,31.5a22.16,22.16,0,0,0-17.82-8.77h-.15v24.5a59.28,59.28,0,0,0,7.86-3,49.45,49.45,0,0,0,10.32,8.54l.63,0h3.74l-.64-4.24V43.3a19.67,19.67,0,0,0-3.94-11.8" transform="translate(-9.75 -5.79)"/></g></g></g></g></svg>