<svg id="Layer_1" data-name="Layer 1" xmlns="http://www.w3.org/2000/svg" xmlns:xlink="http://www.w3.org/1999/xlink" viewBox="0 0 120.22 154.2"><defs><style>.cls-1{fill:none;}.cls-2{fill:#d80361;}.cls-3{fill:#fff;}.cls-4{clip-path:url(#clip-path);}.cls-5{fill:#fdd7b2;}.cls-6{fill:#eabe96;}.cls-7{fill:#f4e3c3;}.cls-8{fill:#b37aad;}.cls-9{fill:#734b6f;}.cls-10{fill:#f0e6f3;}.cls-11{fill:#b0b3b4;}.cls-12{fill:#cfdbe6;}.cls-13{fill:#fab64b;}.cls-14{fill:#6e6e6d;}</style><clipPath id="clip-path" transform="translate(-24.93 -7.94)"><rect class="cls-1" x="24.93" y="31.99" width="74.41" height="130.15"/></clipPath></defs><g id="Componente_43_12" data-name="Componente 43 12"><g id="Componente_42_7" data-name="Componente 42 7"><path id="Rect치ngulo_124-5" data-name="Rect치ngulo 124-5" class="cls-2" d="M100.26,7.94h27.21a17.68,17.68,0,0,1,17.68,17.68h0a17.69,17.69,0,0,1-17.68,17.69H100.26A17.68,17.68,0,0,1,82.58,25.62h0A17.67,17.67,0,0,1,100.26,7.94Z" transform="translate(-24.93 -7.94)"/><circle id="Elipse_54-13" data-name="Elipse 54-13" class="cls-3" cx="102.54" cy="17.68" r="9.52"/></g><g id="Grupo_812" data-name="Grupo 812"><g id="Secure-5"><g id="Grupo_726" data-name="Grupo 726"><g class="cls-4"><g id="Grupo_726-2" data-name="Grupo 726-2"><path id="Trazado_171" data-name="Trazado 171" class="cls-5" d="M70.09,89.68V82H55.43v7.68a1.15,1.15,0,0,1-1.18,1.11H44.15v26.5H81.36V90.79H71.26a1.15,1.15,0,0,1-1.18-1.11h0" transform="translate(-24.93 -7.94)"/><path id="Trazado_172" data-name="Trazado 172" class="cls-6" d="M81.36,90.79H71.26a1.14,1.14,0,0,1-1.17-1.11V82h-8v35.29H81.36Z" transform="translate(-24.93 -7.94)"/><path id="Trazado_173" data-name="Trazado 173" class="cls-7" d="M49.73,90.79H47l10.72,36.32h4.35V99.26c-6.58-.13-12.36-2.21-12.36-8.48" transform="translate(-24.93 -7.94)"/><path id="Trazado_174" data-name="Trazado 174" class="cls-5" d="M78.5,90.79h-4c0,6.47-4.93,8.48-11.78,8.48h-.67v27.84h5.71Z" transform="translate(-24.93 -7.94)"/><path id="Trazado_175" data-name="Trazado 175" class="cls-8" d="M49.73,90.79h-7.8a16.56,16.56,0,0,0-17,16.08V155.2c10.92,6.07,23.6,6.82,37.15,6.93V99.26c-6.57-.13-12.35-2.21-12.35-8.47" transform="translate(-24.93 -7.94)"/><path id="Trazado_176" data-name="Trazado 176" class="cls-9" d="M82.33,90.79h-7.8c0,6.47-4.92,8.48-11.77,8.48h-.68v62.86h.68c13.28,0,25.76-.52,36.58-6.25v-49a16.57,16.57,0,0,0-17-16.07" transform="translate(-24.93 -7.94)"/><path id="Trazado_177" data-name="Trazado 177" class="cls-10" d="M37.83,108.78a10.81,10.81,0,0,0-11.08,10.48h5.54a5.55,5.55,0,0,1,11.08,0V161c1.63.25,3.67.53,5.54.62V119.26a10.81,10.81,0,0,0-11.08-10.48" transform="translate(-24.93 -7.94)"/><path id="Trazado_178" data-name="Trazado 178" class="cls-11" d="M37.81,53.05,32.15,81.89a9.26,9.26,0,0,0,7.53,10.7,9.45,9.45,0,0,0,1.84.14H63V53.26Z" transform="translate(-24.93 -7.94)"/><path id="Trazado_179" data-name="Trazado 179" class="cls-11" d="M93.21,81.74,86.64,53.45,63,53.25V92.72h20.9a9.25,9.25,0,0,0,9.5-9,8.87,8.87,0,0,0-.16-2" transform="translate(-24.93 -7.94)"/><path id="Trazado_180" data-name="Trazado 180" class="cls-5" d="M38.44,67.07a5.54,5.54,0,0,1,.61,11.07c-.21,0-.41,0-.61,0a5.54,5.54,0,0,1-.6-11.07,3,3,0,0,1,.6,0" transform="translate(-24.93 -7.94)"/><path id="Trazado_181" data-name="Trazado 181" class="cls-6" d="M85.92,67.07a5.54,5.54,0,1,1-5.86,5.53,5.7,5.7,0,0,1,5.86-5.53" transform="translate(-24.93 -7.94)"/><path id="Trazado_182" data-name="Trazado 182" class="cls-5" d="M62.84,95.66H61.52a21.54,21.54,0,0,1-22.11-20.9V55.69A21.54,21.54,0,0,1,61.52,34.78h1.32A21.54,21.54,0,0,1,85,55.68v19.1A21.53,21.53,0,0,1,62.84,95.67" transform="translate(-24.93 -7.94)"/><path id="Trazado_183" data-name="Trazado 183" class="cls-5" d="M62.84,34.79h-.71V95.66h.71A21.53,21.53,0,0,0,85,74.77V55.69a21.54,21.54,0,0,0-22.11-20.9" transform="translate(-24.93 -7.94)"/><path id="Trazado_184" data-name="Trazado 184" class="cls-5" d="M73.38,56.09a1.24,1.24,0,0,1-.79-.27,16.28,16.28,0,0,0-19.57,0,1.3,1.3,0,0,1-1.77-.18A1.15,1.15,0,0,1,51.36,54l.07-.06a18.9,18.9,0,0,1,22.74,0,1.14,1.14,0,0,1,.24,1.6l-.06.07a1.22,1.22,0,0,1-1,.44" transform="translate(-24.93 -7.94)"/><path id="Trazado_185" data-name="Trazado 185" class="cls-5" d="M75.64,51.24a1.29,1.29,0,0,1-.79-.28,20,20,0,0,0-24.1,0A1.3,1.3,0,0,1,49,50.79a1.15,1.15,0,0,1,.12-1.62l.07-.06a22.7,22.7,0,0,1,27.27,0,1.16,1.16,0,0,1,.24,1.61l-.06.07a1.29,1.29,0,0,1-1,.44" transform="translate(-24.93 -7.94)"/><path id="Trazado_186" data-name="Trazado 186" class="cls-6" d="M74.17,54A18.73,18.73,0,0,0,62.8,50.17h-.67v2.39c.23,0,.45,0,.67,0a16,16,0,0,1,9.8,3.27,1.3,1.3,0,0,0,1.77-.18A1.14,1.14,0,0,0,74.25,54L74.18,54" transform="translate(-24.93 -7.94)"/><path id="Trazado_187" data-name="Trazado 187" class="cls-6" d="M76.44,49.12A22.55,22.55,0,0,0,62.8,44.56h-.67v2.38h.67a19.69,19.69,0,0,1,12,4,1.29,1.29,0,0,0,.8.27,1.25,1.25,0,0,0,1-.44,1.14,1.14,0,0,0-.12-1.61l-.07-.06" transform="translate(-24.93 -7.94)"/><path id="Trazado_188" data-name="Trazado 188" class="cls-12" d="M82.55,41.66A24.41,24.41,0,0,0,62.9,32h-.77V65.1H82.78v7.31H86.9V54.68a21.76,21.76,0,0,0-4.36-13" transform="translate(-24.93 -7.94)"/><path id="Trazado_189" data-name="Trazado 189" class="cls-11" d="M41,72.41H37.46V54.68A23.37,23.37,0,0,1,61.46,32h1.43a24.45,24.45,0,0,1,19.66,9.67,21.82,21.82,0,0,1,4.35,13V72.41H82.77V65.1H41Z" transform="translate(-24.93 -7.94)"/><path id="Trazado_190" data-name="Trazado 190" class="cls-13" d="M73.53,67.18a7.66,7.66,0,0,0-7.76,6.66H59.84a7.43,7.43,0,1,0-.07,1.9h6.08a7.69,7.69,0,0,0,7.69,6.2,7.39,7.39,0,1,0,.85-14.76c-.28,0-.56,0-.85,0M52.08,80a5.48,5.48,0,1,1,5.79-5.47A5.63,5.63,0,0,1,52.08,80m21.46,0a5.48,5.48,0,1,1,5.8-5.47A5.65,5.65,0,0,1,73.54,80" transform="translate(-24.93 -7.94)"/><path id="Trazado_191" data-name="Trazado 191" class="cls-13" d="M73.53,67.18a7.66,7.66,0,0,0-7.75,6.66h-3.4v1.9h3.46a7.69,7.69,0,0,0,7.69,6.2,7.39,7.39,0,1,0,.86-14.76c-.29,0-.57,0-.86,0m0,12.85a5.48,5.48,0,1,1,5.8-5.47A5.65,5.65,0,0,1,73.53,80" transform="translate(-24.93 -7.94)"/></g></g></g></g><g id="Componente_42_9" data-name="Componente 42 9"><path id="Rect치ngulo_124-6" data-name="Rect치ngulo 124-6" class="cls-14" d="M127.47,7.94H100.26A17.67,17.67,0,0,0,82.58,25.62h0a17.68,17.68,0,0,0,17.68,17.69h27.21a17.69,17.69,0,0,0,17.68-17.69h0A17.68,17.68,0,0,0,127.47,7.94Z" transform="translate(-24.93 -7.94)"/><circle id="Elipse_54-14" data-name="Elipse 54-14" class="cls-3" cx="75.33" cy="17.68" r="9.52"/></g></g></g></svg>