<svg id="Layer_1" data-name="Layer 1" xmlns="http://www.w3.org/2000/svg" xmlns:xlink="http://www.w3.org/1999/xlink" viewBox="0 0 170.08 170.08"><defs><style>.cls-1{fill:none;}.cls-2{isolation:isolate;}.cls-3{fill:#4fbfd7;}.cls-4{fill:#d80361;}.cls-5{fill:#fff;}.cls-6{fill:#706f6f;}.cls-7{clip-path:url(#clip-path);}.cls-8{fill:#fdd7b2;}.cls-9{fill:#eabe96;}.cls-10{fill:#f4e3c3;}.cls-11{fill:#b37aad;}.cls-12{fill:#734b6f;}.cls-13{fill:#f0e6f3;}.cls-14{fill:#b0b3b4;}.cls-15{fill:#cfdbe6;}.cls-16{fill:#fab64b;}</style><clipPath id="clip-path"><rect class="cls-1" x="58.69" y="40.7" width="51.8" height="90.6"/></clipPath></defs><g id="MADRE" class="cls-2"><g class="cls-2"><path class="cls-3" d="M65.61,143.55l-.19-3.29h0l-1,3.29h-.9l-1-3.29h0l-.18,3.29H61.12l.36-4.83h1.43l1,3.18h0l1-3.18h1.44l.35,4.83Z"/><path class="cls-3" d="M70.54,143.55l-.35-1H68.47l-.34,1H67l1.82-4.84H70l1.82,4.84ZM69.33,140l-.6,1.73h1.2Z"/><path class="cls-3" d="M73.82,143.55H72.18v-4.83h1.64a2.43,2.43,0,1,1,0,4.83Zm.06-3.9h-.57v2.94h.57a1.47,1.47,0,0,0,0-2.94Z"/><path class="cls-3" d="M79.61,143.55l-1-1.85h-.36v1.85H77.1v-4.83h1.74c.92,0,1.81.39,1.81,1.45a1.35,1.35,0,0,1-1,1.38l1.22,2Zm-.93-4h-.45v1.24h.45c.42,0,.82-.12.82-.62S79.1,139.59,78.68,139.59Z"/><path class="cls-3" d="M81.3,143.55v-4.83h3.13v.9h-2v1h1.89v.9H82.43v1.12h2.06v.92Z"/></g></g><g id="Grupo_1242" data-name="Grupo 1242"><rect id="Rectángulo_124-5" data-name="Rectángulo 124-5" class="cls-4" x="99.22" y="23.96" width="43.56" height="24.62" rx="12.31"/><circle id="Elipse_54-13" data-name="Elipse 54-13" class="cls-5" cx="130.47" cy="36.27" r="6.63"/></g><rect id="Rectángulo_100-4" data-name="Rectángulo 100-4" class="cls-5" x="8.91" y="12.6" width="152.26" height="144.87" rx="30"/><rect id="Rectángulo_124-6" data-name="Rectángulo 124-6" class="cls-6" x="110.97" y="23.96" width="40.81" height="23.07" rx="11.53"/><circle id="Elipse_54-14" data-name="Elipse 54-14" class="cls-5" cx="122.51" cy="35.5" r="6.21"/><g id="Madre-2"><g id="Grupo_726" data-name="Grupo 726"><g class="cls-7"><g id="Grupo_726-2" data-name="Grupo 726-2"><path id="Trazado_171" data-name="Trazado 171" class="cls-8" d="M90.12,80.86V75.51H79.92v5.35a.79.79,0,0,1-.82.77h-7v18.46H98V81.63h-7a.8.8,0,0,1-.82-.77"/><path id="Trazado_172" data-name="Trazado 172" class="cls-9" d="M98,81.63h-7a.8.8,0,0,1-.82-.77V75.51H84.55v24.57H98Z"/><path id="Trazado_173" data-name="Trazado 173" class="cls-10" d="M76,81.63h-1.9l7.47,25.29h3V87.53C80,87.44,76,86,76,81.63"/><path id="Trazado_174" data-name="Trazado 174" class="cls-8" d="M96,81.63H93.22c0,4.51-3.43,5.9-8.2,5.9h-.47v19.39h4Z"/><path id="Trazado_175" data-name="Trazado 175" class="cls-11" d="M76,81.63H70.53c-6.54,0-11.84,5-11.84,11.19v33.65c7.6,4.22,16.43,4.75,25.86,4.83V87.53C80,87.44,76,86,76,81.63"/><path id="Trazado_176" data-name="Trazado 176" class="cls-12" d="M98.65,81.63H93.22c0,4.51-3.43,5.9-8.2,5.9h-.47V131.3H85c9.25,0,17.94-.37,25.46-4.36V92.82c0-6.18-5.3-11.19-11.83-11.19"/><path id="Trazado_177" data-name="Trazado 177" class="cls-13" d="M67.67,94.16A7.51,7.51,0,0,0,60,101.45h3.85a3.87,3.87,0,0,1,7.72,0v29.07c1.13.17,2.55.37,3.85.43v-29.5a7.51,7.51,0,0,0-7.71-7.29"/><path id="Trazado_178" data-name="Trazado 178" class="cls-14" d="M67.66,55.36,63.72,75.44A6.44,6.44,0,0,0,69,82.89a6.73,6.73,0,0,0,1.27.09H85.17V55.51Z"/><path id="Trazado_179" data-name="Trazado 179" class="cls-14" d="M106.22,75.33l-4.58-19.68-16.47-.14V83H99.72a6.41,6.41,0,0,0,6.5-7.65"/><path id="Trazado_180" data-name="Trazado 180" class="cls-8" d="M68.09,65.12a3.86,3.86,0,1,1,.43,7.71h-.43a3.86,3.86,0,1,1-.43-7.71,3.08,3.08,0,0,1,.43,0"/><path id="Trazado_181" data-name="Trazado 181" class="cls-9" d="M101.14,65.12A3.86,3.86,0,1,1,97.07,69a4,4,0,0,1,4.07-3.85"/><path id="Trazado_182" data-name="Trazado 182" class="cls-8" d="M85.08,85h-.92c-8.5,0-15.39-6.51-15.39-14.54V57.2c0-8,6.89-14.55,15.39-14.55h.92c8.5,0,15.39,6.51,15.39,14.54V70.47c0,8-6.89,14.55-15.39,14.55"/><path id="Trazado_183" data-name="Trazado 183" class="cls-8" d="M85.08,42.65h-.49V85h.49c8.5,0,15.39-6.51,15.39-14.54V57.2c0-8-6.89-14.55-15.39-14.55"/><path id="Trazado_184" data-name="Trazado 184" class="cls-8" d="M92.41,57.48a.86.86,0,0,1-.55-.19,11.34,11.34,0,0,0-13.62,0A.9.9,0,0,1,77,57.17.8.8,0,0,1,77.1,56l0,0A13.16,13.16,0,0,1,93,56a.8.8,0,0,1,.16,1.12l0,0a.91.91,0,0,1-.69.31"/><path id="Trazado_185" data-name="Trazado 185" class="cls-8" d="M94,54.1a.92.92,0,0,1-.55-.19,13.94,13.94,0,0,0-16.77,0,.91.91,0,0,1-1.24-.12.81.81,0,0,1,.09-1.13l0,0a15.78,15.78,0,0,1,19,0,.79.79,0,0,1,.17,1.11.1.1,0,0,1,0,0,.89.89,0,0,1-.68.31"/><path id="Trazado_186" data-name="Trazado 186" class="cls-9" d="M93,56a13.15,13.15,0,0,0-7.92-2.65h-.46V55l.46,0a11,11,0,0,1,6.81,2.28.93.93,0,0,0,1.24-.13A.81.81,0,0,0,93,56l0,0"/><path id="Trazado_187" data-name="Trazado 187" class="cls-9" d="M94.54,52.63a15.69,15.69,0,0,0-9.49-3.18h-.46v1.66h.46a13.67,13.67,0,0,1,8.39,2.8.91.91,0,0,0,.55.18.89.89,0,0,0,.68-.31.79.79,0,0,0-.08-1.12l0,0"/><path id="Trazado_188" data-name="Trazado 188" class="cls-15" d="M98.8,47.43A17,17,0,0,0,85.12,40.7h-.53v23H99v5.09h2.87V56.49a15.21,15.21,0,0,0-3-9.06"/><path id="Trazado_189" data-name="Trazado 189" class="cls-14" d="M69.87,68.84H67.41V56.49c0-8.72,7.48-15.79,16.71-15.79h1A17,17,0,0,1,98.8,47.43a15.21,15.21,0,0,1,3,9.07V68.84H99V63.75H69.87v5.09Z"/><path id="Trazado_190" data-name="Trazado 190" class="cls-16" d="M92.52,65.2a5.33,5.33,0,0,0-5.4,4.63H83a5.34,5.34,0,0,0-5.41-4.63A5.14,5.14,0,0,0,77,75.47a5.8,5.8,0,0,0,.59,0,5.35,5.35,0,0,0,5.36-4.31h4.23a5.35,5.35,0,0,0,5.35,4.31,5.14,5.14,0,1,0,.59-10.27,5.8,5.8,0,0,0-.59,0m-14.94,9a3.82,3.82,0,1,1,4-3.81,3.93,3.93,0,0,1-4,3.81m14.94,0a3.82,3.82,0,1,1,4-3.81,3.93,3.93,0,0,1-4,3.81"/><path id="Trazado_191" data-name="Trazado 191" class="cls-16" d="M92.52,65.2a5.33,5.33,0,0,0-5.4,4.63H84.76v1.33h2.41a5.35,5.35,0,0,0,5.35,4.31,5.14,5.14,0,1,0,.59-10.27,5.8,5.8,0,0,0-.59,0m0,9a3.82,3.82,0,1,1,4-3.81,3.93,3.93,0,0,1-4,3.81"/></g></g></g><g id="MADRE-3" class="cls-2"><g class="cls-2"><path class="cls-3" d="M71.32,145.78,71,139.67h0L69,145.78H67.35l-1.93-6.11h0l-.33,6.11H63l.68-9h2.65l1.87,5.9h0l1.85-5.9h2.66l.66,9Z"/><path class="cls-3" d="M80.47,145.78,79.83,144h-3.2L76,145.78H73.81l3.38-9h2.19l3.38,9Zm-2.24-6.67-1.12,3.23h2.24Z"/><path class="cls-3" d="M86.57,145.78h-3v-9h3c2.82,0,4.91,1.5,4.91,4.49S89.4,145.78,86.57,145.78Zm.11-7.23H85.62V144h1.06a2.73,2.73,0,0,0,0-5.45Z"/><path class="cls-3" d="M97.32,145.78l-1.89-3.43h-.66v3.43H92.66v-9h3.23c1.71,0,3.35.73,3.35,2.69a2.52,2.52,0,0,1-1.75,2.58l2.27,3.7Zm-1.73-7.34h-.83v2.3h.83c.78,0,1.53-.24,1.53-1.16S96.37,138.44,95.59,138.44Z"/><path class="cls-3" d="M100.46,145.78v-9h5.81v1.68h-3.71v1.83h3.51V142h-3.51v2.08h3.83v1.7Z"/></g></g></g></svg>