<svg xmlns="http://www.w3.org/2000/svg" xmlns:xlink="http://www.w3.org/1999/xlink" viewBox="0 0 152.26 155.83"><defs><style>.cls-1{fill:none;}.cls-2{fill:#fff;}.cls-3{fill:#706e6e;}.cls-4{fill:#4fbfd7;}.cls-5{clip-path:url(#clip-path);}.cls-6{fill:#fcd6b1;}.cls-7{fill:#eabe95;}.cls-8{fill:#f3e3c2;}.cls-9{fill:#b37aac;}.cls-10{fill:#734b6f;}.cls-11{fill:#f0e6f2;}.cls-12{fill:#b0b3b4;}.cls-13{fill:#cfdae5;}.cls-14{fill:#f9b54b;}</style><clipPath id="clip-path" transform="translate(-9.75 -5.79)"><rect class="cls-1" x="51.86" y="22.87" width="66.37" height="116.09"/></clipPath></defs><g id="tiutlar_copy" data-name="tiutlar copy"><path id="Rect치ngulo_260" data-name="Rect치ngulo 260" class="cls-2" d="M39.75,5.79H132c16.57,0,30,14.45,30,32.27v91.29c0,17.82-13.43,32.27-30,32.27H39.75c-16.57,0-30-14.45-30-32.27V38.06C9.75,20.24,23.18,5.79,39.75,5.79Z" transform="translate(-9.75 -5.79)"/><g id="Grupo_1288" data-name="Grupo 1288"><rect id="Rect치ngulo_124-4" data-name="Rect치ngulo 124-4" class="cls-3" x="112.57" y="17.34" width="29.54" height="16.7" rx="8.35"/><circle id="Elipse_54-12" data-name="Elipse 54-12" class="cls-2" cx="120.92" cy="25.68" r="4.5"/></g><path class="cls-4" d="M60.79,149,57,156.59H55.15L51.39,149v8.8H48.27v-14h4.22l3.6,7.68,3.62-7.68h4.2v14H60.79Z" transform="translate(-9.75 -5.79)"/><path class="cls-4" d="M77.31,157.75l-1.3-3H70.15l-1.3,3H65.53l6-14h3l6,14Zm-4.22-9.82L71.33,152h3.5Z" transform="translate(-9.75 -5.79)"/><path class="cls-4" d="M92.93,145.6a6.57,6.57,0,0,1,2,5.09,6.88,6.88,0,0,1-2,5.16q-2,1.91-6,1.9H82.25v-14h4.94A8.21,8.21,0,0,1,92.93,145.6Zm-2.29,8.31a4.09,4.09,0,0,0,1.15-3.14,4.19,4.19,0,0,0-1.15-3.17,4.92,4.92,0,0,0-3.53-1.11H85.37V155h2A4.63,4.63,0,0,0,90.64,153.91Z" transform="translate(-9.75 -5.79)"/><path class="cls-4" d="M109,148.41q0,3.36-2.66,4.34l3.54,5H106l-3.1-4.46h-2.16v4.46H97.63v-14h5.3c2.17,0,3.72.37,4.65,1.1A4.23,4.23,0,0,1,109,148.41Zm-3.76,1.66a2.11,2.11,0,0,0,.58-1.65,1.77,1.77,0,0,0-.6-1.55,3.84,3.84,0,0,0-2.1-.42h-2.34v4.14H103A3.33,3.33,0,0,0,105.21,150.07Z" transform="translate(-9.75 -5.79)"/><path class="cls-4" d="M122.25,143.77v2.78h-7v2.88h6.26v2.66h-6.26V155h7.18v2.76h-10.3v-14Z" transform="translate(-9.75 -5.79)"/><g class="cls-5"><g id="Grupo_726-2" data-name="Grupo 726-2"><path id="Trazado_171" data-name="Trazado 171" class="cls-6" d="M92.13,74.32V67.47H79.06v6.85a1,1,0,0,1-1,1H69V99h33.19V75.31h-9a1,1,0,0,1-1.05-1" transform="translate(-9.75 -5.79)"/><path id="Trazado_172" data-name="Trazado 172" class="cls-7" d="M102.19,75.31h-9a1,1,0,0,1-1.05-1V67.47H85V99h17.19Z" transform="translate(-9.75 -5.79)"/><path id="Trazado_173" data-name="Trazado 173" class="cls-8" d="M74,75.31H71.54l9.57,32.4H85V82.87c-5.87-.12-11-2-11-7.56" transform="translate(-9.75 -5.79)"/><path id="Trazado_174" data-name="Trazado 174" class="cls-6" d="M99.64,75.31H96.1c0,5.77-4.39,7.56-10.51,7.56H85v24.84h5.09Z" transform="translate(-9.75 -5.79)"/><path id="Trazado_175" data-name="Trazado 175" class="cls-9" d="M74,75.31H67c-8.37,0-15.16,6.42-15.16,14.34v43.11c9.73,5.41,21,6.08,33.14,6.18V82.86c-5.87-.11-11-2-11-7.56" transform="translate(-9.75 -5.79)"/><path id="Trazado_176" data-name="Trazado 176" class="cls-10" d="M103.06,75.31h-7c0,5.77-4.39,7.56-10.51,7.56H85V139h.59c11.86,0,23-.47,32.63-5.59V89.65c0-7.92-6.79-14.34-15.17-14.34" transform="translate(-9.75 -5.79)"/><path id="Trazado_177" data-name="Trazado 177" class="cls-11" d="M63.36,91.36a9.64,9.64,0,0,0-9.88,9.34h4.94a5,5,0,0,1,9.89,0V138a47.48,47.48,0,0,0,4.94.55V100.7a9.64,9.64,0,0,0-9.89-9.34" transform="translate(-9.75 -5.79)"/><path id="Trazado_178" data-name="Trazado 178" class="cls-12" d="M63.35,41.65,58.3,67.38A8.25,8.25,0,0,0,65,76.92a8.88,8.88,0,0,0,1.63.12H85.79V41.84Z" transform="translate(-9.75 -5.79)"/><path id="Trazado_179" data-name="Trazado 179" class="cls-12" d="M112.76,67.24,106.9,42l-21.11-.17V77h18.65a8.26,8.26,0,0,0,8.47-8,8.14,8.14,0,0,0-.15-1.77" transform="translate(-9.75 -5.79)"/><path id="Trazado_180" data-name="Trazado 180" class="cls-6" d="M63.91,54.15A4.95,4.95,0,0,1,64.46,64a5,5,0,0,1-.55,0,4.95,4.95,0,1,1-.55-9.88h.55" transform="translate(-9.75 -5.79)"/><path id="Trazado_181" data-name="Trazado 181" class="cls-7" d="M106.25,54.15A4.95,4.95,0,1,1,101,59.09a5.08,5.08,0,0,1,5.22-4.94" transform="translate(-9.75 -5.79)"/><path id="Trazado_182" data-name="Trazado 182" class="cls-6" d="M85.67,79.65H84.49C73.6,79.65,64.78,71.31,64.78,61V44c0-10.29,8.82-18.64,19.71-18.64h1.18c10.89,0,19.72,8.35,19.72,18.64V61c0,10.3-8.83,18.64-19.72,18.64" transform="translate(-9.75 -5.79)"/><path id="Trazado_183" data-name="Trazado 183" class="cls-6" d="M85.67,25.37H85V79.65h.63c10.89,0,19.72-8.34,19.72-18.63V44c0-10.29-8.83-18.63-19.72-18.63" transform="translate(-9.75 -5.79)"/><path id="Trazado_184" data-name="Trazado 184" class="cls-6" d="M95.07,44.36a1.14,1.14,0,0,1-.71-.23,14.51,14.51,0,0,0-17.45,0A1.17,1.17,0,0,1,75.33,44a1,1,0,0,1,.11-1.45l.06,0a16.86,16.86,0,0,1,20.28,0A1,1,0,0,1,96,43.91l0,.06a1.13,1.13,0,0,1-.87.39" transform="translate(-9.75 -5.79)"/><path id="Trazado_185" data-name="Trazado 185" class="cls-6" d="M97.09,40a1.23,1.23,0,0,1-.71-.23,17.84,17.84,0,0,0-21.49,0,1.19,1.19,0,0,1-1.58-.16,1,1,0,0,1,.11-1.45l.06,0a20.22,20.22,0,0,1,24.32,0A1,1,0,0,1,98,39.58l-.05.06a1.16,1.16,0,0,1-.87.39" transform="translate(-9.75 -5.79)"/><path id="Trazado_186" data-name="Trazado 186" class="cls-7" d="M95.78,42.48a16.72,16.72,0,0,0-10.14-3.39H85v2.14l.6,0a14.22,14.22,0,0,1,8.72,2.92A1.16,1.16,0,0,0,95.94,44a1,1,0,0,0-.11-1.44l0-.05" transform="translate(-9.75 -5.79)"/><path id="Trazado_187" data-name="Trazado 187" class="cls-7" d="M97.8,38.15a20.07,20.07,0,0,0-12.16-4.07H85v2.12h.6a17.49,17.49,0,0,1,10.74,3.59,1.16,1.16,0,0,0,.71.23,1.1,1.1,0,0,0,.87-.39,1,1,0,0,0-.1-1.45l-.06,0" transform="translate(-9.75 -5.79)"/><path id="Trazado_188" data-name="Trazado 188" class="cls-13" d="M103.25,31.49a21.75,21.75,0,0,0-17.53-8.62H85V52.4h18.41v6.52h3.68V43.1a19.43,19.43,0,0,0-3.88-11.61" transform="translate(-9.75 -5.79)"/><path id="Trazado_189" data-name="Trazado 189" class="cls-12" d="M66.18,58.92H63V43.1c0-11.17,9.58-20.23,21.4-20.23h1.28a21.75,21.75,0,0,1,17.53,8.62,19.46,19.46,0,0,1,3.88,11.61V58.92h-3.68V52.4H66.18v6.52Z" transform="translate(-9.75 -5.79)"/><path id="Trazado_190" data-name="Trazado 190" class="cls-14" d="M95.21,54.26a6.84,6.84,0,0,0-6.93,5.93H83a6.83,6.83,0,0,0-6.92-5.93,6.59,6.59,0,0,0-.76,13.16c.25,0,.5,0,.76,0a6.87,6.87,0,0,0,6.86-5.53h5.42a6.86,6.86,0,0,0,6.86,5.53A6.59,6.59,0,0,0,96,54.26a4.82,4.82,0,0,0-.76,0M76.07,65.72a4.89,4.89,0,1,1,5.16-4.88,5,5,0,0,1-5.16,4.88m19.14,0a4.89,4.89,0,1,1,5.16-4.88,5,5,0,0,1-5.16,4.88" transform="translate(-9.75 -5.79)"/><path id="Trazado_191" data-name="Trazado 191" class="cls-14" d="M95.21,54.26a6.84,6.84,0,0,0-6.93,5.93h-3v1.7h3.09a6.86,6.86,0,0,0,6.86,5.53A6.59,6.59,0,0,0,96,54.26a4.82,4.82,0,0,0-.76,0m0,11.46a4.89,4.89,0,1,1,5.16-4.88,5,5,0,0,1-5.16,4.88" transform="translate(-9.75 -5.79)"/></g></g></g></svg>