<svg id="Layer_1" data-name="Layer 1" xmlns="http://www.w3.org/2000/svg" xmlns:xlink="http://www.w3.org/1999/xlink" viewBox="0 0 170.08 170.08"><defs><style>.cls-1{fill:none;}.cls-2{fill:#fff;}.cls-3{fill:#706f6f;}.cls-4{clip-path:url(#clip-path);}.cls-5{fill:#fdd7b2;}.cls-6{fill:#eabe96;}.cls-7{fill:#f4e3c3;}.cls-8{fill:#b9784f;}.cls-9{fill:#945735;}.cls-10{fill:#b0b3b4;}.cls-11{fill:#cdcfd0;}.cls-12{isolation:isolate;}.cls-13{fill:#4fbfd7;}</style><clipPath id="clip-path"><rect class="cls-1" x="58.61" y="36.5" width="52.86" height="90.66"/></clipPath></defs><rect id="Rect치ngulo_260" data-name="Rect치ngulo 260" class="cls-2" x="8.91" y="12.6" width="152.26" height="144.87" rx="30"/><g id="Grupo_1288" data-name="Grupo 1288"><rect id="Rect치ngulo_124-4" data-name="Rect치ngulo 124-4" class="cls-3" x="108.1" y="20.18" width="39.97" height="22.59" rx="11.3"/><circle id="Elipse_54-12" data-name="Elipse 54-12" class="cls-2" cx="119.4" cy="31.47" r="6.08"/></g><g id="Padre"><g id="Grupo_725" data-name="Grupo 725"><g class="cls-4"><g id="Grupo_725-2" data-name="Grupo 725-2"><path id="Trazado_152" data-name="Trazado 152" class="cls-5" d="M90.69,75.69V70.23H80.28v5.46a.82.82,0,0,1-.84.79H72.27V95.31H98.7V76.48H91.52a.81.81,0,0,1-.83-.79"/><path id="Trazado_153" data-name="Trazado 153" class="cls-6" d="M98.7,76.48H91.52a.81.81,0,0,1-.83-.79V70.23H85V95.31H98.7Z"/><path id="Trazado_154" data-name="Trazado 154" class="cls-7" d="M76.23,76.48H74.3l7.61,25.8H85V82.5c-4.68-.1-8.78-1.57-8.78-6"/><path id="Trazado_155" data-name="Trazado 155" class="cls-5" d="M96.67,76.48H93.85c0,4.6-3.5,6-8.37,6H85v19.78h4Z"/><path id="Trazado_156" data-name="Trazado 156" class="cls-8" d="M76.23,76.48H70.69c-6.67,0-12.08,5.11-12.08,11.42v34.33c7.76,4.31,16.77,4.85,26.4,4.93V82.5c-4.67-.1-8.78-1.57-8.78-6"/><path id="Trazado_157" data-name="Trazado 157" class="cls-9" d="M99.39,76.48H93.85c0,4.6-3.5,6-8.37,6H85v44.66h.47c9.44,0,18.3-.37,26-4.45V87.9c0-6.31-5.41-11.42-12.08-11.42"/><path id="Trazado_158" data-name="Trazado 158" class="cls-7" d="M67.78,89.26a7.67,7.67,0,0,0-7.87,7.44h3.93a3.94,3.94,0,0,1,7.87,0v29.67c1.16.17,2.61.38,3.94.44V96.7a7.68,7.68,0,0,0-7.87-7.44"/><path id="Trazado_159" data-name="Trazado 159" class="cls-5" d="M68.18,59.43a3.94,3.94,0,0,1,.45,7.87h-.45a3.94,3.94,0,0,1-.46-7.87h.46"/><path id="Trazado_160" data-name="Trazado 160" class="cls-6" d="M101.9,59.43a3.94,3.94,0,1,1-4.16,3.93,4.05,4.05,0,0,1,4.16-3.93"/><path id="Trazado_161" data-name="Trazado 161" class="cls-5" d="M85.51,79.74h-.94c-8.67,0-15.7-6.64-15.7-14.84V51.35c0-8.2,7-14.85,15.7-14.85h.94c8.67,0,15.7,6.65,15.7,14.85V64.9c0,8.2-7,14.84-15.7,14.84"/><path id="Trazado_162" data-name="Trazado 162" class="cls-5" d="M85.51,36.5H85V79.74h.5c8.67,0,15.7-6.64,15.7-14.84V51.35c0-8.2-7-14.85-15.7-14.85"/><path id="Trazado_163" data-name="Trazado 163" class="cls-6" d="M93,51.64a1,1,0,0,1-.56-.19,11.55,11.55,0,0,0-13.9,0,.92.92,0,0,1-1.25-.13.81.81,0,0,1,.08-1.15l0,0a13.43,13.43,0,0,1,16.15,0,.82.82,0,0,1,.17,1.14l0,0a.94.94,0,0,1-.7.32"/><path id="Trazado_164" data-name="Trazado 164" class="cls-6" d="M94.6,48.19A1,1,0,0,1,94,48a14.22,14.22,0,0,0-17.12,0,.93.93,0,0,1-1.26-.13.82.82,0,0,1,.08-1.15l.06,0a16.11,16.11,0,0,1,19.36,0,.83.83,0,0,1,.18,1.14l0,0a1,1,0,0,1-.7.32"/><path id="Trazado_165" data-name="Trazado 165" class="cls-6" d="M93.56,50.13a13.45,13.45,0,0,0-8.08-2.7H85v1.7l.47,0a11.32,11.32,0,0,1,7,2.33.94.94,0,0,0,1.26-.13.82.82,0,0,0-.08-1.15l0,0"/><path id="Trazado_166" data-name="Trazado 166" class="cls-6" d="M95.17,46.68a16,16,0,0,0-9.69-3.23H85v1.69h.48A13.94,13.94,0,0,1,94,48a.94.94,0,0,0,1.26-.13.82.82,0,0,0-.08-1.15l0,0"/><path id="Trazado_167" data-name="Trazado 167" class="cls-10" d="M105,60.35A5,5,0,0,0,110.15,56a4.51,4.51,0,0,0-.66-2.75,4.48,4.48,0,0,0,.67-2.36,4.87,4.87,0,0,0-5-4.74,4.88,4.88,0,0,0-4.91-4.73,5,5,0,0,0-5.1,4.86h0v5.13a9.21,9.21,0,0,0,9.46,8.94Z"/><path id="Trazado_168" data-name="Trazado 168" class="cls-11" d="M90.75,80s12.94-1.26,11.49-22.31c0,0-3,10.09-10.18,11.07a4.57,4.57,0,0,0-4.3-3H82.25a4.57,4.57,0,0,0-4.3,3c-7.12-1-10.18-11.07-10.18-11.07C66.32,78.7,79.26,80,79.26,80ZM89,73.37H81c-1,0-1.74-1.85-1.74-2.79h0A1.72,1.72,0,0,1,81,68.9h8a1.71,1.71,0,0,1,1.74,1.69c0,.93-.78,2.79-1.74,2.79"/><path id="Trazado_169" data-name="Trazado 169" class="cls-10" d="M102.24,57.65s-3,10.09-10.18,11.08a4.56,4.56,0,0,0-4.3-3H84.92v3.13H89a1.72,1.72,0,0,1,1.74,1.69c0,.94-.78,2.79-1.74,2.79H84.92V80h5.83s12.94-1.26,11.49-22.31"/><path id="Trazado_170" data-name="Trazado 170" class="cls-11" d="M66,60.35A5,5,0,0,1,60.82,56a4.53,4.53,0,0,1,.66-2.75,4.49,4.49,0,0,1-.68-2.36,4.89,4.89,0,0,1,5-4.74,4.86,4.86,0,0,1,4.91-4.73,5,5,0,0,1,5.1,4.85h0v5.14a9.2,9.2,0,0,1-9.45,8.94Z"/></g></g></g><g id="PADRE-2" class="cls-12"><g class="cls-12"><path class="cls-13" d="M69.57,139.82h-1.1v3.31H66.36v-9h3.21c1.84,0,3.28.82,3.28,2.82S71.41,139.82,69.57,139.82Zm-.29-4h-.82v2.4h.82c.81,0,1.44-.28,1.44-1.21S70.08,135.79,69.28,135.79Z"/><path class="cls-13" d="M79.27,143.13l-.63-1.8h-3.2l-.64,1.8H72.62l3.38-9h2.18l3.38,9ZM77,136.47l-1.12,3.22h2.23Z"/><path class="cls-13" d="M85.37,143.13h-3v-9h3c2.82,0,4.91,1.5,4.91,4.49S88.2,143.13,85.37,143.13Zm.12-7.22H84.42v5.44h1.07a2.72,2.72,0,0,0,0-5.44Z"/><path class="cls-13" d="M96.12,143.13l-1.89-3.43h-.66v3.43h-2.1v-9h3.22c1.72,0,3.35.73,3.35,2.7a2.51,2.51,0,0,1-1.75,2.57l2.27,3.7Zm-1.73-7.34h-.83v2.3h.83c.78,0,1.54-.23,1.54-1.16S95.17,135.79,94.39,135.79Z"/><path class="cls-13" d="M99.27,143.13v-9h5.81v1.68h-3.72v1.83h3.51v1.68h-3.51v2.08h3.83v1.7Z"/></g></g></g></svg>