<svg xmlns="http://www.w3.org/2000/svg" xmlns:xlink="http://www.w3.org/1999/xlink" viewBox="0 0 152.26 155.83"><defs><style>.cls-1{fill:none;}.cls-2{fill:#fff;}.cls-3{fill:#706f6f;}.cls-4{clip-path:url(#clip-path);}.cls-5{fill:#fdd7b2;}.cls-6{fill:#eabe96;}.cls-7{fill:#f4e3c3;}.cls-8{fill:#b9784f;}.cls-9{fill:#945735;}.cls-10{fill:#b0b3b4;}.cls-11{fill:#cdcfd0;}.cls-12{fill:#4fbfd7;}</style><clipPath id="clip-path" transform="translate(-9.75 -5.79)"><rect class="cls-1" x="51.21" y="22.95" width="67.66" height="116.06"/></clipPath></defs><g id="padre"><path id="Rect치ngulo_260" data-name="Rect치ngulo 260" class="cls-2" d="M39.75,5.79H132c16.57,0,30,14.45,30,32.27v91.29c0,17.82-13.43,32.27-30,32.27H39.75c-16.57,0-30-14.45-30-32.27V38.06C9.75,20.24,23.18,5.79,39.75,5.79Z" transform="translate(-9.75 -5.79)"/><g id="Grupo_1288" data-name="Grupo 1288"><rect id="Rect치ngulo_124-4" data-name="Rect치ngulo 124-4" class="cls-3" x="112.57" y="17.34" width="29.54" height="16.7" rx="8.35"/><circle id="Elipse_54-12" data-name="Elipse 54-12" class="cls-2" cx="120.92" cy="25.68" r="4.5"/></g><g id="Grupo_725" data-name="Grupo 725"><g class="cls-4"><g id="Grupo_725-2" data-name="Grupo 725-2"><path id="Trazado_152" data-name="Trazado 152" class="cls-5" d="M92.27,73.12v-7H78.94v7a1,1,0,0,1-1.06,1H68.69v24.1h33.83V74.12H93.33a1,1,0,0,1-1.06-1" transform="translate(-9.75 -5.79)"/><path id="Trazado_153" data-name="Trazado 153" class="cls-6" d="M102.52,74.13H93.34a1.05,1.05,0,0,1-1.07-1v-7H85v32.1h17.52Z" transform="translate(-9.75 -5.79)"/><path id="Trazado_154" data-name="Trazado 154" class="cls-7" d="M73.76,74.13H71.29l9.74,33h4V81.83c-6-.12-11.24-2-11.24-7.7" transform="translate(-9.75 -5.79)"/><path id="Trazado_155" data-name="Trazado 155" class="cls-5" d="M99.92,74.13h-3.6c0,5.88-4.48,7.7-10.71,7.7H85v25.32h5.19Z" transform="translate(-9.75 -5.79)"/><path id="Trazado_156" data-name="Trazado 156" class="cls-8" d="M73.76,74.13H66.67c-8.54,0-15.46,6.54-15.46,14.61v44c9.93,5.51,21.46,6.2,33.79,6.3V81.83c-6-.12-11.23-2-11.23-7.7" transform="translate(-9.75 -5.79)"/><path id="Trazado_157" data-name="Trazado 157" class="cls-9" d="M103.41,74.13H96.32c0,5.88-4.48,7.7-10.71,7.7H85V139h.61c12.08,0,23.42-.47,33.26-5.69V88.74c0-8.07-6.92-14.61-15.46-14.61" transform="translate(-9.75 -5.79)"/><path id="Trazado_158" data-name="Trazado 158" class="cls-7" d="M62.94,90.49A9.82,9.82,0,0,0,52.87,100h5A5,5,0,0,1,68,100v38c1.48.22,3.33.48,5,.56V100a9.82,9.82,0,0,0-10.07-9.52" transform="translate(-9.75 -5.79)"/><path id="Trazado_159" data-name="Trazado 159" class="cls-5" d="M63.45,52.3A5,5,0,1,1,64,62.37a5.61,5.61,0,0,1-.58,0,5,5,0,1,1-.57-10.07h.57" transform="translate(-9.75 -5.79)"/><path id="Trazado_160" data-name="Trazado 160" class="cls-6" d="M106.62,52.3a5,5,0,1,1-5.32,5,5.18,5.18,0,0,1,5.32-5" transform="translate(-9.75 -5.79)"/><path id="Trazado_161" data-name="Trazado 161" class="cls-5" d="M85.64,78.3h-1.2c-11.1,0-20.1-8.5-20.1-19V42c0-10.5,9-19,20.1-19h1.2c11.1,0,20.1,8.51,20.1,19V59.3c0,10.5-9,19-20.1,19" transform="translate(-9.75 -5.79)"/><path id="Trazado_162" data-name="Trazado 162" class="cls-5" d="M85.64,23H85V78.3h.64c11.1,0,20.1-8.5,20.1-19V42c0-10.5-9-19-20.1-19" transform="translate(-9.75 -5.79)"/><path id="Trazado_163" data-name="Trazado 163" class="cls-6" d="M95.22,42.32a1.12,1.12,0,0,1-.72-.24,14.81,14.81,0,0,0-17.79,0,1.18,1.18,0,0,1-1.61-.16,1,1,0,0,1,.1-1.47l.07-.05a17.18,17.18,0,0,1,20.67,0,1,1,0,0,1,.22,1.46l0,.06a1.14,1.14,0,0,1-.9.4" transform="translate(-9.75 -5.79)"/><path id="Trazado_164" data-name="Trazado 164" class="cls-6" d="M97.28,37.91a1.22,1.22,0,0,1-.72-.24,18.21,18.21,0,0,0-21.92,0,1.19,1.19,0,0,1-1.6-.16,1,1,0,0,1,.1-1.47l.07-.06A20.63,20.63,0,0,1,98,36a1,1,0,0,1,.22,1.46l0,.07a1.22,1.22,0,0,1-.9.4" transform="translate(-9.75 -5.79)"/><path id="Trazado_165" data-name="Trazado 165" class="cls-6" d="M95.94,40.4a17.1,17.1,0,0,0-10.33-3.46c-.21,0-.41,0-.61,0v2.17l.61,0a14.48,14.48,0,0,1,8.89,3,1.18,1.18,0,0,0,1.61-.16,1,1,0,0,0-.1-1.47l-.07-.05" transform="translate(-9.75 -5.79)"/><path id="Trazado_166" data-name="Trazado 166" class="cls-6" d="M98,36a20.52,20.52,0,0,0-12.39-4.14H85V34l.62,0a17.9,17.9,0,0,1,11,3.67,1.19,1.19,0,0,0,1.61-.17,1,1,0,0,0-.1-1.46L98,36" transform="translate(-9.75 -5.79)"/><path id="Trazado_167" data-name="Trazado 167" class="cls-10" d="M110.61,53.49a6.42,6.42,0,0,0,6.57-5.58,5.77,5.77,0,0,0-.84-3.51,5.79,5.79,0,0,0,.86-3,6.24,6.24,0,0,0-6.41-6.07,6.23,6.23,0,0,0-6.28-6A6.37,6.37,0,0,0,98,35.46h0V42a11.81,11.81,0,0,0,12.11,11.45Z" transform="translate(-9.75 -5.79)"/><path id="Trazado_168" data-name="Trazado 168" class="cls-11" d="M92.35,78.59S108.92,77,107.06,50c0,0-3.91,12.92-13,14.18a5.81,5.81,0,0,0-5.5-3.79h-7A5.83,5.83,0,0,0,76,64.2c-9.11-1.26-13-14.18-13-14.18C61.08,77,77.64,78.59,77.64,78.59Zm-2.23-8.44H79.87c-1.23,0-2.22-2.37-2.23-3.57h0a2.2,2.2,0,0,1,2.23-2.16H90.12a2.2,2.2,0,0,1,2.23,2.16c0,1.2-1,3.57-2.23,3.57" transform="translate(-9.75 -5.79)"/><path id="Trazado_169" data-name="Trazado 169" class="cls-10" d="M107.06,50S103.15,62.94,94,64.2a5.81,5.81,0,0,0-5.5-3.79H84.88v4h5.24a2.21,2.21,0,0,1,2.23,2.17c0,1.19-1,3.57-2.23,3.57H84.88v8.44h7.47S108.92,77,107.06,50" transform="translate(-9.75 -5.79)"/><path id="Trazado_170" data-name="Trazado 170" class="cls-11" d="M60.6,53.49A6.42,6.42,0,0,1,54,47.91a5.78,5.78,0,0,1,.85-3.51,5.89,5.89,0,0,1-.87-3,6.25,6.25,0,0,1,6.41-6.07,6.24,6.24,0,0,1,6.29-6.06,6.38,6.38,0,0,1,6.53,6.22h0V42a11.8,11.8,0,0,1-12.1,11.46Z" transform="translate(-9.75 -5.79)"/></g></g></g><path class="cls-12" d="M61.08,145a4.75,4.75,0,0,1,1.47,3.84A4.54,4.54,0,0,1,61,152.65a7.34,7.34,0,0,1-4.61,1.2H54.57v3.9H51.45v-14h4.94A7.19,7.19,0,0,1,61.08,145Zm-2.29,5.5a2.7,2.7,0,0,0,.56-1.84,1.94,1.94,0,0,0-.73-1.72,4,4,0,0,0-2.27-.51H54.57v4.7h2.1A2.78,2.78,0,0,0,58.79,150.52Z" transform="translate(-9.75 -5.79)"/><path class="cls-12" d="M74.13,157.75l-1.3-3H67l-1.3,3H62.35l6-14h3l6,14Zm-4.22-9.82L68.15,152h3.5Z" transform="translate(-9.75 -5.79)"/><path class="cls-12" d="M89.75,145.6a6.57,6.57,0,0,1,2,5.09,6.88,6.88,0,0,1-2,5.16q-2,1.91-6,1.9H79.07v-14H84A8.21,8.21,0,0,1,89.75,145.6Zm-2.29,8.31a4.09,4.09,0,0,0,1.15-3.14,4.19,4.19,0,0,0-1.15-3.17,4.92,4.92,0,0,0-3.53-1.11H82.19V155h2A4.63,4.63,0,0,0,87.46,153.91Z" transform="translate(-9.75 -5.79)"/><path class="cls-12" d="M105.79,148.41q0,3.36-2.66,4.34l3.54,5h-3.84l-3.1-4.46H97.57v4.46H94.45v-14h5.3c2.17,0,3.72.37,4.65,1.1A4.23,4.23,0,0,1,105.79,148.41ZM102,150.07a2.11,2.11,0,0,0,.58-1.65,1.77,1.77,0,0,0-.6-1.55,3.84,3.84,0,0,0-2.1-.42H97.57v4.14h2.28A3.33,3.33,0,0,0,102,150.07Z" transform="translate(-9.75 -5.79)"/><path class="cls-12" d="M119.07,143.77v2.78h-7v2.88h6.26v2.66h-6.26V155h7.18v2.76H109v-14Z" transform="translate(-9.75 -5.79)"/></g></svg>