<svg id="Layer_1" data-name="Layer 1" xmlns="http://www.w3.org/2000/svg" viewBox="0 0 170.08 170.08"><defs><style>.cls-1{isolation:isolate;}.cls-2{fill:#4fbfd7;}.cls-3{fill:#fff;}.cls-4{fill:#d80361;}.cls-5{fill:#fbcea3;}.cls-6{fill:#e6ae82;}.cls-7{fill:#154c66;}.cls-8{fill:#814327;}.cls-9{fill:#d2d2d1;}.cls-10{fill:#c4c0be;}.cls-11{fill:#a1a09f;}.cls-12{fill:#6c3115;}.cls-13{fill:#be181f;}.cls-14{fill:#a61b20;}.cls-15{fill:#97191d;}.cls-16{fill:#f9c388;}</style></defs><g id="Grupo_1262" data-name="Grupo 1262"><g id="YO-2" class="cls-1"><g class="cls-1"><path class="cls-2" d="M77.4,144.54v3.34H75.46v-3.34l-2.88-4.93h2.16l1.69,3.3,1.69-3.3h2.16Z"/><path class="cls-2" d="M84.36,148a4.28,4.28,0,1,1,4.39-4.27A4.12,4.12,0,0,1,84.36,148Zm0-6.9a2.59,2.59,0,1,0,2.42,2.58A2.39,2.39,0,0,0,84.36,141.13Z"/></g></g><g id="Secure-6"><rect id="Rect치ngulo_100-6" data-name="Rect치ngulo 100-6" class="cls-3" x="8.91" y="12.6" width="152.26" height="144.87" rx="30"/><g id="Grupo_1241-2" data-name="Grupo 1241-2"><path id="Rect치ngulo_124-8" data-name="Rect치ngulo 124-8" class="cls-4" d="M121.72,21.71h16.84A10.94,10.94,0,0,1,149.5,32.65h0a10.94,10.94,0,0,1-10.94,11H121.72a10.94,10.94,0,0,1-10.94-11h0A10.94,10.94,0,0,1,121.72,21.71Z"/><circle id="Elipse_54-16" data-name="Elipse 54-16" class="cls-3" cx="138.56" cy="32.65" r="5.89"/></g><g id="Pareja"><g id="Grupo_1131-2" data-name="Grupo 1131-2"><g id="Group_722-2" data-name="Group 722-2"><path id="Path_115-2" data-name="Path 115-2" class="cls-5" d="M89.86,82.57V77.2H79.61v5.37a.8.8,0,0,1-.82.78l-7.06.25v18.27h26V83.35H90.68a.8.8,0,0,1-.82-.78h0"/><path id="Path_116-2" data-name="Path 116-2" class="cls-6" d="M97.73,83.35h-7a.8.8,0,0,1-.82-.78V77.2H84.5v24.67H97.74Z"/><path id="Path_117-2" data-name="Path 117-2" class="cls-7" d="M98.88,83.35H93.42c0,4.53-8.68,7.2-8.68,7.2s-8.69-2.66-8.69-7.2H70.59A11.6,11.6,0,0,0,58.69,94.6v31.94a71.09,71.09,0,0,0,52.09,0V94.6a11.59,11.59,0,0,0-11.9-11.25"/><path id="Path_120-2" data-name="Path 120-2" class="cls-8" d="M84.75,62.08H64.55V56.83c0-11.22,9.76-19,20.18-19.07Z"/><path id="Path_121-2" data-name="Path 121-2" class="cls-5" d="M105.92,64.53a4.61,4.61,0,0,1-5,4v-8a4.61,4.61,0,0,1,5,4"/><path id="Path_122-2" data-name="Path 122-2" class="cls-5" d="M63.55,64.53a4.61,4.61,0,0,0,5,4v-8a4.61,4.61,0,0,0-5,4"/><path id="Path_123-2" data-name="Path 123-2" class="cls-5" d="M97.16,54.15a2.23,2.23,0,0,0-2.38-2.08,1.43,1.43,0,0,0-.29,0l-.84.11A69.55,69.55,0,0,1,75,52.1a2.24,2.24,0,0,0-2.63,1.77,2.7,2.7,0,0,0,0,.28,5.67,5.67,0,0,1-2.6,4.71,4.93,4.93,0,0,1-1.12.57c0,9.32-.13,9.94.43,12.05a13.78,13.78,0,0,0,2.83,5.34c7.51,8.85,23.25,7.12,27.91-3.38,1.55-3.47,1.14-6.11,1.14-14a5.72,5.72,0,0,1-3.72-5.28"/><path id="Path_125-2" data-name="Path 125-2" class="cls-9" d="M84.3,89.09l-1.6-1.18v12.4a1.55,1.55,0,0,0,1.59,1.51h0Z"/><path id="Path_128-2" data-name="Path 128-2" class="cls-10" d="M88.27,92.73a1.7,1.7,0,0,0,.92.11Z"/><path id="Path_129-2" data-name="Path 129-2" class="cls-9" d="M78.68,83.35l5.62,5.74-3.49,3.33a1.63,1.63,0,0,1-2.31-.08h0l0,0-4.76-8.94Z"/><path id="Path_130-2" data-name="Path 130-2" class="cls-11" d="M82,91.3l2.31-2.2-5.62-5.75H76Z"/></g><g id="Group_723-2-2" data-name="Group 723-2-2"><path id="Path_132-2" data-name="Path 132-2" class="cls-12" d="M84.36,37.76a30.61,30.61,0,0,1,6.19.57c8.89.6,16.29,11.84,15.7,18.32,0,6.14.1-.69-1.31,24.42a2.58,2.58,0,0,1-2.62,2.53H84.55"/><path id="Path_133-3" data-name="Path 133-3" class="cls-5" d="M84.4,101.82H97.61V83.21H90.53a.81.81,0,0,1-.83-.78h0"/><path id="Path_133-4" data-name="Path 133-4" class="cls-5" d="M89.7,82.43V77H84.4"/><path id="Path_134-2" data-name="Path 134-2" class="cls-6" d="M97.69,83.21H90.6a.8.8,0,0,1-.82-.78h0V77H84.4v24.78H97.7Z"/><path id="Path_136-2" data-name="Path 136-2" class="cls-13" d="M98.74,83.21H93.26c0,4.54,0,6.49-8.9,6.49l0,41.78h.15a70.81,70.81,0,0,0,26.13-5v-32A11.63,11.63,0,0,0,98.74,83.2"/><path id="Path_137-2" data-name="Path 137-2" class="cls-14" d="M99.65,83.21H93.26c-2.5,4-3.87,6.49-8.9,6.49,0,0,15.35,13.82,15.28-6.49"/><path id="Path_140-2" data-name="Path 140-2" class="cls-15" d="M90.78,86.88c2.7,1.35,6.65,2.8,8.64.29-1.59,15.27-15.07,2.53-15.07,2.53,2.67,0,4.31-1.54,6.43-2.82"/><path id="Path_141-2" data-name="Path 141-2" class="cls-16" d="M99.28,60.67a1.69,1.69,0,0,1,1.66,1.64v1.18a20,20,0,0,1-.7,6.8,15.53,15.53,0,0,1-4.9,7.2c-3.2,2.7-7.3,4.61-11,4.61l.07-29.29c6.49,0,9.67,7.8,14.91,7.86"/></g></g><g id="PAREJA-2" class="cls-1"><g class="cls-1"><path class="cls-2" d="M66.94,144.22H65.83v3.31h-2.1v-9h3.21c1.83,0,3.27.82,3.27,2.82S68.77,144.22,66.94,144.22Zm-.3-4h-.82v2.4h.82c.82,0,1.44-.29,1.44-1.21S67.44,140.19,66.64,140.19Z"/><path class="cls-2" d="M76.64,147.53,76,145.72H72.8l-.64,1.81H70l3.38-9h2.18l3.38,9Zm-2.24-6.67-1.12,3.23h2.24Z"/><path class="cls-2" d="M84.34,147.53l-1.88-3.43H81.8v3.43H79.69v-9h3.22c1.72,0,3.36.73,3.36,2.69a2.51,2.51,0,0,1-1.76,2.58l2.28,3.7Zm-1.73-7.34h-.83v2.3h.83c.79,0,1.54-.24,1.54-1.16S83.4,140.19,82.61,140.19Z"/><path class="cls-2" d="M87.49,147.53v-9H93.3v1.68H89.58v1.83h3.51v1.68H89.58v2.08h3.84v1.7Z"/><path class="cls-2" d="M94.63,150a4.28,4.28,0,0,1-1.34-.19l.07-1.55a2.17,2.17,0,0,0,.71.12c.5,0,.65-.39.65-1v-8.82h2.09v8.79C96.81,148.83,96.29,150,94.63,150Z"/><path class="cls-2" d="M104.23,147.53l-.63-1.81h-3.2l-.64,1.81H97.58l3.38-9h2.18l3.38,9ZM102,140.86l-1.12,3.23h2.24Z"/></g></g></g></g></g></svg>