<svg id="Layer_1" data-name="Layer 1" xmlns="http://www.w3.org/2000/svg" viewBox="0 0 283.46 283.46"><defs><style>.cls-1{fill:#cc001e;}.cls-2{fill:#ad0a1c;}.cls-3{fill:#f8ca43;}.cls-4{fill:#ffcc9c;}.cls-5{fill:#34646c;}.cls-6{fill:#203040;}.cls-7{fill:#ec7e5e;}</style></defs><g id="Page-1"><g id="_034---Life-Insurance" data-name=" 034---Life-Insurance"><g id="Grupo_1037" data-name="Grupo 1037"><path id="Trazado_690" data-name="Trazado 690" class="cls-1" d="M220.14,118.42,216,122.53l-73.67,73.7-73.72-73.7-4.11-4.11a52.11,52.11,0,1,1,71.38-75.93l.74.71c.53.51,1.06,1,1.58,1.58l4.11,4.11,4.1-4.11a52.11,52.11,0,0,1,75.87,71.45l-.59.61C221.2,117.38,220.68,117.91,220.14,118.42Z"/><path id="Trazado_691" data-name="Trazado 691" class="cls-2" d="M220.14,44.78a51.53,51.53,0,0,0-42.65-14.93,52.07,52.07,0,0,1,31.07,88.58l-4.11,4.11-67.9,67.9,5.79,5.79L216,122.54l4.11-4.11A52.1,52.1,0,0,0,220.14,44.78Z"/><path id="Shape" class="cls-3" d="M177.45,135.63h-.16a4,4,0,0,1-3.72-3.14l-8.32-38.8-3.79,15.15a4,4,0,0,1-3.84,3h-21L133.61,121a4.15,4.15,0,0,1-3.84,2.72,4,4,0,0,1-3.73-2.88l-4.22-14.74-8,26.7a4,4,0,0,1-4,2.82,4,4,0,0,1-3.72-3.13l-8.31-38.8L94,108.87a4,4,0,0,1-3.83,3H30.67a4,4,0,0,1,0-7.93H87.09L94.27,75.2a3.87,3.87,0,0,1,3.92-3A4,4,0,0,1,102,75.33l8.67,40.44,7.46-24.87A3.75,3.75,0,0,1,122,88.07,4,4,0,0,1,125.75,91l4.42,15.47a4,4,0,0,1,3.67-2.48h20.71l7.19-28.74a4,4,0,0,1,7.72.13l8.67,40.43,7.46-24.87a4,4,0,0,1,3.8-2.83h0a4,4,0,0,1,3.79,2.88l4.42,15.47a4,4,0,0,1,3.67-2.48h51.59a4,4,0,0,1,0,7.94H204.14l-3.07,9.18a4.18,4.18,0,0,1-3.84,2.72,4,4,0,0,1-3.73-2.88l-4.21-14.74-8,26.7A4,4,0,0,1,177.45,135.63Z"/></g><g id="Grupo_1038" data-name="Grupo 1038"><path id="Shape-2" class="cls-4" d="M79.5,186.62,61.37,168.5A43.38,43.38,0,0,1,52.21,155l-8.88-20.71a8.68,8.68,0,1,0-15.87,7h0L43,175.47a38.22,38.22,0,0,0,7.81,11.27l28.67,28.69h38.43V204.09a37.52,37.52,0,0,0-7.83-23.52,24.84,24.84,0,0,0-11.38-8.36,85.08,85.08,0,0,1-24-15.31,14.22,14.22,0,0,0-19.19.89"/><path id="Shape-3" class="cls-4" d="M204,186.62l18.12-18.12A43.24,43.24,0,0,0,231.25,155l8.88-20.71a8.68,8.68,0,0,1,15.88,7h0l-15.55,34.2a38.41,38.41,0,0,1-7.81,11.27L204,215.43H165.53V204.09a37.64,37.64,0,0,1,7.83-23.52,24.87,24.87,0,0,1,11.39-8.36,85.17,85.17,0,0,0,24-15.31,14.23,14.23,0,0,1,19.2.89"/><path id="Rectangle-path" class="cls-5" d="M177.44,215.44h11.9a19.84,19.84,0,0,1,19.84,19.84h0a19.84,19.84,0,0,1-19.84,19.84h-11.9a19.84,19.84,0,0,1-19.84-19.84h0A19.84,19.84,0,0,1,177.44,215.44Z"/><path id="Shape-4" class="cls-6" d="M177.44,239.24h-4a4,4,0,0,1,0-7.93h4a4,4,0,1,1,.33,7.93Z"/><path id="Rectangle-path-2" class="cls-5" d="M94.11,215.44H106a19.84,19.84,0,0,1,19.84,19.84h0A19.84,19.84,0,0,1,106,255.12H94.11a19.84,19.84,0,0,1-19.84-19.84h0A19.84,19.84,0,0,1,94.11,215.44Z"/><path id="Shape-5" class="cls-6" d="M110,239.24h-4a4,4,0,0,1-.33-7.93H110a4,4,0,0,1,0,7.93Z"/><path id="Shape-6" class="cls-7" d="M85.88,187.66a4,4,0,0,1-5.64,0L62.11,169.52a47.36,47.36,0,0,1-6.93-8.77c-.36-.6-.69-1.15-1-1.75l1.51-1.38a13.68,13.68,0,0,1,5-3.22,38.87,38.87,0,0,0,7,9.52L85.86,182A4,4,0,0,1,85.88,187.66Z"/><path id="Shape-7" class="cls-7" d="M197.91,187.66a4,4,0,0,0,5.63,0l18.1-18.17a47,47,0,0,0,6.93-8.77c.36-.59.69-1.15,1-1.74l-1.51-1.39a13.53,13.53,0,0,0-5-3.21,39.51,39.51,0,0,1-7,9.52L197.89,182a4,4,0,0,0,0,5.65Z"/></g></g></g></svg>