<svg xmlns="http://www.w3.org/2000/svg" viewBox="0 0 152.26 155.83"><defs><style>.cls-1{fill:#fff;}.cls-2{fill:#d80361;}.cls-3{fill:#4fbfd7;}.cls-4{fill:#facda2;}.cls-5{fill:#e6ae81;}.cls-6{fill:#154c66;}.cls-7{fill:#804327;}.cls-8{fill:#d1d1d0;}.cls-9{fill:#c4c0be;}.cls-10{fill:#a09f9e;}.cls-11{fill:#6c3115;}.cls-12{fill:#bd181e;}.cls-13{fill:#a51b20;}.cls-14{fill:#96191d;}.cls-15{fill:#f8c286;}</style></defs><g id="tiutlar"><path id="Rect치ngulo_260" data-name="Rect치ngulo 260" class="cls-1" d="M39.75,5.79H132c16.57,0,30,14.45,30,32.27v91.29c0,17.82-13.43,32.27-30,32.27H39.75c-16.57,0-30-14.45-30-32.27V38.06C9.75,20.24,23.18,5.79,39.75,5.79Z" transform="translate(-9.75 -5.79)"/><g id="Grupo_1288" data-name="Grupo 1288"><rect id="Rect치ngulo_124-4" data-name="Rect치ngulo 124-4" class="cls-2" x="112.57" y="17.34" width="29.54" height="16.7" rx="8.35"/><circle id="Elipse_54-12" data-name="Elipse 54-12" class="cls-1" cx="133.76" cy="25.68" r="4.5"/></g><path class="cls-3" d="M49.33,146.47v11.28H46.21V146.47h-4v-2.7h11v2.7Z" transform="translate(-9.75 -5.79)"/><path class="cls-3" d="M55.57,143.77h3.12v14H55.57Z" transform="translate(-9.75 -5.79)"/><path class="cls-3" d="M68.05,146.47v11.28H64.93V146.47H61v-2.7H72v2.7Z" transform="translate(-9.75 -5.79)"/><path class="cls-3" d="M78,154.14a2.55,2.55,0,0,0,2.1,1,2.51,2.51,0,0,0,2.09-1,4.18,4.18,0,0,0,.77-2.65v-7.72h3.12v7.82a6.21,6.21,0,0,1-1.68,4.67,6.49,6.49,0,0,1-8.61,0,6.18,6.18,0,0,1-1.69-4.66v-7.82h3.12v7.72A4.12,4.12,0,0,0,78,154.14Z" transform="translate(-9.75 -5.79)"/><path class="cls-3" d="M89.31,157.75v-14h3.12V155h6v2.78Z" transform="translate(-9.75 -5.79)"/><path class="cls-3" d="M110.63,157.75l-1.3-3h-5.86l-1.3,3H98.85l6-14h3l6,14Zm-4.22-9.82L104.65,152h3.5Z" transform="translate(-9.75 -5.79)"/><path class="cls-3" d="M126.91,148.41q0,3.36-2.66,4.34l3.54,5H124l-3.1-4.46h-2.16v4.46h-3.12v-14h5.3c2.17,0,3.72.37,4.65,1.1A4.23,4.23,0,0,1,126.91,148.41Zm-3.76,1.66a2.11,2.11,0,0,0,.58-1.65,1.77,1.77,0,0,0-.6-1.55,3.84,3.84,0,0,0-2.1-.42h-2.34v4.14H121A3.33,3.33,0,0,0,123.15,150.07Z" transform="translate(-9.75 -5.79)"/><g id="Group_722" data-name="Group 722"><path id="Path_115" data-name="Path 115" class="cls-4" d="M91.35,78.41V71.79H78.71v6.62a1,1,0,0,1-1,1L69,79.68v22.54h32.08V79.37H92.36a1,1,0,0,1-1-1h0" transform="translate(-9.75 -5.79)"/><path id="Path_116" data-name="Path 116" class="cls-5" d="M101.07,79.37h-8.7a1,1,0,0,1-1-1V71.79h-6.6v30.43h16.32Z" transform="translate(-9.75 -5.79)"/><path id="Path_117" data-name="Path 117" class="cls-6" d="M102.48,79.37H95.75C95.75,85,85,88.25,85,88.25S74.33,85,74.33,79.37H67.59A14.31,14.31,0,0,0,52.91,93.25v39.4a87.7,87.7,0,0,0,64.26,0V93.25a14.31,14.31,0,0,0-14.68-13.88" transform="translate(-9.75 -5.79)"/><path id="Path_120" data-name="Path 120" class="cls-7" d="M85.06,53.13H60.14V46.66c0-13.84,12-23.45,24.89-23.53Z" transform="translate(-9.75 -5.79)"/><path id="Path_121" data-name="Path 121" class="cls-4" d="M111.16,56.16a5.67,5.67,0,0,1-6.2,4.9V51.25a5.67,5.67,0,0,1,6.2,4.91" transform="translate(-9.75 -5.79)"/><path id="Path_122" data-name="Path 122" class="cls-4" d="M58.9,56.16a5.68,5.68,0,0,0,6.21,4.9V51.25a5.68,5.68,0,0,0-6.21,4.91" transform="translate(-9.75 -5.79)"/><path id="Path_123" data-name="Path 123" class="cls-4" d="M100.37,43.35a2.78,2.78,0,0,0-3-2.57l-.35,0L96,41a86.28,86.28,0,0,1-23-.13A2.77,2.77,0,0,0,69.74,43c0,.12,0,.24,0,.35a7,7,0,0,1-3.2,5.82,6.47,6.47,0,0,1-1.39.7c0,11.49-.15,12.25.54,14.86a17,17,0,0,0,3.48,6.58c9.28,10.93,28.69,8.79,34.44-4.16,1.91-4.29,1.4-7.54,1.4-17.29a7.07,7.07,0,0,1-4.59-6.5" transform="translate(-9.75 -5.79)"/><path id="Path_125" data-name="Path 125" class="cls-8" d="M84.49,86.46l-2-1.46v15.29a1.91,1.91,0,0,0,2,1.87h0Z" transform="translate(-9.75 -5.79)"/><path id="Path_128" data-name="Path 128" class="cls-9" d="M89.39,90.94a2,2,0,0,0,1.14.13Z" transform="translate(-9.75 -5.79)"/><path id="Path_129" data-name="Path 129" class="cls-8" d="M77.56,79.37l6.93,7.09-4.3,4.1a2,2,0,0,1-2.85-.09h0l-.06-.07-5.87-11Z" transform="translate(-9.75 -5.79)"/><path id="Path_130" data-name="Path 130" class="cls-10" d="M81.64,89.18l2.85-2.72-6.93-7.08H74.31Z" transform="translate(-9.75 -5.79)"/></g><g id="Group_723-2" data-name="Group 723-2"><path id="Path_132" data-name="Path 132" class="cls-11" d="M84.57,23.13a38.39,38.39,0,0,1,7.64.71c11,.74,20.09,14.6,19.37,22.6,0,7.57.12-.85-1.62,30.12a3.2,3.2,0,0,1-3.24,3.12H84.81" transform="translate(-9.75 -5.79)"/><path id="Path_133" data-name="Path 133" class="cls-4" d="M84.62,102.16h16.3v-23H92.18a1,1,0,0,1-1-1h0" transform="translate(-9.75 -5.79)"/><path id="Path_133-2" data-name="Path 133-2" class="cls-4" d="M91.16,78.24V71.58H84.62" transform="translate(-9.75 -5.79)"/><path id="Path_134" data-name="Path 134" class="cls-5" d="M101,79.2H92.27a1,1,0,0,1-1-1h0V71.58H84.62v30.58H101Z" transform="translate(-9.75 -5.79)"/><path id="Path_136" data-name="Path 136" class="cls-12" d="M102.31,79.2H95.55c0,5.61,0,8-11,8l.05,51.53h.19A87.08,87.08,0,0,0,117,132.63V93.11A14.33,14.33,0,0,0,102.3,79.19" transform="translate(-9.75 -5.79)"/><path id="Path_137" data-name="Path 137" class="cls-13" d="M103.43,79.2H95.55c-3.09,4.91-4.77,8-11,8,0,0,18.94,17,18.86-8" transform="translate(-9.75 -5.79)"/><path id="Path_140" data-name="Path 140" class="cls-14" d="M92.49,83.72c3.33,1.68,8.2,3.46,10.65.36-2,18.85-18.58,3.13-18.58,3.13,3.29,0,5.31-1.9,7.93-3.49" transform="translate(-9.75 -5.79)"/><path id="Path_141" data-name="Path 141" class="cls-15" d="M103,51.39a2.08,2.08,0,0,1,2,2v1.45a24.47,24.47,0,0,1-.86,8.39,19.16,19.16,0,0,1-6,8.88c-3.94,3.33-9,5.69-13.62,5.69l.08-36.13c8,0,11.93,9.62,18.39,9.7" transform="translate(-9.75 -5.79)"/></g></g></svg>