<svg id="Layer_1" data-name="Layer 1" xmlns="http://www.w3.org/2000/svg" viewBox="0 0 170.08 170.08"><defs><style>.cls-1{isolation:isolate;}.cls-2{fill:#4fbfd7;}.cls-3{fill:#fff;}.cls-4{fill:#706f6f;}.cls-5{fill:#fbcea3;}.cls-6{fill:#e6ae82;}.cls-7{fill:#154c66;}.cls-8{fill:#814327;}.cls-9{fill:#d2d2d1;}.cls-10{fill:#c4c0be;}.cls-11{fill:#a1a09f;}.cls-12{fill:#6c3115;}.cls-13{fill:#be181f;}.cls-14{fill:#a61b20;}.cls-15{fill:#97191d;}.cls-16{fill:#f9c388;}</style></defs><g class="cls-1"><path class="cls-2" d="M77.4,144.54v3.34H75.46v-3.34l-2.88-4.93h2.16l1.69,3.3,1.69-3.3h2.16Z"/><path class="cls-2" d="M84.36,148a4.28,4.28,0,1,1,4.39-4.27A4.12,4.12,0,0,1,84.36,148Zm0-6.9a2.59,2.59,0,1,0,2.42,2.58A2.39,2.39,0,0,0,84.36,141.13Z"/></g><rect id="Rect치ngulo_100-5" data-name="Rect치ngulo 100-5" class="cls-3" x="8.91" y="12.6" width="152.26" height="144.87" rx="30"/><g id="Grupo_1241" data-name="Grupo 1241"><path id="Rect치ngulo_124-7" data-name="Rect치ngulo 124-7" class="cls-4" d="M140,23.16H122.17a11.6,11.6,0,0,0-11.59,11.6h0a11.59,11.59,0,0,0,11.59,11.6H140a11.6,11.6,0,0,0,11.6-11.6h0A11.6,11.6,0,0,0,140,23.16Z"/><circle id="Elipse_54-15" data-name="Elipse 54-15" class="cls-3" cx="122.17" cy="34.76" r="6.25"/></g><g id="Titular"><g id="Grupo_1131" data-name="Grupo 1131"><g id="Group_722" data-name="Group 722"><path id="Path_115" data-name="Path 115" class="cls-5" d="M89.65,82.57V77.2H79.41v5.37a.81.81,0,0,1-.82.78l-7.06.25v18.27h26V83.35H90.47a.81.81,0,0,1-.82-.78h0"/><path id="Path_116" data-name="Path 116" class="cls-6" d="M97.53,83.35h-7a.8.8,0,0,1-.82-.78V77.2H84.3v24.67H97.54Z"/><path id="Path_117" data-name="Path 117" class="cls-7" d="M98.67,83.35H93.22c0,4.53-8.69,7.2-8.69,7.2s-8.68-2.66-8.68-7.2H70.39A11.6,11.6,0,0,0,58.49,94.6v31.94a71.09,71.09,0,0,0,52.09,0V94.6a11.59,11.59,0,0,0-11.9-11.25"/><path id="Path_120" data-name="Path 120" class="cls-8" d="M84.55,62.08H64.35V56.83c0-11.22,9.76-19,20.18-19.07Z"/><path id="Path_121" data-name="Path 121" class="cls-5" d="M105.71,64.53a4.6,4.6,0,0,1-5,4v-8a4.6,4.6,0,0,1,5,4"/><path id="Path_122" data-name="Path 122" class="cls-5" d="M63.35,64.53a4.6,4.6,0,0,0,5,4v-8a4.6,4.6,0,0,0-5,4"/><path id="Path_123" data-name="Path 123" class="cls-5" d="M97,54.15a2.23,2.23,0,0,0-2.39-2.08,1.33,1.33,0,0,0-.28,0l-.84.11a69.55,69.55,0,0,1-18.68-.11,2.24,2.24,0,0,0-2.64,1.77,2.66,2.66,0,0,0,0,.28,5.67,5.67,0,0,1-2.6,4.71,4.93,4.93,0,0,1-1.12.57c0,9.32-.13,9.94.43,12.05a13.75,13.75,0,0,0,2.82,5.34c7.52,8.85,23.26,7.12,27.92-3.38,1.55-3.47,1.14-6.11,1.14-14A5.72,5.72,0,0,1,97,54.15"/><path id="Path_125" data-name="Path 125" class="cls-9" d="M84.09,89.09l-1.6-1.18v12.4a1.55,1.55,0,0,0,1.59,1.51h0Z"/><path id="Path_128" data-name="Path 128" class="cls-10" d="M88.06,92.73a1.73,1.73,0,0,0,.93.11Z"/><path id="Path_129" data-name="Path 129" class="cls-9" d="M78.47,83.35l5.62,5.74-3.48,3.33a1.63,1.63,0,0,1-2.31-.08h0l0,0-4.76-8.94Z"/><path id="Path_130" data-name="Path 130" class="cls-11" d="M81.78,91.3l2.31-2.2-5.62-5.75H75.84Z"/></g><g id="Group_723-2" data-name="Group 723-2"><path id="Path_132" data-name="Path 132" class="cls-12" d="M84.16,37.76a30.61,30.61,0,0,1,6.19.57c8.88.6,16.28,11.84,15.7,18.32,0,6.14.1-.69-1.31,24.42a2.59,2.59,0,0,1-2.63,2.53H84.35"/><path id="Path_133" data-name="Path 133" class="cls-5" d="M84.19,101.82H97.41V83.21H90.32a.8.8,0,0,1-.82-.78h0"/><path id="Path_133-2" data-name="Path 133-2" class="cls-5" d="M89.5,82.43V77H84.2"/><path id="Path_134" data-name="Path 134" class="cls-6" d="M97.49,83.21H90.4a.81.81,0,0,1-.83-.78h0V77H84.19v24.78h13.3Z"/><path id="Path_136" data-name="Path 136" class="cls-13" d="M98.53,83.21H93.06c0,4.54,0,6.49-8.9,6.49l0,41.78h.15a70.76,70.76,0,0,0,26.12-5v-32A11.62,11.62,0,0,0,98.53,83.2"/><path id="Path_137" data-name="Path 137" class="cls-14" d="M99.44,83.21H93.06c-2.5,4-3.87,6.49-8.9,6.49,0,0,15.35,13.82,15.28-6.49"/><path id="Path_140" data-name="Path 140" class="cls-15" d="M90.58,86.88c2.7,1.35,6.64,2.8,8.63.29-1.58,15.27-15.06,2.53-15.06,2.53,2.67,0,4.3-1.54,6.43-2.82"/><path id="Path_141" data-name="Path 141" class="cls-16" d="M99.07,60.67a1.68,1.68,0,0,1,1.66,1.64v1.18a19.53,19.53,0,0,1-.7,6.8,15.46,15.46,0,0,1-4.9,7.2c-3.2,2.7-7.3,4.61-11,4.61l.07-29.29c6.49,0,9.66,7.8,14.91,7.86"/></g></g><g id="TITULAR-2" class="cls-1"><g class="cls-1"><path class="cls-2" d="M64.28,140.22v7.31H62.17v-7.31H59.86v-1.66h6.73v1.66Z"/><path class="cls-2" d="M67.46,147.53v-9h2.11v9Z"/><path class="cls-2" d="M74.86,140.22v7.31H72.75v-7.31H70.44v-1.66h6.73v1.66Z"/><path class="cls-2" d="M84.63,146.61a3.81,3.81,0,0,1-2.9,1.06,3.85,3.85,0,0,1-2.91-1.06,3.92,3.92,0,0,1-.84-2.82v-5.23H80.1v5.23a2.25,2.25,0,0,0,.35,1.49,1.58,1.58,0,0,0,1.28.56,1.6,1.6,0,0,0,1.29-.56,2.25,2.25,0,0,0,.35-1.49v-5.23h2.12v5.23A3.84,3.84,0,0,1,84.63,146.61Z"/><path class="cls-2" d="M87.06,147.53v-9h2.1v7.23h3.1v1.74Z"/><path class="cls-2" d="M99.13,147.53l-.64-1.81h-3.2l-.63,1.81H92.47l3.38-9H98l3.38,9Zm-2.24-6.67-1.12,3.23H98Z"/><path class="cls-2" d="M106.84,147.53,105,144.1h-.66v3.43h-2.11v-9h3.23c1.71,0,3.35.73,3.35,2.69a2.51,2.51,0,0,1-1.75,2.58l2.27,3.7Zm-1.73-7.34h-.83v2.3h.83c.78,0,1.53-.24,1.53-1.16S105.89,140.19,105.11,140.19Z"/></g></g></g></svg>