<svg id="Layer_1" data-name="Layer 1" xmlns="http://www.w3.org/2000/svg" viewBox="0 0 283.46 283.46"><defs><style>.cls-1{fill:#8abb2a;}.cls-2{fill:#fff;}</style></defs><g id="Grupo_1067" data-name="Grupo 1067"><g id="Grupo_913" data-name="Grupo 913"><circle id="Elipse_60" data-name="Elipse 60" class="cls-1" cx="141.73" cy="141.73" r="127.56"/><g id="Grupo_912" data-name="Grupo 912"><path id="Trazado_572" data-name="Trazado 572" class="cls-2" d="M108.83,144.43l-4.18,4.18a2.7,2.7,0,1,0,3.77,3.87h0l0,0,8.78-8.79a2.68,2.68,0,0,0,0-3.81h0L108.47,131a2.7,2.7,0,0,0-3.82,3.82l4.18,4.18H56.33a11.88,11.88,0,1,0,0,5.39Zm-64.06,3.79a6.48,6.48,0,1,1,6.48-6.49h0A6.5,6.5,0,0,1,44.77,148.22Z"/><path id="Trazado_573" data-name="Trazado 573" class="cls-2" d="M238.69,129.86A11.9,11.9,0,0,0,227.13,139H174.64l4.17-4.18a2.7,2.7,0,0,0-3.76-3.87l-.05,0-8.79,8.79a2.7,2.7,0,0,0,0,3.81h0l8.79,8.79a2.7,2.7,0,1,0,3.87-3.77h0l-.05,0-4.18-4.18h52.5a11.87,11.87,0,1,0,11.56-14.57Zm0,18.35a6.48,6.48,0,1,1,6.48-6.48h0a6.48,6.48,0,0,1-6.48,6.48Z"/><path id="Trazado_574" data-name="Trazado 574" class="cls-2" d="M141.74,32.9A11.87,11.87,0,0,0,139,56.33v52.5l-4.18-4.17a2.7,2.7,0,0,0-3.82,3.81l8.79,8.78a2.68,2.68,0,0,0,3.81,0l8.79-8.78a2.7,2.7,0,0,0-3.82-3.81l-4.17,4.17V56.33a11.87,11.87,0,0,0-2.7-23.43Zm0,18.35a6.48,6.48,0,1,1,6.47-6.48h0A6.48,6.48,0,0,1,141.74,51.25Z"/><path id="Trazado_575" data-name="Trazado 575" class="cls-2" d="M144.43,227.14v-52.5l4.18,4.17a2.69,2.69,0,0,0,3.81-3.81l-8.78-8.79a2.7,2.7,0,0,0-3.81,0h0L131,175a2.7,2.7,0,0,0,3.79,3.85l0,0,4.18-4.17v52.5a11.87,11.87,0,1,0,5.4,0Zm-2.7,18a6.48,6.48,0,1,1,6.48-6.48h0a6.48,6.48,0,0,1-6.48,6.47Z"/><path id="Trazado_576" data-name="Trazado 576" class="cls-2" d="M160.39,126h12.42a2.7,2.7,0,0,0,0-5.39H166.9L204,83.36a11.88,11.88,0,1,0-3.92-3.92l-37.23,37.13v-5.92a2.7,2.7,0,0,0-5.4,0h0v12.43A3.08,3.08,0,0,0,160.39,126Zm45.33-57.4a6.48,6.48,0,1,1,0,9.16h0a6.46,6.46,0,0,1,0-9.13h0Z"/><path id="Trazado_577" data-name="Trazado 577" class="cls-2" d="M123.07,157.47H110.65a2.7,2.7,0,1,0,0,5.4h5.91L79.43,200.11A11.84,11.84,0,1,0,83.36,204l37.24-37.12v5.9a2.7,2.7,0,1,0,5.39,0V160.39A3.09,3.09,0,0,0,123.07,157.47Zm-45.32,57.4a6.47,6.47,0,1,1,0-9.15c1.35,2.12-.37,5.93,0,9.15Z"/><path id="Trazado_578" data-name="Trazado 578" class="cls-2" d="M204,200.11,166.9,162.87h5.91a2.7,2.7,0,0,0,0-5.4H160.38a3.09,3.09,0,0,0-2.91,2.92v12.42a2.7,2.7,0,1,0,5.39,0v-5.92L200.1,204a11.89,11.89,0,0,0,1.74,14.64h0a12.19,12.19,0,0,0,8.41,3.49,11.9,11.9,0,1,0-6.25-22Zm10.84,14.77a6.48,6.48,0,0,1-9.15,0h0a6.47,6.47,0,1,1,9.16,0Z"/><path id="Trazado_579" data-name="Trazado 579" class="cls-2" d="M123.29,108a2.7,2.7,0,0,0-2.69,2.7v5.9L83.36,79.46a11.89,11.89,0,0,0-1.74-14.64h0a11.81,11.81,0,1,0-2.15,18.54l37.12,37.23h-5.91a2.7,2.7,0,0,0,0,5.4h12.42a3.09,3.09,0,0,0,2.92-2.92V110.65A2.7,2.7,0,0,0,123.29,108ZM68.58,77.75a6.48,6.48,0,1,1,9.16,0h0a6.48,6.48,0,0,1-9.15,0Z"/></g></g></g></svg>