<svg id="Layer_1" data-name="Layer 1" xmlns="http://www.w3.org/2000/svg" viewBox="0 0 283.46 283.46"><defs><style>.cls-1{fill:#e0e1e3;}.cls-2{fill:#a8bee2;}.cls-3{fill:#fe9d2b;}.cls-4{fill:#45a735;}.cls-5{fill:#e0007a;}.cls-6{fill:#fff;}.cls-7{fill:#482080;}.cls-8{fill:#5a5b5e;}.cls-11,.cls-9{fill:#313133;}.cls-9{stroke:#313133;stroke-miterlimit:10;stroke-width:6px;}.cls-10{fill:#dad800;}</style></defs><g id="Grupo_911" data-name="Grupo 911"><path id="Trazado_546" data-name="Trazado 546" class="cls-1" d="M37.2,48H222.88V217.14H51.49c-7.89,0-14.29-7-14.29-15.73Z"/><path id="Trazado_547" data-name="Trazado 547" class="cls-2" d="M222.89,44.08V59.81H37.2V44.08c0-8.69,6.4-15.73,14.28-15.73H208.6C216.49,28.35,222.89,35.39,222.89,44.08Z"/><path id="Trazado_548" data-name="Trazado 548" class="cls-3" d="M60.8,48H56.87a3.93,3.93,0,1,1-.17-7.86h4.11a3.93,3.93,0,0,1,0,7.86Z"/><path id="Trazado_549" data-name="Trazado 549" class="cls-4" d="M77.38,48H73.44a3.93,3.93,0,1,1-.17-7.86h4.11a3.93,3.93,0,0,1,0,7.86Z"/><path id="Trazado_550" data-name="Trazado 550" class="cls-5" d="M95.33,48H91.4a3.93,3.93,0,0,1-.18-7.86h4.11A3.93,3.93,0,1,1,95.51,48Z"/><path id="Trazado_551" data-name="Trazado 551" class="cls-6" d="M209.71,48H103.51a3.93,3.93,0,0,1-.18-7.86H209.71a3.93,3.93,0,0,1,0,7.86Z"/><path id="Trazado_552" data-name="Trazado 552" class="cls-7" d="M96.2,126.68H64.74a7.87,7.87,0,0,1-7.87-7.87h0V87.35a7.86,7.86,0,0,1,7.86-7.87H80.47a3.94,3.94,0,0,1,0,7.87H64.74v31.46H96.2V107a3.94,3.94,0,0,1,7.87-.18v12a7.87,7.87,0,0,1-7.87,7.87Z"/><path id="Trazado_553" data-name="Trazado 553" class="cls-5" d="M80.47,110.94a3.89,3.89,0,0,1-2.78-1.15l-7.87-7.87a3.93,3.93,0,0,1,5.56-5.56l4.83,4.82L97.12,80.89a3.93,3.93,0,1,1,6.1,5l-.06.07-19.67,23.6a3.89,3.89,0,0,1-2.84,1.4Z"/><path id="Trazado_554" data-name="Trazado 554" class="cls-7" d="M96.2,193.54H64.74a7.86,7.86,0,0,1-7.87-7.86h0V154.21a7.88,7.88,0,0,1,7.86-7.87H80.47a3.94,3.94,0,0,1,0,7.87H64.74v31.47H96.2v-11.8a3.94,3.94,0,1,1,7.87-.17v12A7.86,7.86,0,0,1,96.2,193.54Z"/><path id="Trazado_555" data-name="Trazado 555" class="cls-5" d="M80.47,177.81a3.89,3.89,0,0,1-2.78-1.15l-7.87-7.87a3.93,3.93,0,0,1,5.56-5.56l4.83,4.82,16.91-20.29a3.93,3.93,0,1,1,6.1,5l-.06.07L83.49,176.4a4,4,0,0,1-2.84,1.4Z"/><g id="Grupo_908" data-name="Grupo 908"><path id="Trazado_556" data-name="Trazado 556" class="cls-8" d="M142.5,91.28H111a3.94,3.94,0,1,1,0-7.87H142.5a3.94,3.94,0,0,1,0,7.87Z"/><path id="Trazado_557" data-name="Trazado 557" class="cls-8" d="M162.16,111H111a3.94,3.94,0,0,1,0-7.87h51.13a3.94,3.94,0,0,1,0,7.87Z"/><path id="Trazado_558" data-name="Trazado 558" class="cls-8" d="M142.5,158.14H111a3.93,3.93,0,0,1,0-7.86H142.5a3.93,3.93,0,0,1,0,7.86Z"/><path id="Trazado_559" data-name="Trazado 559" class="cls-8" d="M138.56,177.81H111a3.94,3.94,0,0,1,0-7.87h27.53a3.94,3.94,0,0,1,.18,7.87Z"/></g><g id="Grupo_910" data-name="Grupo 910"><path id="Trazado_560" data-name="Trazado 560" class="cls-9" d="M230.61,180.53H152a3.94,3.94,0,0,1-3.93-3.94V153a43.27,43.27,0,0,1,86.53,0v23.6A4,4,0,0,1,230.61,180.53Zm-74.73-7.87h70.8V153a35.4,35.4,0,0,0-70.8,0v19.67Z"/><path id="Trazado_561" data-name="Trazado 561" class="cls-10" d="M144.08,168.59h94.4a3.93,3.93,0,0,1,3.94,3.93v59a23.61,23.61,0,0,1-23.6,23.6H163.75a23.61,23.61,0,0,1-23.6-23.6v-59A3.93,3.93,0,0,1,144.08,168.59Z"/><g id="Grupo_909" data-name="Grupo 909"><path id="Trazado_562" data-name="Trazado 562" class="cls-11" d="M191.28,215.79a11.8,11.8,0,1,1,11.8-11.8h0A11.8,11.8,0,0,1,191.28,215.79Zm0-15.74a3.94,3.94,0,1,0,3.94,3.94h0A3.93,3.93,0,0,0,191.28,200.05Z"/><path id="Trazado_563" data-name="Trazado 563" class="cls-11" d="M191.28,227.59a3.93,3.93,0,0,1-3.93-3.94v-11.8a3.94,3.94,0,0,1,7.87,0v11.81A3.93,3.93,0,0,1,191.28,227.59Z"/><path id="Trazado_564" data-name="Trazado 564" class="cls-11" d="M155.89,188.25H140.15a3.93,3.93,0,1,1-.18-7.86h15.91a3.93,3.93,0,1,1,.18,7.86h-.17Z"/><path id="Trazado_565" data-name="Trazado 565" class="cls-11" d="M155.89,204H140.15a3.93,3.93,0,1,1-.18-7.86h15.91a3.93,3.93,0,1,1,.18,7.86.54.54,0,0,1-.18,0Z"/><path id="Trazado_566" data-name="Trazado 566" class="cls-11" d="M155.89,219.72H140.15a3.94,3.94,0,1,1-.18-7.87h15.91a3.94,3.94,0,0,1,.18,7.87h-.17Z"/><path id="Trazado_567" data-name="Trazado 567" class="cls-11" d="M155.89,235.45H140.15a3.93,3.93,0,1,1-.18-7.86h15.91a3.93,3.93,0,1,1,.18,7.86h-.17Z"/><path id="Trazado_568" data-name="Trazado 568" class="cls-11" d="M242.42,188.25H226.69a3.93,3.93,0,1,1-.18-7.86h15.91a3.93,3.93,0,0,1,0,7.86Z"/><path id="Trazado_569" data-name="Trazado 569" class="cls-11" d="M242.42,204H226.69a3.93,3.93,0,1,1-.18-7.86h15.91a3.93,3.93,0,0,1,0,7.86Z"/><path id="Trazado_570" data-name="Trazado 570" class="cls-11" d="M242.42,219.72H226.69a3.94,3.94,0,1,1-.18-7.87h15.91a3.94,3.94,0,0,1,0,7.87Z"/><path id="Trazado_571" data-name="Trazado 571" class="cls-11" d="M242.42,235.45H226.69a3.93,3.93,0,1,1-.18-7.86h15.91a3.93,3.93,0,0,1,0,7.86Z"/></g></g></g></svg>